M48
; DRILL file {KiCad 9.0.7+1} date 2026-03-09T18:30:11+0000
; FORMAT={-:-/ absolute / metric / decimal}
; #@! TF.CreationDate,2026-03-09T18:30:11+00:00
; #@! TF.GenerationSoftware,Kicad,Pcbnew,9.0.7+1
; #@! TF.FileFunction,Plated,1,4,PTH
FMAT,2
METRIC
; #@! TA.AperFunction,Plated,PTH,ViaDrill
T1C0.250
; #@! TA.AperFunction,Plated,PTH,ComponentDrill
T2C0.800
; #@! TA.AperFunction,Plated,PTH,ComponentDrill
T3C1.000
; #@! TA.AperFunction,Plated,PTH,ComponentDrill
T4C1.100
; #@! TA.AperFunction,Plated,PTH,ComponentDrill
T5C1.200
; #@! TA.AperFunction,Plated,PTH,ComponentDrill
T6C1.300
; #@! TA.AperFunction,Plated,PTH,ComponentDrill
T7C1.600
; #@! TA.AperFunction,Plated,PTH,ComponentDrill
T8C2.200
; #@! TA.AperFunction,Plated,PTH,ComponentDrill
T9C3.050
; #@! TA.AperFunction,Plated,PTH,ComponentDrill
T10C3.162
; #@! TA.AperFunction,Plated,PTH,ComponentDrill
T11C3.200
; #@! TA.AperFunction,Plated,PTH,ComponentDrill
T12C3.640
%
G90
G05
T1
X187.665Y-238.81
X188.45Y-151.2
X213.612Y-151.21
X238.537Y-151.19
X240.5Y-219.1
X240.5Y-221.9
X241.4Y-219.1
X241.63Y-217.9
X241.8Y-216.6
X241.85Y-254.8
X242.1Y-218.7
X242.3Y-252.98
X242.3Y-253.91
X242.48Y-217.9
X242.5Y-217.2
X242.88Y-218.79
X243.4Y-252.98
X243.4Y-253.91
X243.4Y-254.9
X244.1Y-218.8
X244.5Y-253.9
X244.507Y-252.95
X244.507Y-254.9
X245.6Y-252.98
X245.6Y-253.91
X245.6Y-254.9
X246.1Y-255.8
X246.1Y-256.7
X246.6Y-252.98
X246.6Y-253.91
X246.6Y-254.9
X250.5Y-218.78
X251.77Y-218.82
X254.0Y-220.2
X263.45Y-151.137
X268.9Y-178.95
X269.8Y-180.6
X276.725Y-215.53
X277.4Y-233.2
X278.275Y-215.53
X278.45Y-217.3
X278.5Y-228.35
X278.5Y-233.15
X279.412Y-223.66
X279.48Y-233.15
X280.13Y-224.65
X280.5Y-223.7
X280.8Y-225.3
X280.8Y-226.0
X281.1Y-224.65
X281.5Y-223.7
X281.5Y-225.6
X281.9Y-224.65
X282.3Y-225.6
X282.7Y-224.6
X282.73Y-216.2
X285.825Y-232.475
X286.5Y-233.15
X286.6Y-212.55
X286.7Y-217.29
X286.912Y-215.51
X286.95Y-229.15
X287.662Y-223.67
X287.662Y-224.65
X288.4Y-151.272
X288.57Y-224.65
X289.1Y-224.7
X289.23Y-216.2
X289.23Y-225.2
X289.23Y-225.87
X289.23Y-226.51
X295.73Y-216.2
X295.73Y-224.6
X302.23Y-224.6
X302.3Y-216.2
X308.73Y-216.2
X308.73Y-224.6
X313.45Y-151.2
X315.23Y-216.2
X315.23Y-224.6
X321.73Y-216.2
X321.73Y-224.6
X328.23Y-216.2
X328.23Y-224.6
X331.75Y-230.38
X331.95Y-214.52
X332.1Y-209.6
X332.45Y-226.65
X334.05Y-222.51
X334.05Y-223.2
X334.73Y-216.2
X334.73Y-224.6
X334.73Y-225.2
X334.73Y-225.81
X334.73Y-226.41
X338.4Y-151.282
X338.65Y-210.25
X339.75Y-225.6
X339.912Y-212.76
X339.95Y-214.53
X340.0Y-230.38
X341.23Y-216.2
X341.23Y-224.6
X341.23Y-225.27
X341.23Y-225.9
X341.23Y-226.51
X341.79Y-224.38
X363.037Y-151.21
X364.02Y-254.65
X364.61Y-254.65
X365.26Y-247.35
X365.26Y-249.65
X365.26Y-252.1
X365.26Y-254.65
X366.0Y-254.65
X366.73Y-254.65
X367.99Y-245.35
X367.99Y-248.4
X368.0Y-250.9
X368.01Y-253.45
X380.75Y-246.4
X382.3Y-245.75
X382.3Y-246.4
X383.0Y-245.73
X383.0Y-246.4
X383.7Y-245.8
X383.7Y-246.4
X385.0Y-246.4
X388.7Y-151.147
X389.25Y-246.4
X391.5Y-246.4
X397.75Y-246.4
X400.0Y-246.4
X406.25Y-246.4
X408.5Y-246.4
X413.65Y-151.262
X414.75Y-246.4
X417.0Y-246.4
T2
X446.5Y-257.739
X446.5Y-260.239
X456.25Y-257.739
X456.25Y-260.239
T3
X285.365Y-258.91
X286.75Y-261.75
X288.135Y-258.91
X289.52Y-261.75
X290.905Y-258.91
X292.29Y-261.75
X293.675Y-258.91
X295.06Y-261.75
X296.445Y-258.91
X331.555Y-256.86
X332.7Y-259.4
X333.845Y-256.86
X333.845Y-261.94
X334.99Y-259.4
X336.135Y-256.86
X336.135Y-261.94
X337.28Y-259.4
X338.425Y-256.86
X338.425Y-261.94
X339.57Y-259.4
X340.715Y-256.86
X340.715Y-261.94
X341.86Y-259.4
X343.005Y-256.86
X343.005Y-261.94
X344.15Y-259.4
X345.295Y-256.86
X345.295Y-261.94
X346.44Y-259.4
X347.585Y-256.86
X347.585Y-261.94
X348.73Y-259.4
X349.875Y-256.86
X349.875Y-261.94
X351.02Y-259.4
X365.605Y-184.075
X365.605Y-186.615
X365.605Y-189.155
X365.605Y-191.695
X365.605Y-194.235
X365.605Y-196.775
X365.605Y-199.315
X365.605Y-201.855
X365.605Y-204.395
X365.605Y-206.935
X365.605Y-209.475
X365.605Y-212.015
X365.605Y-214.555
X365.605Y-217.095
X365.605Y-219.635
X365.605Y-222.175
X365.605Y-224.715
X365.605Y-227.255
X368.145Y-184.075
X368.145Y-186.615
X368.145Y-189.155
X368.145Y-191.695
X368.145Y-194.235
X368.145Y-196.775
X368.145Y-199.315
X368.145Y-201.855
X368.145Y-204.395
X368.145Y-206.935
X368.145Y-209.475
X368.145Y-212.015
X368.145Y-214.555
X368.145Y-217.095
X368.145Y-219.635
X368.145Y-222.175
X368.145Y-224.715
X368.145Y-227.255
X370.685Y-232.335
X373.225Y-232.335
X375.765Y-184.075
X375.765Y-232.335
X375.95Y-175.6
X378.305Y-184.075
X378.305Y-232.335
X378.49Y-175.6
X380.845Y-184.075
X380.845Y-232.335
X381.03Y-175.6
X383.385Y-184.075
X383.385Y-232.335
X383.57Y-175.6
X385.925Y-184.075
X385.925Y-232.335
X386.11Y-175.6
X388.465Y-184.075
X388.465Y-232.335
X388.65Y-175.6
X391.005Y-184.075
X393.545Y-184.075
X393.545Y-232.335
X396.085Y-232.335
X398.625Y-184.075
X398.625Y-232.335
X401.165Y-184.075
X401.165Y-232.335
X403.705Y-184.075
X403.705Y-232.335
X406.245Y-184.075
X406.245Y-232.335
X408.785Y-184.075
X408.785Y-232.335
X411.325Y-184.075
X411.325Y-232.335
X413.865Y-184.075
X416.405Y-184.075
X416.405Y-232.335
X418.945Y-232.335
X420.469Y-184.075
X421.485Y-232.335
X423.009Y-184.075
X424.025Y-232.335
X425.549Y-184.075
X426.565Y-232.335
X428.089Y-184.075
X429.105Y-232.335
X430.629Y-184.075
X431.645Y-232.335
X433.169Y-184.075
X434.185Y-232.335
X435.709Y-184.075
X438.249Y-184.075
X440.789Y-184.075
X443.329Y-184.075
X453.5Y-249.65
X456.04Y-249.65
X458.58Y-249.65
T4
X184.91Y-239.11
X184.91Y-241.65
X184.91Y-244.19
X235.347Y-256.4
X235.347Y-261.48
X236.492Y-258.94
X237.637Y-256.4
X237.637Y-261.48
X238.782Y-258.94
X239.927Y-256.4
X239.927Y-261.48
X241.072Y-258.94
X242.218Y-256.4
X242.218Y-261.48
X243.362Y-258.94
X244.507Y-256.4
X244.507Y-261.48
X245.652Y-258.94
T5
X179.79Y-253.11
X179.79Y-263.27
X189.95Y-253.11
X189.95Y-263.27
X199.79Y-253.11
X199.79Y-263.27
X209.95Y-253.11
X209.95Y-263.27
T6
X175.5Y-137.86
X175.5Y-153.1
X183.1Y-140.4
X183.1Y-153.1
X200.5Y-137.86
X200.5Y-153.1
X208.1Y-140.4
X208.1Y-153.1
X225.5Y-137.86
X225.5Y-153.1
X233.1Y-140.4
X233.1Y-153.1
X250.5Y-137.86
X250.5Y-153.1
X258.1Y-140.4
X258.1Y-153.1
X275.5Y-137.86
X275.5Y-153.1
X283.1Y-140.4
X283.1Y-153.1
X300.5Y-137.86
X300.5Y-153.1
X308.1Y-140.4
X308.1Y-153.1
X325.5Y-137.86
X325.5Y-153.1
X333.1Y-140.4
X333.1Y-153.1
X350.1Y-137.86
X350.1Y-153.1
X357.7Y-140.4
X357.7Y-153.1
X375.537Y-137.86
X375.537Y-153.1
X383.137Y-140.4
X383.137Y-153.1
X400.5Y-137.86
X400.5Y-153.1
X408.1Y-140.4
X408.1Y-153.1
X466.46Y-153.07
X466.46Y-155.36
X466.46Y-157.65
X466.46Y-159.94
X466.46Y-162.23
X469.0Y-154.21
X469.0Y-156.5
X469.0Y-158.79
X469.0Y-161.08
X469.0Y-163.37
X471.54Y-153.07
X471.54Y-155.36
X471.54Y-157.65
X471.54Y-159.94
X471.54Y-162.23
T7
X176.42Y-125.4
X181.5Y-125.4
X201.42Y-125.4
X206.5Y-125.4
X226.42Y-125.4
X231.5Y-125.4
X251.42Y-125.4
X256.5Y-125.4
X276.42Y-125.4
X281.5Y-125.4
X301.42Y-125.4
X306.5Y-125.4
X326.42Y-125.4
X331.5Y-125.4
X351.42Y-125.4
X356.5Y-125.4
X376.42Y-125.4
X381.5Y-125.4
X401.42Y-125.4
X406.5Y-125.4
T8
X184.87Y-256.91
X204.87Y-256.91
T9
X278.41Y-260.33
X303.4Y-260.33
T10
X454.8Y-132.4
X459.5Y-129.4
T11
X164.5Y-124.4
X164.5Y-195.4
X164.5Y-266.4
X228.005Y-258.94
X241.5Y-124.4
X252.994Y-258.94
X268.5Y-266.4
X316.5Y-124.4
X324.6Y-259.4
X357.9Y-259.4
X372.5Y-266.4
X391.5Y-124.4
X469.0Y-145.4
X469.0Y-170.39
X476.5Y-124.4
X476.5Y-195.4
X476.5Y-266.4
T12
X459.5Y-135.4
M30
