%TF.GenerationSoftware,KiCad,Pcbnew,9.0.7+1*%
%TF.CreationDate,Date%
%TF.ProjectId,R-PCBA-VPEG-PWR,522d5043-4241-42d5-9650-45472d505752,1.0.0*%
%TF.SameCoordinates,Original*%
%TF.FileFunction,Legend,Bot*%
%TF.FilePolarity,Positive*%
%FSLAX46Y46*%
G04 Gerber Fmt 4.6, Leading zero omitted, Abs format (unit mm)*
G04 Created by KiCad*
%MOMM*%
%LPD*%
G01*
G04 APERTURE LIST*
G04 Aperture macros list*
%AMRoundRect*
0 Rectangle with rounded corners*
0 $1 Rounding radius*
0 $2 $3 $4 $5 $6 $7 $8 $9 X,Y pos of 4 corners*
0 Add a 4 corners polygon primitive as box body*
4,1,4,$2,$3,$4,$5,$6,$7,$8,$9,$2,$3,0*
0 Add four circle primitives for the rounded corners*
1,1,$1+$1,$2,$3*
1,1,$1+$1,$4,$5*
1,1,$1+$1,$6,$7*
1,1,$1+$1,$8,$9*
0 Add four rect primitives between the rounded corners*
20,1,$1+$1,$2,$3,$4,$5,0*
20,1,$1+$1,$4,$5,$6,$7,0*
20,1,$1+$1,$6,$7,$8,$9,0*
20,1,$1+$1,$8,$9,$2,$3,0*%
G04 Aperture macros list end*
%ADD10C,0.150000*%
%ADD11C,0.500000*%
%ADD12C,0.254000*%
%ADD13C,0.120000*%
%ADD14C,0.200000*%
%ADD15C,2.050000*%
%ADD16C,5.700000*%
%ADD17RoundRect,0.050000X1.200000X1.200000X-1.200000X1.200000X-1.200000X-1.200000X1.200000X-1.200000X0*%
%ADD18C,2.500000*%
%ADD19RoundRect,0.050000X-0.850000X0.850000X-0.850000X-0.850000X0.850000X-0.850000X0.850000X0.850000X0*%
%ADD20C,1.800000*%
%ADD21RoundRect,0.050000X1.650000X-1.650000X1.650000X1.650000X-1.650000X1.650000X-1.650000X-1.650000X0*%
%ADD22C,1.900000*%
%ADD23RoundRect,0.102000X0.975000X-0.975000X0.975000X0.975000X-0.975000X0.975000X-0.975000X-0.975000X0*%
%ADD24C,2.154000*%
%ADD25C,4.420000*%
%ADD26RoundRect,0.265625X-0.584375X0.584375X-0.584375X-0.584375X0.584375X-0.584375X0.584375X0.584375X0*%
%ADD27C,1.700000*%
%ADD28C,5.560000*%
%ADD29C,4.843000*%
%ADD30C,4.100000*%
%ADD31RoundRect,0.050000X-0.800000X-0.800000X0.800000X-0.800000X0.800000X0.800000X-0.800000X0.800000X0*%
%ADD32RoundRect,0.050000X-0.825000X-0.825000X0.825000X-0.825000X0.825000X0.825000X-0.825000X0.825000X0*%
%ADD33C,1.750000*%
%ADD34C,4.900000*%
%ADD35RoundRect,0.050000X0.850000X-0.850000X0.850000X0.850000X-0.850000X0.850000X-0.850000X-0.850000X0*%
%ADD36RoundRect,0.050000X-0.750000X-0.750000X0.750000X-0.750000X0.750000X0.750000X-0.750000X0.750000X0*%
%ADD37C,1.600000*%
%ADD38C,4.675000*%
%ADD39C,3.600000*%
%ADD40RoundRect,0.050000X1.000000X-0.952500X1.000000X0.952500X-1.000000X0.952500X-1.000000X-0.952500X0*%
%ADD41O,2.100000X2.005000*%
%ADD42RoundRect,0.050000X0.850000X0.850000X-0.850000X0.850000X-0.850000X-0.850000X0.850000X-0.850000X0*%
%ADD43RoundRect,0.050000X0.500000X0.500000X-0.500000X0.500000X-0.500000X-0.500000X0.500000X-0.500000X0*%
%ADD44RoundRect,0.250000X-0.250000X-0.275000X0.250000X-0.275000X0.250000X0.275000X-0.250000X0.275000X0*%
%ADD45RoundRect,0.175000X-0.175000X0.612500X-0.175000X-0.612500X0.175000X-0.612500X0.175000X0.612500X0*%
%ADD46RoundRect,0.274390X-0.288110X-0.475610X0.288110X-0.475610X0.288110X0.475610X-0.288110X0.475610X0*%
%ADD47RoundRect,0.050000X0.450000X0.900000X-0.450000X0.900000X-0.450000X-0.900000X0.450000X-0.900000X0*%
%ADD48RoundRect,0.050000X-1.600000X0.900000X-1.600000X-0.900000X1.600000X-0.900000X1.600000X0.900000X0*%
%ADD49C,3.300000*%
%ADD50RoundRect,0.050000X0.500000X-0.500000X0.500000X0.500000X-0.500000X0.500000X-0.500000X-0.500000X0*%
G04 APERTURE END LIST*
D10*
X202606077Y-190901782D02*
X202272744Y-191901782D01*
X202272744Y-191901782D02*
X201939411Y-190901782D01*
X201606077Y-191901782D02*
X201606077Y-190901782D01*
X201129887Y-191901782D02*
X201129887Y-190901782D01*
X200558459Y-191901782D02*
X200987030Y-191330353D01*
X200558459Y-190901782D02*
X201129887Y-191473210D01*
X200129887Y-191901782D02*
X200129887Y-190901782D01*
X198891792Y-191901782D02*
X198891792Y-190901782D01*
X198891792Y-190901782D02*
X198510840Y-190901782D01*
X198510840Y-190901782D02*
X198415602Y-190949401D01*
X198415602Y-190949401D02*
X198367983Y-190997020D01*
X198367983Y-190997020D02*
X198320364Y-191092258D01*
X198320364Y-191092258D02*
X198320364Y-191235115D01*
X198320364Y-191235115D02*
X198367983Y-191330353D01*
X198367983Y-191330353D02*
X198415602Y-191377972D01*
X198415602Y-191377972D02*
X198510840Y-191425591D01*
X198510840Y-191425591D02*
X198891792Y-191425591D01*
X197891792Y-191901782D02*
X197891792Y-190901782D01*
X197891792Y-190901782D02*
X197653697Y-190901782D01*
X197653697Y-190901782D02*
X197510840Y-190949401D01*
X197510840Y-190949401D02*
X197415602Y-191044639D01*
X197415602Y-191044639D02*
X197367983Y-191139877D01*
X197367983Y-191139877D02*
X197320364Y-191330353D01*
X197320364Y-191330353D02*
X197320364Y-191473210D01*
X197320364Y-191473210D02*
X197367983Y-191663686D01*
X197367983Y-191663686D02*
X197415602Y-191758924D01*
X197415602Y-191758924D02*
X197510840Y-191854163D01*
X197510840Y-191854163D02*
X197653697Y-191901782D01*
X197653697Y-191901782D02*
X197891792Y-191901782D01*
X196320364Y-191806543D02*
X196367983Y-191854163D01*
X196367983Y-191854163D02*
X196510840Y-191901782D01*
X196510840Y-191901782D02*
X196606078Y-191901782D01*
X196606078Y-191901782D02*
X196748935Y-191854163D01*
X196748935Y-191854163D02*
X196844173Y-191758924D01*
X196844173Y-191758924D02*
X196891792Y-191663686D01*
X196891792Y-191663686D02*
X196939411Y-191473210D01*
X196939411Y-191473210D02*
X196939411Y-191330353D01*
X196939411Y-191330353D02*
X196891792Y-191139877D01*
X196891792Y-191139877D02*
X196844173Y-191044639D01*
X196844173Y-191044639D02*
X196748935Y-190949401D01*
X196748935Y-190949401D02*
X196606078Y-190901782D01*
X196606078Y-190901782D02*
X196510840Y-190901782D01*
X196510840Y-190901782D02*
X196367983Y-190949401D01*
X196367983Y-190949401D02*
X196320364Y-190997020D01*
X195891792Y-190901782D02*
X195891792Y-191711305D01*
X195891792Y-191711305D02*
X195844173Y-191806543D01*
X195844173Y-191806543D02*
X195796554Y-191854163D01*
X195796554Y-191854163D02*
X195701316Y-191901782D01*
X195701316Y-191901782D02*
X195510840Y-191901782D01*
X195510840Y-191901782D02*
X195415602Y-191854163D01*
X195415602Y-191854163D02*
X195367983Y-191806543D01*
X195367983Y-191806543D02*
X195320364Y-191711305D01*
X195320364Y-191711305D02*
X195320364Y-190901782D01*
X194082268Y-191377972D02*
X193748935Y-191377972D01*
X193606078Y-191901782D02*
X194082268Y-191901782D01*
X194082268Y-191901782D02*
X194082268Y-190901782D01*
X194082268Y-190901782D02*
X193606078Y-190901782D01*
X192653697Y-190949401D02*
X192748935Y-190901782D01*
X192748935Y-190901782D02*
X192891792Y-190901782D01*
X192891792Y-190901782D02*
X193034649Y-190949401D01*
X193034649Y-190949401D02*
X193129887Y-191044639D01*
X193129887Y-191044639D02*
X193177506Y-191139877D01*
X193177506Y-191139877D02*
X193225125Y-191330353D01*
X193225125Y-191330353D02*
X193225125Y-191473210D01*
X193225125Y-191473210D02*
X193177506Y-191663686D01*
X193177506Y-191663686D02*
X193129887Y-191758924D01*
X193129887Y-191758924D02*
X193034649Y-191854163D01*
X193034649Y-191854163D02*
X192891792Y-191901782D01*
X192891792Y-191901782D02*
X192796554Y-191901782D01*
X192796554Y-191901782D02*
X192653697Y-191854163D01*
X192653697Y-191854163D02*
X192606078Y-191806543D01*
X192606078Y-191806543D02*
X192606078Y-191473210D01*
X192606078Y-191473210D02*
X192796554Y-191473210D01*
X192225125Y-191854163D02*
X192082268Y-191901782D01*
X192082268Y-191901782D02*
X191844173Y-191901782D01*
X191844173Y-191901782D02*
X191748935Y-191854163D01*
X191748935Y-191854163D02*
X191701316Y-191806543D01*
X191701316Y-191806543D02*
X191653697Y-191711305D01*
X191653697Y-191711305D02*
X191653697Y-191616067D01*
X191653697Y-191616067D02*
X191701316Y-191520829D01*
X191701316Y-191520829D02*
X191748935Y-191473210D01*
X191748935Y-191473210D02*
X191844173Y-191425591D01*
X191844173Y-191425591D02*
X192034649Y-191377972D01*
X192034649Y-191377972D02*
X192129887Y-191330353D01*
X192129887Y-191330353D02*
X192177506Y-191282734D01*
X192177506Y-191282734D02*
X192225125Y-191187496D01*
X192225125Y-191187496D02*
X192225125Y-191092258D01*
X192225125Y-191092258D02*
X192177506Y-190997020D01*
X192177506Y-190997020D02*
X192129887Y-190949401D01*
X192129887Y-190949401D02*
X192034649Y-190901782D01*
X192034649Y-190901782D02*
X191796554Y-190901782D01*
X191796554Y-190901782D02*
X191653697Y-190949401D01*
X191225125Y-191377972D02*
X190891792Y-191377972D01*
X190748935Y-191901782D02*
X191225125Y-191901782D01*
X191225125Y-191901782D02*
X191225125Y-190901782D01*
X191225125Y-190901782D02*
X190748935Y-190901782D01*
X189701315Y-190901782D02*
X189367982Y-191901782D01*
X189367982Y-191901782D02*
X189034649Y-190901782D01*
X188701315Y-191806543D02*
X188653696Y-191854163D01*
X188653696Y-191854163D02*
X188701315Y-191901782D01*
X188701315Y-191901782D02*
X188748934Y-191854163D01*
X188748934Y-191854163D02*
X188701315Y-191806543D01*
X188701315Y-191806543D02*
X188701315Y-191901782D01*
X187701316Y-191901782D02*
X188272744Y-191901782D01*
X187987030Y-191901782D02*
X187987030Y-190901782D01*
X187987030Y-190901782D02*
X188082268Y-191044639D01*
X188082268Y-191044639D02*
X188177506Y-191139877D01*
X188177506Y-191139877D02*
X188272744Y-191187496D01*
X187272744Y-191806543D02*
X187225125Y-191854163D01*
X187225125Y-191854163D02*
X187272744Y-191901782D01*
X187272744Y-191901782D02*
X187320363Y-191854163D01*
X187320363Y-191854163D02*
X187272744Y-191806543D01*
X187272744Y-191806543D02*
X187272744Y-191901782D01*
X186606078Y-190901782D02*
X186510840Y-190901782D01*
X186510840Y-190901782D02*
X186415602Y-190949401D01*
X186415602Y-190949401D02*
X186367983Y-190997020D01*
X186367983Y-190997020D02*
X186320364Y-191092258D01*
X186320364Y-191092258D02*
X186272745Y-191282734D01*
X186272745Y-191282734D02*
X186272745Y-191520829D01*
X186272745Y-191520829D02*
X186320364Y-191711305D01*
X186320364Y-191711305D02*
X186367983Y-191806543D01*
X186367983Y-191806543D02*
X186415602Y-191854163D01*
X186415602Y-191854163D02*
X186510840Y-191901782D01*
X186510840Y-191901782D02*
X186606078Y-191901782D01*
X186606078Y-191901782D02*
X186701316Y-191854163D01*
X186701316Y-191854163D02*
X186748935Y-191806543D01*
X186748935Y-191806543D02*
X186796554Y-191711305D01*
X186796554Y-191711305D02*
X186844173Y-191520829D01*
X186844173Y-191520829D02*
X186844173Y-191282734D01*
X186844173Y-191282734D02*
X186796554Y-191092258D01*
X186796554Y-191092258D02*
X186748935Y-190997020D01*
X186748935Y-190997020D02*
X186701316Y-190949401D01*
X186701316Y-190949401D02*
X186606078Y-190901782D01*
X185844173Y-191806543D02*
X185796554Y-191854163D01*
X185796554Y-191854163D02*
X185844173Y-191901782D01*
X185844173Y-191901782D02*
X185891792Y-191854163D01*
X185891792Y-191854163D02*
X185844173Y-191806543D01*
X185844173Y-191806543D02*
X185844173Y-191901782D01*
X185177507Y-190901782D02*
X185082269Y-190901782D01*
X185082269Y-190901782D02*
X184987031Y-190949401D01*
X184987031Y-190949401D02*
X184939412Y-190997020D01*
X184939412Y-190997020D02*
X184891793Y-191092258D01*
X184891793Y-191092258D02*
X184844174Y-191282734D01*
X184844174Y-191282734D02*
X184844174Y-191520829D01*
X184844174Y-191520829D02*
X184891793Y-191711305D01*
X184891793Y-191711305D02*
X184939412Y-191806543D01*
X184939412Y-191806543D02*
X184987031Y-191854163D01*
X184987031Y-191854163D02*
X185082269Y-191901782D01*
X185082269Y-191901782D02*
X185177507Y-191901782D01*
X185177507Y-191901782D02*
X185272745Y-191854163D01*
X185272745Y-191854163D02*
X185320364Y-191806543D01*
X185320364Y-191806543D02*
X185367983Y-191711305D01*
X185367983Y-191711305D02*
X185415602Y-191520829D01*
X185415602Y-191520829D02*
X185415602Y-191282734D01*
X185415602Y-191282734D02*
X185367983Y-191092258D01*
X185367983Y-191092258D02*
X185320364Y-190997020D01*
X185320364Y-190997020D02*
X185272745Y-190949401D01*
X185272745Y-190949401D02*
X185177507Y-190901782D01*
X201891792Y-193511726D02*
X202225125Y-193035535D01*
X202463220Y-193511726D02*
X202463220Y-192511726D01*
X202463220Y-192511726D02*
X202082268Y-192511726D01*
X202082268Y-192511726D02*
X201987030Y-192559345D01*
X201987030Y-192559345D02*
X201939411Y-192606964D01*
X201939411Y-192606964D02*
X201891792Y-192702202D01*
X201891792Y-192702202D02*
X201891792Y-192845059D01*
X201891792Y-192845059D02*
X201939411Y-192940297D01*
X201939411Y-192940297D02*
X201987030Y-192987916D01*
X201987030Y-192987916D02*
X202082268Y-193035535D01*
X202082268Y-193035535D02*
X202463220Y-193035535D01*
X201082268Y-193464107D02*
X201177506Y-193511726D01*
X201177506Y-193511726D02*
X201367982Y-193511726D01*
X201367982Y-193511726D02*
X201463220Y-193464107D01*
X201463220Y-193464107D02*
X201510839Y-193368868D01*
X201510839Y-193368868D02*
X201510839Y-192987916D01*
X201510839Y-192987916D02*
X201463220Y-192892678D01*
X201463220Y-192892678D02*
X201367982Y-192845059D01*
X201367982Y-192845059D02*
X201177506Y-192845059D01*
X201177506Y-192845059D02*
X201082268Y-192892678D01*
X201082268Y-192892678D02*
X201034649Y-192987916D01*
X201034649Y-192987916D02*
X201034649Y-193083154D01*
X201034649Y-193083154D02*
X201510839Y-193178392D01*
X200177506Y-193511726D02*
X200177506Y-192987916D01*
X200177506Y-192987916D02*
X200225125Y-192892678D01*
X200225125Y-192892678D02*
X200320363Y-192845059D01*
X200320363Y-192845059D02*
X200510839Y-192845059D01*
X200510839Y-192845059D02*
X200606077Y-192892678D01*
X200177506Y-193464107D02*
X200272744Y-193511726D01*
X200272744Y-193511726D02*
X200510839Y-193511726D01*
X200510839Y-193511726D02*
X200606077Y-193464107D01*
X200606077Y-193464107D02*
X200653696Y-193368868D01*
X200653696Y-193368868D02*
X200653696Y-193273630D01*
X200653696Y-193273630D02*
X200606077Y-193178392D01*
X200606077Y-193178392D02*
X200510839Y-193130773D01*
X200510839Y-193130773D02*
X200272744Y-193130773D01*
X200272744Y-193130773D02*
X200177506Y-193083154D01*
X199558458Y-193511726D02*
X199653696Y-193464107D01*
X199653696Y-193464107D02*
X199701315Y-193368868D01*
X199701315Y-193368868D02*
X199701315Y-192511726D01*
X199320362Y-192845059D02*
X198939410Y-192845059D01*
X199177505Y-192511726D02*
X199177505Y-193368868D01*
X199177505Y-193368868D02*
X199129886Y-193464107D01*
X199129886Y-193464107D02*
X199034648Y-193511726D01*
X199034648Y-193511726D02*
X198939410Y-193511726D01*
X198606076Y-193511726D02*
X198606076Y-192845059D01*
X198606076Y-193035535D02*
X198558457Y-192940297D01*
X198558457Y-192940297D02*
X198510838Y-192892678D01*
X198510838Y-192892678D02*
X198415600Y-192845059D01*
X198415600Y-192845059D02*
X198320362Y-192845059D01*
X197558457Y-193511726D02*
X197558457Y-192987916D01*
X197558457Y-192987916D02*
X197606076Y-192892678D01*
X197606076Y-192892678D02*
X197701314Y-192845059D01*
X197701314Y-192845059D02*
X197891790Y-192845059D01*
X197891790Y-192845059D02*
X197987028Y-192892678D01*
X197558457Y-193464107D02*
X197653695Y-193511726D01*
X197653695Y-193511726D02*
X197891790Y-193511726D01*
X197891790Y-193511726D02*
X197987028Y-193464107D01*
X197987028Y-193464107D02*
X198034647Y-193368868D01*
X198034647Y-193368868D02*
X198034647Y-193273630D01*
X198034647Y-193273630D02*
X197987028Y-193178392D01*
X197987028Y-193178392D02*
X197891790Y-193130773D01*
X197891790Y-193130773D02*
X197653695Y-193130773D01*
X197653695Y-193130773D02*
X197558457Y-193083154D01*
X196367980Y-193464107D02*
X196225123Y-193511726D01*
X196225123Y-193511726D02*
X195987028Y-193511726D01*
X195987028Y-193511726D02*
X195891790Y-193464107D01*
X195891790Y-193464107D02*
X195844171Y-193416487D01*
X195844171Y-193416487D02*
X195796552Y-193321249D01*
X195796552Y-193321249D02*
X195796552Y-193226011D01*
X195796552Y-193226011D02*
X195844171Y-193130773D01*
X195844171Y-193130773D02*
X195891790Y-193083154D01*
X195891790Y-193083154D02*
X195987028Y-193035535D01*
X195987028Y-193035535D02*
X196177504Y-192987916D01*
X196177504Y-192987916D02*
X196272742Y-192940297D01*
X196272742Y-192940297D02*
X196320361Y-192892678D01*
X196320361Y-192892678D02*
X196367980Y-192797440D01*
X196367980Y-192797440D02*
X196367980Y-192702202D01*
X196367980Y-192702202D02*
X196320361Y-192606964D01*
X196320361Y-192606964D02*
X196272742Y-192559345D01*
X196272742Y-192559345D02*
X196177504Y-192511726D01*
X196177504Y-192511726D02*
X195939409Y-192511726D01*
X195939409Y-192511726D02*
X195796552Y-192559345D01*
X195367980Y-192845059D02*
X195367980Y-193845059D01*
X195367980Y-192892678D02*
X195272742Y-192845059D01*
X195272742Y-192845059D02*
X195082266Y-192845059D01*
X195082266Y-192845059D02*
X194987028Y-192892678D01*
X194987028Y-192892678D02*
X194939409Y-192940297D01*
X194939409Y-192940297D02*
X194891790Y-193035535D01*
X194891790Y-193035535D02*
X194891790Y-193321249D01*
X194891790Y-193321249D02*
X194939409Y-193416487D01*
X194939409Y-193416487D02*
X194987028Y-193464107D01*
X194987028Y-193464107D02*
X195082266Y-193511726D01*
X195082266Y-193511726D02*
X195272742Y-193511726D01*
X195272742Y-193511726D02*
X195367980Y-193464107D01*
X194034647Y-193511726D02*
X194034647Y-192987916D01*
X194034647Y-192987916D02*
X194082266Y-192892678D01*
X194082266Y-192892678D02*
X194177504Y-192845059D01*
X194177504Y-192845059D02*
X194367980Y-192845059D01*
X194367980Y-192845059D02*
X194463218Y-192892678D01*
X194034647Y-193464107D02*
X194129885Y-193511726D01*
X194129885Y-193511726D02*
X194367980Y-193511726D01*
X194367980Y-193511726D02*
X194463218Y-193464107D01*
X194463218Y-193464107D02*
X194510837Y-193368868D01*
X194510837Y-193368868D02*
X194510837Y-193273630D01*
X194510837Y-193273630D02*
X194463218Y-193178392D01*
X194463218Y-193178392D02*
X194367980Y-193130773D01*
X194367980Y-193130773D02*
X194129885Y-193130773D01*
X194129885Y-193130773D02*
X194034647Y-193083154D01*
X193129885Y-193464107D02*
X193225123Y-193511726D01*
X193225123Y-193511726D02*
X193415599Y-193511726D01*
X193415599Y-193511726D02*
X193510837Y-193464107D01*
X193510837Y-193464107D02*
X193558456Y-193416487D01*
X193558456Y-193416487D02*
X193606075Y-193321249D01*
X193606075Y-193321249D02*
X193606075Y-193035535D01*
X193606075Y-193035535D02*
X193558456Y-192940297D01*
X193558456Y-192940297D02*
X193510837Y-192892678D01*
X193510837Y-192892678D02*
X193415599Y-192845059D01*
X193415599Y-192845059D02*
X193225123Y-192845059D01*
X193225123Y-192845059D02*
X193129885Y-192892678D01*
X192320361Y-193464107D02*
X192415599Y-193511726D01*
X192415599Y-193511726D02*
X192606075Y-193511726D01*
X192606075Y-193511726D02*
X192701313Y-193464107D01*
X192701313Y-193464107D02*
X192748932Y-193368868D01*
X192748932Y-193368868D02*
X192748932Y-192987916D01*
X192748932Y-192987916D02*
X192701313Y-192892678D01*
X192701313Y-192892678D02*
X192606075Y-192845059D01*
X192606075Y-192845059D02*
X192415599Y-192845059D01*
X192415599Y-192845059D02*
X192320361Y-192892678D01*
X192320361Y-192892678D02*
X192272742Y-192987916D01*
X192272742Y-192987916D02*
X192272742Y-193083154D01*
X192272742Y-193083154D02*
X192748932Y-193178392D01*
X191129884Y-193464107D02*
X190987027Y-193511726D01*
X190987027Y-193511726D02*
X190748932Y-193511726D01*
X190748932Y-193511726D02*
X190653694Y-193464107D01*
X190653694Y-193464107D02*
X190606075Y-193416487D01*
X190606075Y-193416487D02*
X190558456Y-193321249D01*
X190558456Y-193321249D02*
X190558456Y-193226011D01*
X190558456Y-193226011D02*
X190606075Y-193130773D01*
X190606075Y-193130773D02*
X190653694Y-193083154D01*
X190653694Y-193083154D02*
X190748932Y-193035535D01*
X190748932Y-193035535D02*
X190939408Y-192987916D01*
X190939408Y-192987916D02*
X191034646Y-192940297D01*
X191034646Y-192940297D02*
X191082265Y-192892678D01*
X191082265Y-192892678D02*
X191129884Y-192797440D01*
X191129884Y-192797440D02*
X191129884Y-192702202D01*
X191129884Y-192702202D02*
X191082265Y-192606964D01*
X191082265Y-192606964D02*
X191034646Y-192559345D01*
X191034646Y-192559345D02*
X190939408Y-192511726D01*
X190939408Y-192511726D02*
X190701313Y-192511726D01*
X190701313Y-192511726D02*
X190558456Y-192559345D01*
X190225122Y-192845059D02*
X189987027Y-193511726D01*
X189748932Y-192845059D02*
X189987027Y-193511726D01*
X189987027Y-193511726D02*
X190082265Y-193749821D01*
X190082265Y-193749821D02*
X190129884Y-193797440D01*
X190129884Y-193797440D02*
X190225122Y-193845059D01*
X189415598Y-193464107D02*
X189320360Y-193511726D01*
X189320360Y-193511726D02*
X189129884Y-193511726D01*
X189129884Y-193511726D02*
X189034646Y-193464107D01*
X189034646Y-193464107D02*
X188987027Y-193368868D01*
X188987027Y-193368868D02*
X188987027Y-193321249D01*
X188987027Y-193321249D02*
X189034646Y-193226011D01*
X189034646Y-193226011D02*
X189129884Y-193178392D01*
X189129884Y-193178392D02*
X189272741Y-193178392D01*
X189272741Y-193178392D02*
X189367979Y-193130773D01*
X189367979Y-193130773D02*
X189415598Y-193035535D01*
X189415598Y-193035535D02*
X189415598Y-192987916D01*
X189415598Y-192987916D02*
X189367979Y-192892678D01*
X189367979Y-192892678D02*
X189272741Y-192845059D01*
X189272741Y-192845059D02*
X189129884Y-192845059D01*
X189129884Y-192845059D02*
X189034646Y-192892678D01*
X188701312Y-192845059D02*
X188320360Y-192845059D01*
X188558455Y-192511726D02*
X188558455Y-193368868D01*
X188558455Y-193368868D02*
X188510836Y-193464107D01*
X188510836Y-193464107D02*
X188415598Y-193511726D01*
X188415598Y-193511726D02*
X188320360Y-193511726D01*
X187606074Y-193464107D02*
X187701312Y-193511726D01*
X187701312Y-193511726D02*
X187891788Y-193511726D01*
X187891788Y-193511726D02*
X187987026Y-193464107D01*
X187987026Y-193464107D02*
X188034645Y-193368868D01*
X188034645Y-193368868D02*
X188034645Y-192987916D01*
X188034645Y-192987916D02*
X187987026Y-192892678D01*
X187987026Y-192892678D02*
X187891788Y-192845059D01*
X187891788Y-192845059D02*
X187701312Y-192845059D01*
X187701312Y-192845059D02*
X187606074Y-192892678D01*
X187606074Y-192892678D02*
X187558455Y-192987916D01*
X187558455Y-192987916D02*
X187558455Y-193083154D01*
X187558455Y-193083154D02*
X188034645Y-193178392D01*
X187129883Y-193511726D02*
X187129883Y-192845059D01*
X187129883Y-192940297D02*
X187082264Y-192892678D01*
X187082264Y-192892678D02*
X186987026Y-192845059D01*
X186987026Y-192845059D02*
X186844169Y-192845059D01*
X186844169Y-192845059D02*
X186748931Y-192892678D01*
X186748931Y-192892678D02*
X186701312Y-192987916D01*
X186701312Y-192987916D02*
X186701312Y-193511726D01*
X186701312Y-192987916D02*
X186653693Y-192892678D01*
X186653693Y-192892678D02*
X186558455Y-192845059D01*
X186558455Y-192845059D02*
X186415598Y-192845059D01*
X186415598Y-192845059D02*
X186320359Y-192892678D01*
X186320359Y-192892678D02*
X186272740Y-192987916D01*
X186272740Y-192987916D02*
X186272740Y-193511726D01*
X185844169Y-193464107D02*
X185748931Y-193511726D01*
X185748931Y-193511726D02*
X185558455Y-193511726D01*
X185558455Y-193511726D02*
X185463217Y-193464107D01*
X185463217Y-193464107D02*
X185415598Y-193368868D01*
X185415598Y-193368868D02*
X185415598Y-193321249D01*
X185415598Y-193321249D02*
X185463217Y-193226011D01*
X185463217Y-193226011D02*
X185558455Y-193178392D01*
X185558455Y-193178392D02*
X185701312Y-193178392D01*
X185701312Y-193178392D02*
X185796550Y-193130773D01*
X185796550Y-193130773D02*
X185844169Y-193035535D01*
X185844169Y-193035535D02*
X185844169Y-192987916D01*
X185844169Y-192987916D02*
X185796550Y-192892678D01*
X185796550Y-192892678D02*
X185701312Y-192845059D01*
X185701312Y-192845059D02*
X185558455Y-192845059D01*
X185558455Y-192845059D02*
X185463217Y-192892678D01*
X183748931Y-193511726D02*
X184225121Y-193511726D01*
X184225121Y-193511726D02*
X184225121Y-192511726D01*
X183415597Y-193511726D02*
X183415597Y-192845059D01*
X183415597Y-192511726D02*
X183463216Y-192559345D01*
X183463216Y-192559345D02*
X183415597Y-192606964D01*
X183415597Y-192606964D02*
X183367978Y-192559345D01*
X183367978Y-192559345D02*
X183415597Y-192511726D01*
X183415597Y-192511726D02*
X183415597Y-192606964D01*
X182939407Y-193511726D02*
X182939407Y-192845059D01*
X182939407Y-192940297D02*
X182891788Y-192892678D01*
X182891788Y-192892678D02*
X182796550Y-192845059D01*
X182796550Y-192845059D02*
X182653693Y-192845059D01*
X182653693Y-192845059D02*
X182558455Y-192892678D01*
X182558455Y-192892678D02*
X182510836Y-192987916D01*
X182510836Y-192987916D02*
X182510836Y-193511726D01*
X182510836Y-192987916D02*
X182463217Y-192892678D01*
X182463217Y-192892678D02*
X182367979Y-192845059D01*
X182367979Y-192845059D02*
X182225122Y-192845059D01*
X182225122Y-192845059D02*
X182129883Y-192892678D01*
X182129883Y-192892678D02*
X182082264Y-192987916D01*
X182082264Y-192987916D02*
X182082264Y-193511726D01*
X181606074Y-193511726D02*
X181606074Y-192845059D01*
X181606074Y-192511726D02*
X181653693Y-192559345D01*
X181653693Y-192559345D02*
X181606074Y-192606964D01*
X181606074Y-192606964D02*
X181558455Y-192559345D01*
X181558455Y-192559345D02*
X181606074Y-192511726D01*
X181606074Y-192511726D02*
X181606074Y-192606964D01*
X181272741Y-192845059D02*
X180891789Y-192845059D01*
X181129884Y-192511726D02*
X181129884Y-193368868D01*
X181129884Y-193368868D02*
X181082265Y-193464107D01*
X181082265Y-193464107D02*
X180987027Y-193511726D01*
X180987027Y-193511726D02*
X180891789Y-193511726D01*
X180177503Y-193464107D02*
X180272741Y-193511726D01*
X180272741Y-193511726D02*
X180463217Y-193511726D01*
X180463217Y-193511726D02*
X180558455Y-193464107D01*
X180558455Y-193464107D02*
X180606074Y-193368868D01*
X180606074Y-193368868D02*
X180606074Y-192987916D01*
X180606074Y-192987916D02*
X180558455Y-192892678D01*
X180558455Y-192892678D02*
X180463217Y-192845059D01*
X180463217Y-192845059D02*
X180272741Y-192845059D01*
X180272741Y-192845059D02*
X180177503Y-192892678D01*
X180177503Y-192892678D02*
X180129884Y-192987916D01*
X180129884Y-192987916D02*
X180129884Y-193083154D01*
X180129884Y-193083154D02*
X180606074Y-193178392D01*
X179272741Y-193511726D02*
X179272741Y-192511726D01*
X179272741Y-193464107D02*
X179367979Y-193511726D01*
X179367979Y-193511726D02*
X179558455Y-193511726D01*
X179558455Y-193511726D02*
X179653693Y-193464107D01*
X179653693Y-193464107D02*
X179701312Y-193416487D01*
X179701312Y-193416487D02*
X179748931Y-193321249D01*
X179748931Y-193321249D02*
X179748931Y-193035535D01*
X179748931Y-193035535D02*
X179701312Y-192940297D01*
X179701312Y-192940297D02*
X179653693Y-192892678D01*
X179653693Y-192892678D02*
X179558455Y-192845059D01*
X179558455Y-192845059D02*
X179367979Y-192845059D01*
X179367979Y-192845059D02*
X179272741Y-192892678D01*
X202129887Y-194597860D02*
X202463220Y-194597860D01*
X202463220Y-195121670D02*
X202463220Y-194121670D01*
X202463220Y-194121670D02*
X201987030Y-194121670D01*
X201225125Y-195074051D02*
X201320363Y-195121670D01*
X201320363Y-195121670D02*
X201510839Y-195121670D01*
X201510839Y-195121670D02*
X201606077Y-195074051D01*
X201606077Y-195074051D02*
X201653696Y-194978812D01*
X201653696Y-194978812D02*
X201653696Y-194597860D01*
X201653696Y-194597860D02*
X201606077Y-194502622D01*
X201606077Y-194502622D02*
X201510839Y-194455003D01*
X201510839Y-194455003D02*
X201320363Y-194455003D01*
X201320363Y-194455003D02*
X201225125Y-194502622D01*
X201225125Y-194502622D02*
X201177506Y-194597860D01*
X201177506Y-194597860D02*
X201177506Y-194693098D01*
X201177506Y-194693098D02*
X201653696Y-194788336D01*
X200748934Y-195121670D02*
X200748934Y-194121670D01*
X200748934Y-194502622D02*
X200653696Y-194455003D01*
X200653696Y-194455003D02*
X200463220Y-194455003D01*
X200463220Y-194455003D02*
X200367982Y-194502622D01*
X200367982Y-194502622D02*
X200320363Y-194550241D01*
X200320363Y-194550241D02*
X200272744Y-194645479D01*
X200272744Y-194645479D02*
X200272744Y-194931193D01*
X200272744Y-194931193D02*
X200320363Y-195026431D01*
X200320363Y-195026431D02*
X200367982Y-195074051D01*
X200367982Y-195074051D02*
X200463220Y-195121670D01*
X200463220Y-195121670D02*
X200653696Y-195121670D01*
X200653696Y-195121670D02*
X200748934Y-195074051D01*
X199844172Y-195121670D02*
X199844172Y-194455003D01*
X199844172Y-194645479D02*
X199796553Y-194550241D01*
X199796553Y-194550241D02*
X199748934Y-194502622D01*
X199748934Y-194502622D02*
X199653696Y-194455003D01*
X199653696Y-194455003D02*
X199558458Y-194455003D01*
X198796553Y-194455003D02*
X198796553Y-195121670D01*
X199225124Y-194455003D02*
X199225124Y-194978812D01*
X199225124Y-194978812D02*
X199177505Y-195074051D01*
X199177505Y-195074051D02*
X199082267Y-195121670D01*
X199082267Y-195121670D02*
X198939410Y-195121670D01*
X198939410Y-195121670D02*
X198844172Y-195074051D01*
X198844172Y-195074051D02*
X198796553Y-195026431D01*
X197891791Y-195121670D02*
X197891791Y-194597860D01*
X197891791Y-194597860D02*
X197939410Y-194502622D01*
X197939410Y-194502622D02*
X198034648Y-194455003D01*
X198034648Y-194455003D02*
X198225124Y-194455003D01*
X198225124Y-194455003D02*
X198320362Y-194502622D01*
X197891791Y-195074051D02*
X197987029Y-195121670D01*
X197987029Y-195121670D02*
X198225124Y-195121670D01*
X198225124Y-195121670D02*
X198320362Y-195074051D01*
X198320362Y-195074051D02*
X198367981Y-194978812D01*
X198367981Y-194978812D02*
X198367981Y-194883574D01*
X198367981Y-194883574D02*
X198320362Y-194788336D01*
X198320362Y-194788336D02*
X198225124Y-194740717D01*
X198225124Y-194740717D02*
X197987029Y-194740717D01*
X197987029Y-194740717D02*
X197891791Y-194693098D01*
X197415600Y-195121670D02*
X197415600Y-194455003D01*
X197415600Y-194645479D02*
X197367981Y-194550241D01*
X197367981Y-194550241D02*
X197320362Y-194502622D01*
X197320362Y-194502622D02*
X197225124Y-194455003D01*
X197225124Y-194455003D02*
X197129886Y-194455003D01*
X196891790Y-194455003D02*
X196653695Y-195121670D01*
X196415600Y-194455003D02*
X196653695Y-195121670D01*
X196653695Y-195121670D02*
X196748933Y-195359765D01*
X196748933Y-195359765D02*
X196796552Y-195407384D01*
X196796552Y-195407384D02*
X196891790Y-195455003D01*
X195320361Y-194216908D02*
X195272742Y-194169289D01*
X195272742Y-194169289D02*
X195177504Y-194121670D01*
X195177504Y-194121670D02*
X194939409Y-194121670D01*
X194939409Y-194121670D02*
X194844171Y-194169289D01*
X194844171Y-194169289D02*
X194796552Y-194216908D01*
X194796552Y-194216908D02*
X194748933Y-194312146D01*
X194748933Y-194312146D02*
X194748933Y-194407384D01*
X194748933Y-194407384D02*
X194796552Y-194550241D01*
X194796552Y-194550241D02*
X195367980Y-195121670D01*
X195367980Y-195121670D02*
X194748933Y-195121670D01*
X194129885Y-194121670D02*
X194034647Y-194121670D01*
X194034647Y-194121670D02*
X193939409Y-194169289D01*
X193939409Y-194169289D02*
X193891790Y-194216908D01*
X193891790Y-194216908D02*
X193844171Y-194312146D01*
X193844171Y-194312146D02*
X193796552Y-194502622D01*
X193796552Y-194502622D02*
X193796552Y-194740717D01*
X193796552Y-194740717D02*
X193844171Y-194931193D01*
X193844171Y-194931193D02*
X193891790Y-195026431D01*
X193891790Y-195026431D02*
X193939409Y-195074051D01*
X193939409Y-195074051D02*
X194034647Y-195121670D01*
X194034647Y-195121670D02*
X194129885Y-195121670D01*
X194129885Y-195121670D02*
X194225123Y-195074051D01*
X194225123Y-195074051D02*
X194272742Y-195026431D01*
X194272742Y-195026431D02*
X194320361Y-194931193D01*
X194320361Y-194931193D02*
X194367980Y-194740717D01*
X194367980Y-194740717D02*
X194367980Y-194502622D01*
X194367980Y-194502622D02*
X194320361Y-194312146D01*
X194320361Y-194312146D02*
X194272742Y-194216908D01*
X194272742Y-194216908D02*
X194225123Y-194169289D01*
X194225123Y-194169289D02*
X194129885Y-194121670D01*
X193415599Y-194216908D02*
X193367980Y-194169289D01*
X193367980Y-194169289D02*
X193272742Y-194121670D01*
X193272742Y-194121670D02*
X193034647Y-194121670D01*
X193034647Y-194121670D02*
X192939409Y-194169289D01*
X192939409Y-194169289D02*
X192891790Y-194216908D01*
X192891790Y-194216908D02*
X192844171Y-194312146D01*
X192844171Y-194312146D02*
X192844171Y-194407384D01*
X192844171Y-194407384D02*
X192891790Y-194550241D01*
X192891790Y-194550241D02*
X193463218Y-195121670D01*
X193463218Y-195121670D02*
X192844171Y-195121670D01*
X191987028Y-194121670D02*
X192177504Y-194121670D01*
X192177504Y-194121670D02*
X192272742Y-194169289D01*
X192272742Y-194169289D02*
X192320361Y-194216908D01*
X192320361Y-194216908D02*
X192415599Y-194359765D01*
X192415599Y-194359765D02*
X192463218Y-194550241D01*
X192463218Y-194550241D02*
X192463218Y-194931193D01*
X192463218Y-194931193D02*
X192415599Y-195026431D01*
X192415599Y-195026431D02*
X192367980Y-195074051D01*
X192367980Y-195074051D02*
X192272742Y-195121670D01*
X192272742Y-195121670D02*
X192082266Y-195121670D01*
X192082266Y-195121670D02*
X191987028Y-195074051D01*
X191987028Y-195074051D02*
X191939409Y-195026431D01*
X191939409Y-195026431D02*
X191891790Y-194931193D01*
X191891790Y-194931193D02*
X191891790Y-194693098D01*
X191891790Y-194693098D02*
X191939409Y-194597860D01*
X191939409Y-194597860D02*
X191987028Y-194550241D01*
X191987028Y-194550241D02*
X192082266Y-194502622D01*
X192082266Y-194502622D02*
X192272742Y-194502622D01*
X192272742Y-194502622D02*
X192367980Y-194550241D01*
X192367980Y-194550241D02*
X192415599Y-194597860D01*
X192415599Y-194597860D02*
X192463218Y-194693098D01*
D11*
G36*
X202314767Y-200390000D02*
G01*
X201525802Y-200390000D01*
X201525802Y-199229357D01*
X201302320Y-199229357D01*
X201176301Y-199239778D01*
X201075128Y-199268601D01*
X200993841Y-199313621D01*
X200924723Y-199377231D01*
X200848871Y-199478185D01*
X200765413Y-199627962D01*
X200392454Y-200390000D01*
X199552198Y-200390000D01*
X199980478Y-199518968D01*
X200119125Y-199274211D01*
X200239680Y-199122013D01*
X200330591Y-199043847D01*
X200426794Y-198988463D01*
X200529658Y-198953852D01*
X200342164Y-198877433D01*
X200197438Y-198781897D01*
X200088189Y-198667904D01*
X200008949Y-198531614D01*
X199959289Y-198368394D01*
X199952109Y-198288351D01*
X200730608Y-198288351D01*
X200744489Y-198422672D01*
X200781503Y-198519129D01*
X200838319Y-198587487D01*
X200915855Y-198633991D01*
X201030034Y-198665999D01*
X201193693Y-198678346D01*
X201525802Y-198678346D01*
X201525802Y-197904584D01*
X201193693Y-197904584D01*
X201029856Y-197916712D01*
X200915692Y-197948113D01*
X200838319Y-197993611D01*
X200781494Y-198060610D01*
X200744495Y-198155583D01*
X200730608Y-198288351D01*
X199952109Y-198288351D01*
X199941643Y-198171664D01*
X199961466Y-197956316D01*
X200016547Y-197783370D01*
X200103490Y-197644026D01*
X200223377Y-197532358D01*
X200365743Y-197451925D01*
X200553340Y-197388472D01*
X200797066Y-197345907D01*
X201109612Y-197330125D01*
X202314767Y-197330125D01*
X202314767Y-200390000D01*
G37*
G36*
X199081969Y-197330125D02*
G01*
X196952660Y-197330125D01*
X196952660Y-197928032D01*
X198293004Y-197928032D01*
X198293004Y-198490767D01*
X197032527Y-198490767D01*
X197032527Y-199088674D01*
X198293004Y-199088674D01*
X198293004Y-199792093D01*
X196907597Y-199792093D01*
X196907597Y-200390000D01*
X199081969Y-200390000D01*
X199081969Y-197330125D01*
G37*
G36*
X197944591Y-196497745D02*
G01*
X197364453Y-196497745D01*
X197948621Y-197037034D01*
X198350340Y-197037034D01*
X197944591Y-196497745D01*
G37*
G36*
X196580251Y-200390000D02*
G01*
X195787255Y-200390000D01*
X195592533Y-199827264D01*
X194358801Y-199827264D01*
X194166093Y-200390000D01*
X193373098Y-200390000D01*
X193789895Y-199264528D01*
X194557554Y-199264528D01*
X195395795Y-199264528D01*
X194975575Y-198047283D01*
X194557554Y-199264528D01*
X193789895Y-199264528D01*
X194506263Y-197330125D01*
X195446903Y-197330125D01*
X196580251Y-200390000D01*
G37*
G36*
X192965151Y-197330125D02*
G01*
X192176186Y-197330125D01*
X192176186Y-199792093D01*
X190790779Y-199792093D01*
X190790779Y-200390000D01*
X192965151Y-200390000D01*
X192965151Y-197330125D01*
G37*
G36*
X191351500Y-197330125D02*
G01*
X188531594Y-197330125D01*
X188531594Y-197928032D01*
X189546057Y-197928032D01*
X189546057Y-200390000D01*
X190335022Y-200390000D01*
X190335022Y-197928032D01*
X191351500Y-197928032D01*
X191351500Y-197330125D01*
G37*
G36*
X188123281Y-200390000D02*
G01*
X187334316Y-200390000D01*
X187334316Y-199229357D01*
X187110833Y-199229357D01*
X186984814Y-199239778D01*
X186883642Y-199268601D01*
X186802355Y-199313621D01*
X186733237Y-199377231D01*
X186657385Y-199478185D01*
X186573927Y-199627962D01*
X186200968Y-200390000D01*
X185360711Y-200390000D01*
X185788991Y-199518968D01*
X185927638Y-199274211D01*
X186048194Y-199122013D01*
X186139104Y-199043847D01*
X186235308Y-198988463D01*
X186338171Y-198953852D01*
X186150677Y-198877433D01*
X186005951Y-198781897D01*
X185896702Y-198667904D01*
X185817462Y-198531614D01*
X185767803Y-198368394D01*
X185760623Y-198288351D01*
X186539122Y-198288351D01*
X186553003Y-198422672D01*
X186590017Y-198519129D01*
X186646833Y-198587487D01*
X186724369Y-198633991D01*
X186838547Y-198665999D01*
X187002206Y-198678346D01*
X187334316Y-198678346D01*
X187334316Y-197904584D01*
X187002206Y-197904584D01*
X186838370Y-197916712D01*
X186724206Y-197948113D01*
X186646833Y-197993611D01*
X186590008Y-198060610D01*
X186553009Y-198155583D01*
X186539122Y-198288351D01*
X185760623Y-198288351D01*
X185750157Y-198171664D01*
X185769979Y-197956316D01*
X185825061Y-197783370D01*
X185912003Y-197644026D01*
X186031891Y-197532358D01*
X186174257Y-197451925D01*
X186361853Y-197388472D01*
X186605579Y-197345907D01*
X186918126Y-197330125D01*
X188123281Y-197330125D01*
X188123281Y-200390000D01*
G37*
G36*
X185255198Y-200390000D02*
G01*
X184462203Y-200390000D01*
X184267480Y-199827264D01*
X183033749Y-199827264D01*
X182841041Y-200390000D01*
X182048046Y-200390000D01*
X182464842Y-199264528D01*
X183232501Y-199264528D01*
X184070743Y-199264528D01*
X183650523Y-198047283D01*
X183232501Y-199264528D01*
X182464842Y-199264528D01*
X183181210Y-197330125D01*
X184121851Y-197330125D01*
X185255198Y-200390000D01*
G37*
D10*
X382754819Y-236661905D02*
X382754819Y-237233333D01*
X383754819Y-236947619D02*
X382754819Y-236947619D01*
X383754819Y-238090476D02*
X383754819Y-237519048D01*
X383754819Y-237804762D02*
X382754819Y-237804762D01*
X382754819Y-237804762D02*
X382897676Y-237709524D01*
X382897676Y-237709524D02*
X382992914Y-237614286D01*
X382992914Y-237614286D02*
X383040533Y-237519048D01*
X383183390Y-238661905D02*
X383135771Y-238566667D01*
X383135771Y-238566667D02*
X383088152Y-238519048D01*
X383088152Y-238519048D02*
X382992914Y-238471429D01*
X382992914Y-238471429D02*
X382945295Y-238471429D01*
X382945295Y-238471429D02*
X382850057Y-238519048D01*
X382850057Y-238519048D02*
X382802438Y-238566667D01*
X382802438Y-238566667D02*
X382754819Y-238661905D01*
X382754819Y-238661905D02*
X382754819Y-238852381D01*
X382754819Y-238852381D02*
X382802438Y-238947619D01*
X382802438Y-238947619D02*
X382850057Y-238995238D01*
X382850057Y-238995238D02*
X382945295Y-239042857D01*
X382945295Y-239042857D02*
X382992914Y-239042857D01*
X382992914Y-239042857D02*
X383088152Y-238995238D01*
X383088152Y-238995238D02*
X383135771Y-238947619D01*
X383135771Y-238947619D02*
X383183390Y-238852381D01*
X383183390Y-238852381D02*
X383183390Y-238661905D01*
X383183390Y-238661905D02*
X383231009Y-238566667D01*
X383231009Y-238566667D02*
X383278628Y-238519048D01*
X383278628Y-238519048D02*
X383373866Y-238471429D01*
X383373866Y-238471429D02*
X383564342Y-238471429D01*
X383564342Y-238471429D02*
X383659580Y-238519048D01*
X383659580Y-238519048D02*
X383707200Y-238566667D01*
X383707200Y-238566667D02*
X383754819Y-238661905D01*
X383754819Y-238661905D02*
X383754819Y-238852381D01*
X383754819Y-238852381D02*
X383707200Y-238947619D01*
X383707200Y-238947619D02*
X383659580Y-238995238D01*
X383659580Y-238995238D02*
X383564342Y-239042857D01*
X383564342Y-239042857D02*
X383373866Y-239042857D01*
X383373866Y-239042857D02*
X383278628Y-238995238D01*
X383278628Y-238995238D02*
X383231009Y-238947619D01*
X383231009Y-238947619D02*
X383183390Y-238852381D01*
X374738094Y-193554819D02*
X374166666Y-193554819D01*
X374452380Y-194554819D02*
X374452380Y-193554819D01*
X373928570Y-193554819D02*
X373309523Y-193554819D01*
X373309523Y-193554819D02*
X373642856Y-193935771D01*
X373642856Y-193935771D02*
X373499999Y-193935771D01*
X373499999Y-193935771D02*
X373404761Y-193983390D01*
X373404761Y-193983390D02*
X373357142Y-194031009D01*
X373357142Y-194031009D02*
X373309523Y-194126247D01*
X373309523Y-194126247D02*
X373309523Y-194364342D01*
X373309523Y-194364342D02*
X373357142Y-194459580D01*
X373357142Y-194459580D02*
X373404761Y-194507200D01*
X373404761Y-194507200D02*
X373499999Y-194554819D01*
X373499999Y-194554819D02*
X373785713Y-194554819D01*
X373785713Y-194554819D02*
X373880951Y-194507200D01*
X373880951Y-194507200D02*
X373928570Y-194459580D01*
X372690475Y-193554819D02*
X372595237Y-193554819D01*
X372595237Y-193554819D02*
X372499999Y-193602438D01*
X372499999Y-193602438D02*
X372452380Y-193650057D01*
X372452380Y-193650057D02*
X372404761Y-193745295D01*
X372404761Y-193745295D02*
X372357142Y-193935771D01*
X372357142Y-193935771D02*
X372357142Y-194173866D01*
X372357142Y-194173866D02*
X372404761Y-194364342D01*
X372404761Y-194364342D02*
X372452380Y-194459580D01*
X372452380Y-194459580D02*
X372499999Y-194507200D01*
X372499999Y-194507200D02*
X372595237Y-194554819D01*
X372595237Y-194554819D02*
X372690475Y-194554819D01*
X372690475Y-194554819D02*
X372785713Y-194507200D01*
X372785713Y-194507200D02*
X372833332Y-194459580D01*
X372833332Y-194459580D02*
X372880951Y-194364342D01*
X372880951Y-194364342D02*
X372928570Y-194173866D01*
X372928570Y-194173866D02*
X372928570Y-193935771D01*
X372928570Y-193935771D02*
X372880951Y-193745295D01*
X372880951Y-193745295D02*
X372833332Y-193650057D01*
X372833332Y-193650057D02*
X372785713Y-193602438D01*
X372785713Y-193602438D02*
X372690475Y-193554819D01*
X328642857Y-213559580D02*
X328690476Y-213607200D01*
X328690476Y-213607200D02*
X328833333Y-213654819D01*
X328833333Y-213654819D02*
X328928571Y-213654819D01*
X328928571Y-213654819D02*
X329071428Y-213607200D01*
X329071428Y-213607200D02*
X329166666Y-213511961D01*
X329166666Y-213511961D02*
X329214285Y-213416723D01*
X329214285Y-213416723D02*
X329261904Y-213226247D01*
X329261904Y-213226247D02*
X329261904Y-213083390D01*
X329261904Y-213083390D02*
X329214285Y-212892914D01*
X329214285Y-212892914D02*
X329166666Y-212797676D01*
X329166666Y-212797676D02*
X329071428Y-212702438D01*
X329071428Y-212702438D02*
X328928571Y-212654819D01*
X328928571Y-212654819D02*
X328833333Y-212654819D01*
X328833333Y-212654819D02*
X328690476Y-212702438D01*
X328690476Y-212702438D02*
X328642857Y-212750057D01*
X328309523Y-212654819D02*
X327690476Y-212654819D01*
X327690476Y-212654819D02*
X328023809Y-213035771D01*
X328023809Y-213035771D02*
X327880952Y-213035771D01*
X327880952Y-213035771D02*
X327785714Y-213083390D01*
X327785714Y-213083390D02*
X327738095Y-213131009D01*
X327738095Y-213131009D02*
X327690476Y-213226247D01*
X327690476Y-213226247D02*
X327690476Y-213464342D01*
X327690476Y-213464342D02*
X327738095Y-213559580D01*
X327738095Y-213559580D02*
X327785714Y-213607200D01*
X327785714Y-213607200D02*
X327880952Y-213654819D01*
X327880952Y-213654819D02*
X328166666Y-213654819D01*
X328166666Y-213654819D02*
X328261904Y-213607200D01*
X328261904Y-213607200D02*
X328309523Y-213559580D01*
X327357142Y-212654819D02*
X326690476Y-212654819D01*
X326690476Y-212654819D02*
X327119047Y-213654819D01*
X346956819Y-266138095D02*
X346956819Y-266709523D01*
X347956819Y-266423809D02*
X346956819Y-266423809D01*
X346956819Y-267519047D02*
X346956819Y-267042857D01*
X346956819Y-267042857D02*
X347433009Y-266995238D01*
X347433009Y-266995238D02*
X347385390Y-267042857D01*
X347385390Y-267042857D02*
X347337771Y-267138095D01*
X347337771Y-267138095D02*
X347337771Y-267376190D01*
X347337771Y-267376190D02*
X347385390Y-267471428D01*
X347385390Y-267471428D02*
X347433009Y-267519047D01*
X347433009Y-267519047D02*
X347528247Y-267566666D01*
X347528247Y-267566666D02*
X347766342Y-267566666D01*
X347766342Y-267566666D02*
X347861580Y-267519047D01*
X347861580Y-267519047D02*
X347909200Y-267471428D01*
X347909200Y-267471428D02*
X347956819Y-267376190D01*
X347956819Y-267376190D02*
X347956819Y-267138095D01*
X347956819Y-267138095D02*
X347909200Y-267042857D01*
X347909200Y-267042857D02*
X347861580Y-266995238D01*
X336950057Y-215828571D02*
X336902438Y-215733333D01*
X336902438Y-215733333D02*
X336807200Y-215638095D01*
X336807200Y-215638095D02*
X336664342Y-215495238D01*
X336664342Y-215495238D02*
X336616723Y-215400000D01*
X336616723Y-215400000D02*
X336616723Y-215304762D01*
X336854819Y-215352381D02*
X336807200Y-215257143D01*
X336807200Y-215257143D02*
X336711961Y-215161905D01*
X336711961Y-215161905D02*
X336521485Y-215114286D01*
X336521485Y-215114286D02*
X336188152Y-215114286D01*
X336188152Y-215114286D02*
X335997676Y-215161905D01*
X335997676Y-215161905D02*
X335902438Y-215257143D01*
X335902438Y-215257143D02*
X335854819Y-215352381D01*
X335854819Y-215352381D02*
X335854819Y-215542857D01*
X335854819Y-215542857D02*
X335902438Y-215638095D01*
X335902438Y-215638095D02*
X335997676Y-215733333D01*
X335997676Y-215733333D02*
X336188152Y-215780952D01*
X336188152Y-215780952D02*
X336521485Y-215780952D01*
X336521485Y-215780952D02*
X336711961Y-215733333D01*
X336711961Y-215733333D02*
X336807200Y-215638095D01*
X336807200Y-215638095D02*
X336854819Y-215542857D01*
X336854819Y-215542857D02*
X336854819Y-215352381D01*
X335854819Y-216114286D02*
X335854819Y-216733333D01*
X335854819Y-216733333D02*
X336235771Y-216400000D01*
X336235771Y-216400000D02*
X336235771Y-216542857D01*
X336235771Y-216542857D02*
X336283390Y-216638095D01*
X336283390Y-216638095D02*
X336331009Y-216685714D01*
X336331009Y-216685714D02*
X336426247Y-216733333D01*
X336426247Y-216733333D02*
X336664342Y-216733333D01*
X336664342Y-216733333D02*
X336759580Y-216685714D01*
X336759580Y-216685714D02*
X336807200Y-216638095D01*
X336807200Y-216638095D02*
X336854819Y-216542857D01*
X336854819Y-216542857D02*
X336854819Y-216257143D01*
X336854819Y-216257143D02*
X336807200Y-216161905D01*
X336807200Y-216161905D02*
X336759580Y-216114286D01*
X336854819Y-217685714D02*
X336854819Y-217114286D01*
X336854819Y-217400000D02*
X335854819Y-217400000D01*
X335854819Y-217400000D02*
X335997676Y-217304762D01*
X335997676Y-217304762D02*
X336092914Y-217209524D01*
X336092914Y-217209524D02*
X336140533Y-217114286D01*
X329509047Y-221854819D02*
X329842380Y-221378628D01*
X330080475Y-221854819D02*
X330080475Y-220854819D01*
X330080475Y-220854819D02*
X329699523Y-220854819D01*
X329699523Y-220854819D02*
X329604285Y-220902438D01*
X329604285Y-220902438D02*
X329556666Y-220950057D01*
X329556666Y-220950057D02*
X329509047Y-221045295D01*
X329509047Y-221045295D02*
X329509047Y-221188152D01*
X329509047Y-221188152D02*
X329556666Y-221283390D01*
X329556666Y-221283390D02*
X329604285Y-221331009D01*
X329604285Y-221331009D02*
X329699523Y-221378628D01*
X329699523Y-221378628D02*
X330080475Y-221378628D01*
X328556666Y-221854819D02*
X329128094Y-221854819D01*
X328842380Y-221854819D02*
X328842380Y-220854819D01*
X328842380Y-220854819D02*
X328937618Y-220997676D01*
X328937618Y-220997676D02*
X329032856Y-221092914D01*
X329032856Y-221092914D02*
X329128094Y-221140533D01*
X327604285Y-221854819D02*
X328175713Y-221854819D01*
X327889999Y-221854819D02*
X327889999Y-220854819D01*
X327889999Y-220854819D02*
X327985237Y-220997676D01*
X327985237Y-220997676D02*
X328080475Y-221092914D01*
X328080475Y-221092914D02*
X328175713Y-221140533D01*
X327128094Y-221854819D02*
X326937618Y-221854819D01*
X326937618Y-221854819D02*
X326842380Y-221807200D01*
X326842380Y-221807200D02*
X326794761Y-221759580D01*
X326794761Y-221759580D02*
X326699523Y-221616723D01*
X326699523Y-221616723D02*
X326651904Y-221426247D01*
X326651904Y-221426247D02*
X326651904Y-221045295D01*
X326651904Y-221045295D02*
X326699523Y-220950057D01*
X326699523Y-220950057D02*
X326747142Y-220902438D01*
X326747142Y-220902438D02*
X326842380Y-220854819D01*
X326842380Y-220854819D02*
X327032856Y-220854819D01*
X327032856Y-220854819D02*
X327128094Y-220902438D01*
X327128094Y-220902438D02*
X327175713Y-220950057D01*
X327175713Y-220950057D02*
X327223332Y-221045295D01*
X327223332Y-221045295D02*
X327223332Y-221283390D01*
X327223332Y-221283390D02*
X327175713Y-221378628D01*
X327175713Y-221378628D02*
X327128094Y-221426247D01*
X327128094Y-221426247D02*
X327032856Y-221473866D01*
X327032856Y-221473866D02*
X326842380Y-221473866D01*
X326842380Y-221473866D02*
X326747142Y-221426247D01*
X326747142Y-221426247D02*
X326699523Y-221378628D01*
X326699523Y-221378628D02*
X326651904Y-221283390D01*
X380204819Y-236661905D02*
X380204819Y-237233333D01*
X381204819Y-236947619D02*
X380204819Y-236947619D01*
X381204819Y-238090476D02*
X381204819Y-237519048D01*
X381204819Y-237804762D02*
X380204819Y-237804762D01*
X380204819Y-237804762D02*
X380347676Y-237709524D01*
X380347676Y-237709524D02*
X380442914Y-237614286D01*
X380442914Y-237614286D02*
X380490533Y-237519048D01*
X381204819Y-238566667D02*
X381204819Y-238757143D01*
X381204819Y-238757143D02*
X381157200Y-238852381D01*
X381157200Y-238852381D02*
X381109580Y-238900000D01*
X381109580Y-238900000D02*
X380966723Y-238995238D01*
X380966723Y-238995238D02*
X380776247Y-239042857D01*
X380776247Y-239042857D02*
X380395295Y-239042857D01*
X380395295Y-239042857D02*
X380300057Y-238995238D01*
X380300057Y-238995238D02*
X380252438Y-238947619D01*
X380252438Y-238947619D02*
X380204819Y-238852381D01*
X380204819Y-238852381D02*
X380204819Y-238661905D01*
X380204819Y-238661905D02*
X380252438Y-238566667D01*
X380252438Y-238566667D02*
X380300057Y-238519048D01*
X380300057Y-238519048D02*
X380395295Y-238471429D01*
X380395295Y-238471429D02*
X380633390Y-238471429D01*
X380633390Y-238471429D02*
X380728628Y-238519048D01*
X380728628Y-238519048D02*
X380776247Y-238566667D01*
X380776247Y-238566667D02*
X380823866Y-238661905D01*
X380823866Y-238661905D02*
X380823866Y-238852381D01*
X380823866Y-238852381D02*
X380776247Y-238947619D01*
X380776247Y-238947619D02*
X380728628Y-238995238D01*
X380728628Y-238995238D02*
X380633390Y-239042857D01*
X433704819Y-236861905D02*
X433704819Y-237433333D01*
X434704819Y-237147619D02*
X433704819Y-237147619D01*
X434704819Y-238290476D02*
X434704819Y-237719048D01*
X434704819Y-238004762D02*
X433704819Y-238004762D01*
X433704819Y-238004762D02*
X433847676Y-237909524D01*
X433847676Y-237909524D02*
X433942914Y-237814286D01*
X433942914Y-237814286D02*
X433990533Y-237719048D01*
X433704819Y-239195238D02*
X433704819Y-238719048D01*
X433704819Y-238719048D02*
X434181009Y-238671429D01*
X434181009Y-238671429D02*
X434133390Y-238719048D01*
X434133390Y-238719048D02*
X434085771Y-238814286D01*
X434085771Y-238814286D02*
X434085771Y-239052381D01*
X434085771Y-239052381D02*
X434133390Y-239147619D01*
X434133390Y-239147619D02*
X434181009Y-239195238D01*
X434181009Y-239195238D02*
X434276247Y-239242857D01*
X434276247Y-239242857D02*
X434514342Y-239242857D01*
X434514342Y-239242857D02*
X434609580Y-239195238D01*
X434609580Y-239195238D02*
X434657200Y-239147619D01*
X434657200Y-239147619D02*
X434704819Y-239052381D01*
X434704819Y-239052381D02*
X434704819Y-238814286D01*
X434704819Y-238814286D02*
X434657200Y-238719048D01*
X434657200Y-238719048D02*
X434609580Y-238671429D01*
X239454819Y-265338095D02*
X239454819Y-265909523D01*
X240454819Y-265623809D02*
X239454819Y-265623809D01*
X240454819Y-266290476D02*
X240454819Y-266480952D01*
X240454819Y-266480952D02*
X240407200Y-266576190D01*
X240407200Y-266576190D02*
X240359580Y-266623809D01*
X240359580Y-266623809D02*
X240216723Y-266719047D01*
X240216723Y-266719047D02*
X240026247Y-266766666D01*
X240026247Y-266766666D02*
X239645295Y-266766666D01*
X239645295Y-266766666D02*
X239550057Y-266719047D01*
X239550057Y-266719047D02*
X239502438Y-266671428D01*
X239502438Y-266671428D02*
X239454819Y-266576190D01*
X239454819Y-266576190D02*
X239454819Y-266385714D01*
X239454819Y-266385714D02*
X239502438Y-266290476D01*
X239502438Y-266290476D02*
X239550057Y-266242857D01*
X239550057Y-266242857D02*
X239645295Y-266195238D01*
X239645295Y-266195238D02*
X239883390Y-266195238D01*
X239883390Y-266195238D02*
X239978628Y-266242857D01*
X239978628Y-266242857D02*
X240026247Y-266290476D01*
X240026247Y-266290476D02*
X240073866Y-266385714D01*
X240073866Y-266385714D02*
X240073866Y-266576190D01*
X240073866Y-266576190D02*
X240026247Y-266671428D01*
X240026247Y-266671428D02*
X239978628Y-266719047D01*
X239978628Y-266719047D02*
X239883390Y-266766666D01*
D12*
X279225714Y-236095270D02*
X279346666Y-236034794D01*
X279346666Y-236034794D02*
X279467619Y-235913842D01*
X279467619Y-235913842D02*
X279649047Y-235732413D01*
X279649047Y-235732413D02*
X279770000Y-235671937D01*
X279770000Y-235671937D02*
X279890952Y-235671937D01*
X279830476Y-235974318D02*
X279951428Y-235913842D01*
X279951428Y-235913842D02*
X280072381Y-235792889D01*
X280072381Y-235792889D02*
X280132857Y-235550984D01*
X280132857Y-235550984D02*
X280132857Y-235127651D01*
X280132857Y-235127651D02*
X280072381Y-234885746D01*
X280072381Y-234885746D02*
X279951428Y-234764794D01*
X279951428Y-234764794D02*
X279830476Y-234704318D01*
X279830476Y-234704318D02*
X279588571Y-234704318D01*
X279588571Y-234704318D02*
X279467619Y-234764794D01*
X279467619Y-234764794D02*
X279346666Y-234885746D01*
X279346666Y-234885746D02*
X279286190Y-235127651D01*
X279286190Y-235127651D02*
X279286190Y-235550984D01*
X279286190Y-235550984D02*
X279346666Y-235792889D01*
X279346666Y-235792889D02*
X279467619Y-235913842D01*
X279467619Y-235913842D02*
X279588571Y-235974318D01*
X279588571Y-235974318D02*
X279830476Y-235974318D01*
X278802381Y-234825270D02*
X278741905Y-234764794D01*
X278741905Y-234764794D02*
X278620952Y-234704318D01*
X278620952Y-234704318D02*
X278318571Y-234704318D01*
X278318571Y-234704318D02*
X278197619Y-234764794D01*
X278197619Y-234764794D02*
X278137143Y-234825270D01*
X278137143Y-234825270D02*
X278076666Y-234946222D01*
X278076666Y-234946222D02*
X278076666Y-235067175D01*
X278076666Y-235067175D02*
X278137143Y-235248603D01*
X278137143Y-235248603D02*
X278862857Y-235974318D01*
X278862857Y-235974318D02*
X278076666Y-235974318D01*
X277653333Y-234704318D02*
X276806666Y-234704318D01*
X276806666Y-234704318D02*
X277350952Y-235974318D01*
D10*
X430954819Y-236861905D02*
X430954819Y-237433333D01*
X431954819Y-237147619D02*
X430954819Y-237147619D01*
X431954819Y-238290476D02*
X431954819Y-237719048D01*
X431954819Y-238004762D02*
X430954819Y-238004762D01*
X430954819Y-238004762D02*
X431097676Y-237909524D01*
X431097676Y-237909524D02*
X431192914Y-237814286D01*
X431192914Y-237814286D02*
X431240533Y-237719048D01*
X430954819Y-239147619D02*
X430954819Y-238957143D01*
X430954819Y-238957143D02*
X431002438Y-238861905D01*
X431002438Y-238861905D02*
X431050057Y-238814286D01*
X431050057Y-238814286D02*
X431192914Y-238719048D01*
X431192914Y-238719048D02*
X431383390Y-238671429D01*
X431383390Y-238671429D02*
X431764342Y-238671429D01*
X431764342Y-238671429D02*
X431859580Y-238719048D01*
X431859580Y-238719048D02*
X431907200Y-238766667D01*
X431907200Y-238766667D02*
X431954819Y-238861905D01*
X431954819Y-238861905D02*
X431954819Y-239052381D01*
X431954819Y-239052381D02*
X431907200Y-239147619D01*
X431907200Y-239147619D02*
X431859580Y-239195238D01*
X431859580Y-239195238D02*
X431764342Y-239242857D01*
X431764342Y-239242857D02*
X431526247Y-239242857D01*
X431526247Y-239242857D02*
X431431009Y-239195238D01*
X431431009Y-239195238D02*
X431383390Y-239147619D01*
X431383390Y-239147619D02*
X431335771Y-239052381D01*
X431335771Y-239052381D02*
X431335771Y-238861905D01*
X431335771Y-238861905D02*
X431383390Y-238766667D01*
X431383390Y-238766667D02*
X431431009Y-238719048D01*
X431431009Y-238719048D02*
X431526247Y-238671429D01*
X281142857Y-216159580D02*
X281190476Y-216207200D01*
X281190476Y-216207200D02*
X281333333Y-216254819D01*
X281333333Y-216254819D02*
X281428571Y-216254819D01*
X281428571Y-216254819D02*
X281571428Y-216207200D01*
X281571428Y-216207200D02*
X281666666Y-216111961D01*
X281666666Y-216111961D02*
X281714285Y-216016723D01*
X281714285Y-216016723D02*
X281761904Y-215826247D01*
X281761904Y-215826247D02*
X281761904Y-215683390D01*
X281761904Y-215683390D02*
X281714285Y-215492914D01*
X281714285Y-215492914D02*
X281666666Y-215397676D01*
X281666666Y-215397676D02*
X281571428Y-215302438D01*
X281571428Y-215302438D02*
X281428571Y-215254819D01*
X281428571Y-215254819D02*
X281333333Y-215254819D01*
X281333333Y-215254819D02*
X281190476Y-215302438D01*
X281190476Y-215302438D02*
X281142857Y-215350057D01*
X280809523Y-215254819D02*
X280190476Y-215254819D01*
X280190476Y-215254819D02*
X280523809Y-215635771D01*
X280523809Y-215635771D02*
X280380952Y-215635771D01*
X280380952Y-215635771D02*
X280285714Y-215683390D01*
X280285714Y-215683390D02*
X280238095Y-215731009D01*
X280238095Y-215731009D02*
X280190476Y-215826247D01*
X280190476Y-215826247D02*
X280190476Y-216064342D01*
X280190476Y-216064342D02*
X280238095Y-216159580D01*
X280238095Y-216159580D02*
X280285714Y-216207200D01*
X280285714Y-216207200D02*
X280380952Y-216254819D01*
X280380952Y-216254819D02*
X280666666Y-216254819D01*
X280666666Y-216254819D02*
X280761904Y-216207200D01*
X280761904Y-216207200D02*
X280809523Y-216159580D01*
X279333333Y-215588152D02*
X279333333Y-216254819D01*
X279571428Y-215207200D02*
X279809523Y-215921485D01*
X279809523Y-215921485D02*
X279190476Y-215921485D01*
X332119047Y-210354819D02*
X332452380Y-209878628D01*
X332690475Y-210354819D02*
X332690475Y-209354819D01*
X332690475Y-209354819D02*
X332309523Y-209354819D01*
X332309523Y-209354819D02*
X332214285Y-209402438D01*
X332214285Y-209402438D02*
X332166666Y-209450057D01*
X332166666Y-209450057D02*
X332119047Y-209545295D01*
X332119047Y-209545295D02*
X332119047Y-209688152D01*
X332119047Y-209688152D02*
X332166666Y-209783390D01*
X332166666Y-209783390D02*
X332214285Y-209831009D01*
X332214285Y-209831009D02*
X332309523Y-209878628D01*
X332309523Y-209878628D02*
X332690475Y-209878628D01*
X331166666Y-210354819D02*
X331738094Y-210354819D01*
X331452380Y-210354819D02*
X331452380Y-209354819D01*
X331452380Y-209354819D02*
X331547618Y-209497676D01*
X331547618Y-209497676D02*
X331642856Y-209592914D01*
X331642856Y-209592914D02*
X331738094Y-209640533D01*
X330214285Y-210354819D02*
X330785713Y-210354819D01*
X330499999Y-210354819D02*
X330499999Y-209354819D01*
X330499999Y-209354819D02*
X330595237Y-209497676D01*
X330595237Y-209497676D02*
X330690475Y-209592914D01*
X330690475Y-209592914D02*
X330785713Y-209640533D01*
X329642856Y-209783390D02*
X329738094Y-209735771D01*
X329738094Y-209735771D02*
X329785713Y-209688152D01*
X329785713Y-209688152D02*
X329833332Y-209592914D01*
X329833332Y-209592914D02*
X329833332Y-209545295D01*
X329833332Y-209545295D02*
X329785713Y-209450057D01*
X329785713Y-209450057D02*
X329738094Y-209402438D01*
X329738094Y-209402438D02*
X329642856Y-209354819D01*
X329642856Y-209354819D02*
X329452380Y-209354819D01*
X329452380Y-209354819D02*
X329357142Y-209402438D01*
X329357142Y-209402438D02*
X329309523Y-209450057D01*
X329309523Y-209450057D02*
X329261904Y-209545295D01*
X329261904Y-209545295D02*
X329261904Y-209592914D01*
X329261904Y-209592914D02*
X329309523Y-209688152D01*
X329309523Y-209688152D02*
X329357142Y-209735771D01*
X329357142Y-209735771D02*
X329452380Y-209783390D01*
X329452380Y-209783390D02*
X329642856Y-209783390D01*
X329642856Y-209783390D02*
X329738094Y-209831009D01*
X329738094Y-209831009D02*
X329785713Y-209878628D01*
X329785713Y-209878628D02*
X329833332Y-209973866D01*
X329833332Y-209973866D02*
X329833332Y-210164342D01*
X329833332Y-210164342D02*
X329785713Y-210259580D01*
X329785713Y-210259580D02*
X329738094Y-210307200D01*
X329738094Y-210307200D02*
X329642856Y-210354819D01*
X329642856Y-210354819D02*
X329452380Y-210354819D01*
X329452380Y-210354819D02*
X329357142Y-210307200D01*
X329357142Y-210307200D02*
X329309523Y-210259580D01*
X329309523Y-210259580D02*
X329261904Y-210164342D01*
X329261904Y-210164342D02*
X329261904Y-209973866D01*
X329261904Y-209973866D02*
X329309523Y-209878628D01*
X329309523Y-209878628D02*
X329357142Y-209831009D01*
X329357142Y-209831009D02*
X329452380Y-209783390D01*
X336542857Y-213459580D02*
X336590476Y-213507200D01*
X336590476Y-213507200D02*
X336733333Y-213554819D01*
X336733333Y-213554819D02*
X336828571Y-213554819D01*
X336828571Y-213554819D02*
X336971428Y-213507200D01*
X336971428Y-213507200D02*
X337066666Y-213411961D01*
X337066666Y-213411961D02*
X337114285Y-213316723D01*
X337114285Y-213316723D02*
X337161904Y-213126247D01*
X337161904Y-213126247D02*
X337161904Y-212983390D01*
X337161904Y-212983390D02*
X337114285Y-212792914D01*
X337114285Y-212792914D02*
X337066666Y-212697676D01*
X337066666Y-212697676D02*
X336971428Y-212602438D01*
X336971428Y-212602438D02*
X336828571Y-212554819D01*
X336828571Y-212554819D02*
X336733333Y-212554819D01*
X336733333Y-212554819D02*
X336590476Y-212602438D01*
X336590476Y-212602438D02*
X336542857Y-212650057D01*
X336209523Y-212554819D02*
X335590476Y-212554819D01*
X335590476Y-212554819D02*
X335923809Y-212935771D01*
X335923809Y-212935771D02*
X335780952Y-212935771D01*
X335780952Y-212935771D02*
X335685714Y-212983390D01*
X335685714Y-212983390D02*
X335638095Y-213031009D01*
X335638095Y-213031009D02*
X335590476Y-213126247D01*
X335590476Y-213126247D02*
X335590476Y-213364342D01*
X335590476Y-213364342D02*
X335638095Y-213459580D01*
X335638095Y-213459580D02*
X335685714Y-213507200D01*
X335685714Y-213507200D02*
X335780952Y-213554819D01*
X335780952Y-213554819D02*
X336066666Y-213554819D01*
X336066666Y-213554819D02*
X336161904Y-213507200D01*
X336161904Y-213507200D02*
X336209523Y-213459580D01*
X334733333Y-212554819D02*
X334923809Y-212554819D01*
X334923809Y-212554819D02*
X335019047Y-212602438D01*
X335019047Y-212602438D02*
X335066666Y-212650057D01*
X335066666Y-212650057D02*
X335161904Y-212792914D01*
X335161904Y-212792914D02*
X335209523Y-212983390D01*
X335209523Y-212983390D02*
X335209523Y-213364342D01*
X335209523Y-213364342D02*
X335161904Y-213459580D01*
X335161904Y-213459580D02*
X335114285Y-213507200D01*
X335114285Y-213507200D02*
X335019047Y-213554819D01*
X335019047Y-213554819D02*
X334828571Y-213554819D01*
X334828571Y-213554819D02*
X334733333Y-213507200D01*
X334733333Y-213507200D02*
X334685714Y-213459580D01*
X334685714Y-213459580D02*
X334638095Y-213364342D01*
X334638095Y-213364342D02*
X334638095Y-213126247D01*
X334638095Y-213126247D02*
X334685714Y-213031009D01*
X334685714Y-213031009D02*
X334733333Y-212983390D01*
X334733333Y-212983390D02*
X334828571Y-212935771D01*
X334828571Y-212935771D02*
X335019047Y-212935771D01*
X335019047Y-212935771D02*
X335114285Y-212983390D01*
X335114285Y-212983390D02*
X335161904Y-213031009D01*
X335161904Y-213031009D02*
X335209523Y-213126247D01*
X437704819Y-176661905D02*
X437704819Y-177233333D01*
X438704819Y-176947619D02*
X437704819Y-176947619D01*
X437704819Y-177471429D02*
X437704819Y-178090476D01*
X437704819Y-178090476D02*
X438085771Y-177757143D01*
X438085771Y-177757143D02*
X438085771Y-177900000D01*
X438085771Y-177900000D02*
X438133390Y-177995238D01*
X438133390Y-177995238D02*
X438181009Y-178042857D01*
X438181009Y-178042857D02*
X438276247Y-178090476D01*
X438276247Y-178090476D02*
X438514342Y-178090476D01*
X438514342Y-178090476D02*
X438609580Y-178042857D01*
X438609580Y-178042857D02*
X438657200Y-177995238D01*
X438657200Y-177995238D02*
X438704819Y-177900000D01*
X438704819Y-177900000D02*
X438704819Y-177614286D01*
X438704819Y-177614286D02*
X438657200Y-177519048D01*
X438657200Y-177519048D02*
X438609580Y-177471429D01*
X438133390Y-178661905D02*
X438085771Y-178566667D01*
X438085771Y-178566667D02*
X438038152Y-178519048D01*
X438038152Y-178519048D02*
X437942914Y-178471429D01*
X437942914Y-178471429D02*
X437895295Y-178471429D01*
X437895295Y-178471429D02*
X437800057Y-178519048D01*
X437800057Y-178519048D02*
X437752438Y-178566667D01*
X437752438Y-178566667D02*
X437704819Y-178661905D01*
X437704819Y-178661905D02*
X437704819Y-178852381D01*
X437704819Y-178852381D02*
X437752438Y-178947619D01*
X437752438Y-178947619D02*
X437800057Y-178995238D01*
X437800057Y-178995238D02*
X437895295Y-179042857D01*
X437895295Y-179042857D02*
X437942914Y-179042857D01*
X437942914Y-179042857D02*
X438038152Y-178995238D01*
X438038152Y-178995238D02*
X438085771Y-178947619D01*
X438085771Y-178947619D02*
X438133390Y-178852381D01*
X438133390Y-178852381D02*
X438133390Y-178661905D01*
X438133390Y-178661905D02*
X438181009Y-178566667D01*
X438181009Y-178566667D02*
X438228628Y-178519048D01*
X438228628Y-178519048D02*
X438323866Y-178471429D01*
X438323866Y-178471429D02*
X438514342Y-178471429D01*
X438514342Y-178471429D02*
X438609580Y-178519048D01*
X438609580Y-178519048D02*
X438657200Y-178566667D01*
X438657200Y-178566667D02*
X438704819Y-178661905D01*
X438704819Y-178661905D02*
X438704819Y-178852381D01*
X438704819Y-178852381D02*
X438657200Y-178947619D01*
X438657200Y-178947619D02*
X438609580Y-178995238D01*
X438609580Y-178995238D02*
X438514342Y-179042857D01*
X438514342Y-179042857D02*
X438323866Y-179042857D01*
X438323866Y-179042857D02*
X438228628Y-178995238D01*
X438228628Y-178995238D02*
X438181009Y-178947619D01*
X438181009Y-178947619D02*
X438133390Y-178852381D01*
X337704819Y-266138095D02*
X337704819Y-266709523D01*
X338704819Y-266423809D02*
X337704819Y-266423809D01*
X338704819Y-267566666D02*
X338704819Y-266995238D01*
X338704819Y-267280952D02*
X337704819Y-267280952D01*
X337704819Y-267280952D02*
X337847676Y-267185714D01*
X337847676Y-267185714D02*
X337942914Y-267090476D01*
X337942914Y-267090476D02*
X337990533Y-266995238D01*
X276019047Y-222154819D02*
X276352380Y-221678628D01*
X276590475Y-222154819D02*
X276590475Y-221154819D01*
X276590475Y-221154819D02*
X276209523Y-221154819D01*
X276209523Y-221154819D02*
X276114285Y-221202438D01*
X276114285Y-221202438D02*
X276066666Y-221250057D01*
X276066666Y-221250057D02*
X276019047Y-221345295D01*
X276019047Y-221345295D02*
X276019047Y-221488152D01*
X276019047Y-221488152D02*
X276066666Y-221583390D01*
X276066666Y-221583390D02*
X276114285Y-221631009D01*
X276114285Y-221631009D02*
X276209523Y-221678628D01*
X276209523Y-221678628D02*
X276590475Y-221678628D01*
X275066666Y-222154819D02*
X275638094Y-222154819D01*
X275352380Y-222154819D02*
X275352380Y-221154819D01*
X275352380Y-221154819D02*
X275447618Y-221297676D01*
X275447618Y-221297676D02*
X275542856Y-221392914D01*
X275542856Y-221392914D02*
X275638094Y-221440533D01*
X274447618Y-221154819D02*
X274352380Y-221154819D01*
X274352380Y-221154819D02*
X274257142Y-221202438D01*
X274257142Y-221202438D02*
X274209523Y-221250057D01*
X274209523Y-221250057D02*
X274161904Y-221345295D01*
X274161904Y-221345295D02*
X274114285Y-221535771D01*
X274114285Y-221535771D02*
X274114285Y-221773866D01*
X274114285Y-221773866D02*
X274161904Y-221964342D01*
X274161904Y-221964342D02*
X274209523Y-222059580D01*
X274209523Y-222059580D02*
X274257142Y-222107200D01*
X274257142Y-222107200D02*
X274352380Y-222154819D01*
X274352380Y-222154819D02*
X274447618Y-222154819D01*
X274447618Y-222154819D02*
X274542856Y-222107200D01*
X274542856Y-222107200D02*
X274590475Y-222059580D01*
X274590475Y-222059580D02*
X274638094Y-221964342D01*
X274638094Y-221964342D02*
X274685713Y-221773866D01*
X274685713Y-221773866D02*
X274685713Y-221535771D01*
X274685713Y-221535771D02*
X274638094Y-221345295D01*
X274638094Y-221345295D02*
X274590475Y-221250057D01*
X274590475Y-221250057D02*
X274542856Y-221202438D01*
X274542856Y-221202438D02*
X274447618Y-221154819D01*
X273638094Y-222154819D02*
X273447618Y-222154819D01*
X273447618Y-222154819D02*
X273352380Y-222107200D01*
X273352380Y-222107200D02*
X273304761Y-222059580D01*
X273304761Y-222059580D02*
X273209523Y-221916723D01*
X273209523Y-221916723D02*
X273161904Y-221726247D01*
X273161904Y-221726247D02*
X273161904Y-221345295D01*
X273161904Y-221345295D02*
X273209523Y-221250057D01*
X273209523Y-221250057D02*
X273257142Y-221202438D01*
X273257142Y-221202438D02*
X273352380Y-221154819D01*
X273352380Y-221154819D02*
X273542856Y-221154819D01*
X273542856Y-221154819D02*
X273638094Y-221202438D01*
X273638094Y-221202438D02*
X273685713Y-221250057D01*
X273685713Y-221250057D02*
X273733332Y-221345295D01*
X273733332Y-221345295D02*
X273733332Y-221583390D01*
X273733332Y-221583390D02*
X273685713Y-221678628D01*
X273685713Y-221678628D02*
X273638094Y-221726247D01*
X273638094Y-221726247D02*
X273542856Y-221773866D01*
X273542856Y-221773866D02*
X273352380Y-221773866D01*
X273352380Y-221773866D02*
X273257142Y-221726247D01*
X273257142Y-221726247D02*
X273209523Y-221678628D01*
X273209523Y-221678628D02*
X273161904Y-221583390D01*
X340119047Y-210354819D02*
X340452380Y-209878628D01*
X340690475Y-210354819D02*
X340690475Y-209354819D01*
X340690475Y-209354819D02*
X340309523Y-209354819D01*
X340309523Y-209354819D02*
X340214285Y-209402438D01*
X340214285Y-209402438D02*
X340166666Y-209450057D01*
X340166666Y-209450057D02*
X340119047Y-209545295D01*
X340119047Y-209545295D02*
X340119047Y-209688152D01*
X340119047Y-209688152D02*
X340166666Y-209783390D01*
X340166666Y-209783390D02*
X340214285Y-209831009D01*
X340214285Y-209831009D02*
X340309523Y-209878628D01*
X340309523Y-209878628D02*
X340690475Y-209878628D01*
X339166666Y-210354819D02*
X339738094Y-210354819D01*
X339452380Y-210354819D02*
X339452380Y-209354819D01*
X339452380Y-209354819D02*
X339547618Y-209497676D01*
X339547618Y-209497676D02*
X339642856Y-209592914D01*
X339642856Y-209592914D02*
X339738094Y-209640533D01*
X338214285Y-210354819D02*
X338785713Y-210354819D01*
X338499999Y-210354819D02*
X338499999Y-209354819D01*
X338499999Y-209354819D02*
X338595237Y-209497676D01*
X338595237Y-209497676D02*
X338690475Y-209592914D01*
X338690475Y-209592914D02*
X338785713Y-209640533D01*
X337309523Y-209354819D02*
X337785713Y-209354819D01*
X337785713Y-209354819D02*
X337833332Y-209831009D01*
X337833332Y-209831009D02*
X337785713Y-209783390D01*
X337785713Y-209783390D02*
X337690475Y-209735771D01*
X337690475Y-209735771D02*
X337452380Y-209735771D01*
X337452380Y-209735771D02*
X337357142Y-209783390D01*
X337357142Y-209783390D02*
X337309523Y-209831009D01*
X337309523Y-209831009D02*
X337261904Y-209926247D01*
X337261904Y-209926247D02*
X337261904Y-210164342D01*
X337261904Y-210164342D02*
X337309523Y-210259580D01*
X337309523Y-210259580D02*
X337357142Y-210307200D01*
X337357142Y-210307200D02*
X337452380Y-210354819D01*
X337452380Y-210354819D02*
X337690475Y-210354819D01*
X337690475Y-210354819D02*
X337785713Y-210307200D01*
X337785713Y-210307200D02*
X337833332Y-210259580D01*
X403254819Y-176661905D02*
X403254819Y-177233333D01*
X404254819Y-176947619D02*
X403254819Y-176947619D01*
X404254819Y-178090476D02*
X404254819Y-177519048D01*
X404254819Y-177804762D02*
X403254819Y-177804762D01*
X403254819Y-177804762D02*
X403397676Y-177709524D01*
X403397676Y-177709524D02*
X403492914Y-177614286D01*
X403492914Y-177614286D02*
X403540533Y-177519048D01*
X403350057Y-178471429D02*
X403302438Y-178519048D01*
X403302438Y-178519048D02*
X403254819Y-178614286D01*
X403254819Y-178614286D02*
X403254819Y-178852381D01*
X403254819Y-178852381D02*
X403302438Y-178947619D01*
X403302438Y-178947619D02*
X403350057Y-178995238D01*
X403350057Y-178995238D02*
X403445295Y-179042857D01*
X403445295Y-179042857D02*
X403540533Y-179042857D01*
X403540533Y-179042857D02*
X403683390Y-178995238D01*
X403683390Y-178995238D02*
X404254819Y-178423810D01*
X404254819Y-178423810D02*
X404254819Y-179042857D01*
X361338094Y-211654819D02*
X360766666Y-211654819D01*
X361052380Y-212654819D02*
X361052380Y-211654819D01*
X360528570Y-211654819D02*
X359909523Y-211654819D01*
X359909523Y-211654819D02*
X360242856Y-212035771D01*
X360242856Y-212035771D02*
X360099999Y-212035771D01*
X360099999Y-212035771D02*
X360004761Y-212083390D01*
X360004761Y-212083390D02*
X359957142Y-212131009D01*
X359957142Y-212131009D02*
X359909523Y-212226247D01*
X359909523Y-212226247D02*
X359909523Y-212464342D01*
X359909523Y-212464342D02*
X359957142Y-212559580D01*
X359957142Y-212559580D02*
X360004761Y-212607200D01*
X360004761Y-212607200D02*
X360099999Y-212654819D01*
X360099999Y-212654819D02*
X360385713Y-212654819D01*
X360385713Y-212654819D02*
X360480951Y-212607200D01*
X360480951Y-212607200D02*
X360528570Y-212559580D01*
X359004761Y-211654819D02*
X359480951Y-211654819D01*
X359480951Y-211654819D02*
X359528570Y-212131009D01*
X359528570Y-212131009D02*
X359480951Y-212083390D01*
X359480951Y-212083390D02*
X359385713Y-212035771D01*
X359385713Y-212035771D02*
X359147618Y-212035771D01*
X359147618Y-212035771D02*
X359052380Y-212083390D01*
X359052380Y-212083390D02*
X359004761Y-212131009D01*
X359004761Y-212131009D02*
X358957142Y-212226247D01*
X358957142Y-212226247D02*
X358957142Y-212464342D01*
X358957142Y-212464342D02*
X359004761Y-212559580D01*
X359004761Y-212559580D02*
X359052380Y-212607200D01*
X359052380Y-212607200D02*
X359147618Y-212654819D01*
X359147618Y-212654819D02*
X359385713Y-212654819D01*
X359385713Y-212654819D02*
X359480951Y-212607200D01*
X359480951Y-212607200D02*
X359528570Y-212559580D01*
X361338094Y-216654819D02*
X360766666Y-216654819D01*
X361052380Y-217654819D02*
X361052380Y-216654819D01*
X360528570Y-216654819D02*
X359909523Y-216654819D01*
X359909523Y-216654819D02*
X360242856Y-217035771D01*
X360242856Y-217035771D02*
X360099999Y-217035771D01*
X360099999Y-217035771D02*
X360004761Y-217083390D01*
X360004761Y-217083390D02*
X359957142Y-217131009D01*
X359957142Y-217131009D02*
X359909523Y-217226247D01*
X359909523Y-217226247D02*
X359909523Y-217464342D01*
X359909523Y-217464342D02*
X359957142Y-217559580D01*
X359957142Y-217559580D02*
X360004761Y-217607200D01*
X360004761Y-217607200D02*
X360099999Y-217654819D01*
X360099999Y-217654819D02*
X360385713Y-217654819D01*
X360385713Y-217654819D02*
X360480951Y-217607200D01*
X360480951Y-217607200D02*
X360528570Y-217559580D01*
X359576189Y-216654819D02*
X358957142Y-216654819D01*
X358957142Y-216654819D02*
X359290475Y-217035771D01*
X359290475Y-217035771D02*
X359147618Y-217035771D01*
X359147618Y-217035771D02*
X359052380Y-217083390D01*
X359052380Y-217083390D02*
X359004761Y-217131009D01*
X359004761Y-217131009D02*
X358957142Y-217226247D01*
X358957142Y-217226247D02*
X358957142Y-217464342D01*
X358957142Y-217464342D02*
X359004761Y-217559580D01*
X359004761Y-217559580D02*
X359052380Y-217607200D01*
X359052380Y-217607200D02*
X359147618Y-217654819D01*
X359147618Y-217654819D02*
X359433332Y-217654819D01*
X359433332Y-217654819D02*
X359528570Y-217607200D01*
X359528570Y-217607200D02*
X359576189Y-217559580D01*
X375204819Y-236661905D02*
X375204819Y-237233333D01*
X376204819Y-236947619D02*
X375204819Y-236947619D01*
X375300057Y-237519048D02*
X375252438Y-237566667D01*
X375252438Y-237566667D02*
X375204819Y-237661905D01*
X375204819Y-237661905D02*
X375204819Y-237900000D01*
X375204819Y-237900000D02*
X375252438Y-237995238D01*
X375252438Y-237995238D02*
X375300057Y-238042857D01*
X375300057Y-238042857D02*
X375395295Y-238090476D01*
X375395295Y-238090476D02*
X375490533Y-238090476D01*
X375490533Y-238090476D02*
X375633390Y-238042857D01*
X375633390Y-238042857D02*
X376204819Y-237471429D01*
X376204819Y-237471429D02*
X376204819Y-238090476D01*
X376204819Y-239042857D02*
X376204819Y-238471429D01*
X376204819Y-238757143D02*
X375204819Y-238757143D01*
X375204819Y-238757143D02*
X375347676Y-238661905D01*
X375347676Y-238661905D02*
X375442914Y-238566667D01*
X375442914Y-238566667D02*
X375490533Y-238471429D01*
D12*
X340725714Y-233295270D02*
X340846666Y-233234794D01*
X340846666Y-233234794D02*
X340967619Y-233113842D01*
X340967619Y-233113842D02*
X341149047Y-232932413D01*
X341149047Y-232932413D02*
X341270000Y-232871937D01*
X341270000Y-232871937D02*
X341390952Y-232871937D01*
X341330476Y-233174318D02*
X341451428Y-233113842D01*
X341451428Y-233113842D02*
X341572381Y-232992889D01*
X341572381Y-232992889D02*
X341632857Y-232750984D01*
X341632857Y-232750984D02*
X341632857Y-232327651D01*
X341632857Y-232327651D02*
X341572381Y-232085746D01*
X341572381Y-232085746D02*
X341451428Y-231964794D01*
X341451428Y-231964794D02*
X341330476Y-231904318D01*
X341330476Y-231904318D02*
X341088571Y-231904318D01*
X341088571Y-231904318D02*
X340967619Y-231964794D01*
X340967619Y-231964794D02*
X340846666Y-232085746D01*
X340846666Y-232085746D02*
X340786190Y-232327651D01*
X340786190Y-232327651D02*
X340786190Y-232750984D01*
X340786190Y-232750984D02*
X340846666Y-232992889D01*
X340846666Y-232992889D02*
X340967619Y-233113842D01*
X340967619Y-233113842D02*
X341088571Y-233174318D01*
X341088571Y-233174318D02*
X341330476Y-233174318D01*
X340362857Y-231904318D02*
X339576666Y-231904318D01*
X339576666Y-231904318D02*
X340000000Y-232388127D01*
X340000000Y-232388127D02*
X339818571Y-232388127D01*
X339818571Y-232388127D02*
X339697619Y-232448603D01*
X339697619Y-232448603D02*
X339637143Y-232509080D01*
X339637143Y-232509080D02*
X339576666Y-232630032D01*
X339576666Y-232630032D02*
X339576666Y-232932413D01*
X339576666Y-232932413D02*
X339637143Y-233053365D01*
X339637143Y-233053365D02*
X339697619Y-233113842D01*
X339697619Y-233113842D02*
X339818571Y-233174318D01*
X339818571Y-233174318D02*
X340181428Y-233174318D01*
X340181428Y-233174318D02*
X340302381Y-233113842D01*
X340302381Y-233113842D02*
X340362857Y-233053365D01*
X339092857Y-232025270D02*
X339032381Y-231964794D01*
X339032381Y-231964794D02*
X338911428Y-231904318D01*
X338911428Y-231904318D02*
X338609047Y-231904318D01*
X338609047Y-231904318D02*
X338488095Y-231964794D01*
X338488095Y-231964794D02*
X338427619Y-232025270D01*
X338427619Y-232025270D02*
X338367142Y-232146222D01*
X338367142Y-232146222D02*
X338367142Y-232267175D01*
X338367142Y-232267175D02*
X338427619Y-232448603D01*
X338427619Y-232448603D02*
X339153333Y-233174318D01*
X339153333Y-233174318D02*
X338367142Y-233174318D01*
D10*
X278619047Y-213154819D02*
X278952380Y-212678628D01*
X279190475Y-213154819D02*
X279190475Y-212154819D01*
X279190475Y-212154819D02*
X278809523Y-212154819D01*
X278809523Y-212154819D02*
X278714285Y-212202438D01*
X278714285Y-212202438D02*
X278666666Y-212250057D01*
X278666666Y-212250057D02*
X278619047Y-212345295D01*
X278619047Y-212345295D02*
X278619047Y-212488152D01*
X278619047Y-212488152D02*
X278666666Y-212583390D01*
X278666666Y-212583390D02*
X278714285Y-212631009D01*
X278714285Y-212631009D02*
X278809523Y-212678628D01*
X278809523Y-212678628D02*
X279190475Y-212678628D01*
X277666666Y-213154819D02*
X278238094Y-213154819D01*
X277952380Y-213154819D02*
X277952380Y-212154819D01*
X277952380Y-212154819D02*
X278047618Y-212297676D01*
X278047618Y-212297676D02*
X278142856Y-212392914D01*
X278142856Y-212392914D02*
X278238094Y-212440533D01*
X276714285Y-213154819D02*
X277285713Y-213154819D01*
X276999999Y-213154819D02*
X276999999Y-212154819D01*
X276999999Y-212154819D02*
X277095237Y-212297676D01*
X277095237Y-212297676D02*
X277190475Y-212392914D01*
X277190475Y-212392914D02*
X277285713Y-212440533D01*
X275761904Y-213154819D02*
X276333332Y-213154819D01*
X276047618Y-213154819D02*
X276047618Y-212154819D01*
X276047618Y-212154819D02*
X276142856Y-212297676D01*
X276142856Y-212297676D02*
X276238094Y-212392914D01*
X276238094Y-212392914D02*
X276333332Y-212440533D01*
X344704819Y-266138095D02*
X344704819Y-266709523D01*
X345704819Y-266423809D02*
X344704819Y-266423809D01*
X345038152Y-267471428D02*
X345704819Y-267471428D01*
X344657200Y-267233333D02*
X345371485Y-266995238D01*
X345371485Y-266995238D02*
X345371485Y-267614285D01*
X291419047Y-221954819D02*
X291752380Y-221478628D01*
X291990475Y-221954819D02*
X291990475Y-220954819D01*
X291990475Y-220954819D02*
X291609523Y-220954819D01*
X291609523Y-220954819D02*
X291514285Y-221002438D01*
X291514285Y-221002438D02*
X291466666Y-221050057D01*
X291466666Y-221050057D02*
X291419047Y-221145295D01*
X291419047Y-221145295D02*
X291419047Y-221288152D01*
X291419047Y-221288152D02*
X291466666Y-221383390D01*
X291466666Y-221383390D02*
X291514285Y-221431009D01*
X291514285Y-221431009D02*
X291609523Y-221478628D01*
X291609523Y-221478628D02*
X291990475Y-221478628D01*
X290466666Y-221954819D02*
X291038094Y-221954819D01*
X290752380Y-221954819D02*
X290752380Y-220954819D01*
X290752380Y-220954819D02*
X290847618Y-221097676D01*
X290847618Y-221097676D02*
X290942856Y-221192914D01*
X290942856Y-221192914D02*
X291038094Y-221240533D01*
X289514285Y-221954819D02*
X290085713Y-221954819D01*
X289799999Y-221954819D02*
X289799999Y-220954819D01*
X289799999Y-220954819D02*
X289895237Y-221097676D01*
X289895237Y-221097676D02*
X289990475Y-221192914D01*
X289990475Y-221192914D02*
X290085713Y-221240533D01*
X288657142Y-221288152D02*
X288657142Y-221954819D01*
X288895237Y-220907200D02*
X289133332Y-221621485D01*
X289133332Y-221621485D02*
X288514285Y-221621485D01*
X375038094Y-216654819D02*
X374466666Y-216654819D01*
X374752380Y-217654819D02*
X374752380Y-216654819D01*
X374180951Y-216750057D02*
X374133332Y-216702438D01*
X374133332Y-216702438D02*
X374038094Y-216654819D01*
X374038094Y-216654819D02*
X373799999Y-216654819D01*
X373799999Y-216654819D02*
X373704761Y-216702438D01*
X373704761Y-216702438D02*
X373657142Y-216750057D01*
X373657142Y-216750057D02*
X373609523Y-216845295D01*
X373609523Y-216845295D02*
X373609523Y-216940533D01*
X373609523Y-216940533D02*
X373657142Y-217083390D01*
X373657142Y-217083390D02*
X374228570Y-217654819D01*
X374228570Y-217654819D02*
X373609523Y-217654819D01*
X372752380Y-216654819D02*
X372942856Y-216654819D01*
X372942856Y-216654819D02*
X373038094Y-216702438D01*
X373038094Y-216702438D02*
X373085713Y-216750057D01*
X373085713Y-216750057D02*
X373180951Y-216892914D01*
X373180951Y-216892914D02*
X373228570Y-217083390D01*
X373228570Y-217083390D02*
X373228570Y-217464342D01*
X373228570Y-217464342D02*
X373180951Y-217559580D01*
X373180951Y-217559580D02*
X373133332Y-217607200D01*
X373133332Y-217607200D02*
X373038094Y-217654819D01*
X373038094Y-217654819D02*
X372847618Y-217654819D01*
X372847618Y-217654819D02*
X372752380Y-217607200D01*
X372752380Y-217607200D02*
X372704761Y-217559580D01*
X372704761Y-217559580D02*
X372657142Y-217464342D01*
X372657142Y-217464342D02*
X372657142Y-217226247D01*
X372657142Y-217226247D02*
X372704761Y-217131009D01*
X372704761Y-217131009D02*
X372752380Y-217083390D01*
X372752380Y-217083390D02*
X372847618Y-217035771D01*
X372847618Y-217035771D02*
X373038094Y-217035771D01*
X373038094Y-217035771D02*
X373133332Y-217083390D01*
X373133332Y-217083390D02*
X373180951Y-217131009D01*
X373180951Y-217131009D02*
X373228570Y-217226247D01*
X374838094Y-188604819D02*
X374266666Y-188604819D01*
X374552380Y-189604819D02*
X374552380Y-188604819D01*
X374028570Y-188604819D02*
X373409523Y-188604819D01*
X373409523Y-188604819D02*
X373742856Y-188985771D01*
X373742856Y-188985771D02*
X373599999Y-188985771D01*
X373599999Y-188985771D02*
X373504761Y-189033390D01*
X373504761Y-189033390D02*
X373457142Y-189081009D01*
X373457142Y-189081009D02*
X373409523Y-189176247D01*
X373409523Y-189176247D02*
X373409523Y-189414342D01*
X373409523Y-189414342D02*
X373457142Y-189509580D01*
X373457142Y-189509580D02*
X373504761Y-189557200D01*
X373504761Y-189557200D02*
X373599999Y-189604819D01*
X373599999Y-189604819D02*
X373885713Y-189604819D01*
X373885713Y-189604819D02*
X373980951Y-189557200D01*
X373980951Y-189557200D02*
X374028570Y-189509580D01*
X373028570Y-188700057D02*
X372980951Y-188652438D01*
X372980951Y-188652438D02*
X372885713Y-188604819D01*
X372885713Y-188604819D02*
X372647618Y-188604819D01*
X372647618Y-188604819D02*
X372552380Y-188652438D01*
X372552380Y-188652438D02*
X372504761Y-188700057D01*
X372504761Y-188700057D02*
X372457142Y-188795295D01*
X372457142Y-188795295D02*
X372457142Y-188890533D01*
X372457142Y-188890533D02*
X372504761Y-189033390D01*
X372504761Y-189033390D02*
X373076189Y-189604819D01*
X373076189Y-189604819D02*
X372457142Y-189604819D01*
X337619047Y-219454819D02*
X337952380Y-218978628D01*
X338190475Y-219454819D02*
X338190475Y-218454819D01*
X338190475Y-218454819D02*
X337809523Y-218454819D01*
X337809523Y-218454819D02*
X337714285Y-218502438D01*
X337714285Y-218502438D02*
X337666666Y-218550057D01*
X337666666Y-218550057D02*
X337619047Y-218645295D01*
X337619047Y-218645295D02*
X337619047Y-218788152D01*
X337619047Y-218788152D02*
X337666666Y-218883390D01*
X337666666Y-218883390D02*
X337714285Y-218931009D01*
X337714285Y-218931009D02*
X337809523Y-218978628D01*
X337809523Y-218978628D02*
X338190475Y-218978628D01*
X336666666Y-219454819D02*
X337238094Y-219454819D01*
X336952380Y-219454819D02*
X336952380Y-218454819D01*
X336952380Y-218454819D02*
X337047618Y-218597676D01*
X337047618Y-218597676D02*
X337142856Y-218692914D01*
X337142856Y-218692914D02*
X337238094Y-218740533D01*
X335714285Y-219454819D02*
X336285713Y-219454819D01*
X335999999Y-219454819D02*
X335999999Y-218454819D01*
X335999999Y-218454819D02*
X336095237Y-218597676D01*
X336095237Y-218597676D02*
X336190475Y-218692914D01*
X336190475Y-218692914D02*
X336285713Y-218740533D01*
X334857142Y-218454819D02*
X335047618Y-218454819D01*
X335047618Y-218454819D02*
X335142856Y-218502438D01*
X335142856Y-218502438D02*
X335190475Y-218550057D01*
X335190475Y-218550057D02*
X335285713Y-218692914D01*
X335285713Y-218692914D02*
X335333332Y-218883390D01*
X335333332Y-218883390D02*
X335333332Y-219264342D01*
X335333332Y-219264342D02*
X335285713Y-219359580D01*
X335285713Y-219359580D02*
X335238094Y-219407200D01*
X335238094Y-219407200D02*
X335142856Y-219454819D01*
X335142856Y-219454819D02*
X334952380Y-219454819D01*
X334952380Y-219454819D02*
X334857142Y-219407200D01*
X334857142Y-219407200D02*
X334809523Y-219359580D01*
X334809523Y-219359580D02*
X334761904Y-219264342D01*
X334761904Y-219264342D02*
X334761904Y-219026247D01*
X334761904Y-219026247D02*
X334809523Y-218931009D01*
X334809523Y-218931009D02*
X334857142Y-218883390D01*
X334857142Y-218883390D02*
X334952380Y-218835771D01*
X334952380Y-218835771D02*
X335142856Y-218835771D01*
X335142856Y-218835771D02*
X335238094Y-218883390D01*
X335238094Y-218883390D02*
X335285713Y-218931009D01*
X335285713Y-218931009D02*
X335333332Y-219026247D01*
X372754819Y-236661905D02*
X372754819Y-237233333D01*
X373754819Y-236947619D02*
X372754819Y-236947619D01*
X372850057Y-237519048D02*
X372802438Y-237566667D01*
X372802438Y-237566667D02*
X372754819Y-237661905D01*
X372754819Y-237661905D02*
X372754819Y-237900000D01*
X372754819Y-237900000D02*
X372802438Y-237995238D01*
X372802438Y-237995238D02*
X372850057Y-238042857D01*
X372850057Y-238042857D02*
X372945295Y-238090476D01*
X372945295Y-238090476D02*
X373040533Y-238090476D01*
X373040533Y-238090476D02*
X373183390Y-238042857D01*
X373183390Y-238042857D02*
X373754819Y-237471429D01*
X373754819Y-237471429D02*
X373754819Y-238090476D01*
X372850057Y-238471429D02*
X372802438Y-238519048D01*
X372802438Y-238519048D02*
X372754819Y-238614286D01*
X372754819Y-238614286D02*
X372754819Y-238852381D01*
X372754819Y-238852381D02*
X372802438Y-238947619D01*
X372802438Y-238947619D02*
X372850057Y-238995238D01*
X372850057Y-238995238D02*
X372945295Y-239042857D01*
X372945295Y-239042857D02*
X373040533Y-239042857D01*
X373040533Y-239042857D02*
X373183390Y-238995238D01*
X373183390Y-238995238D02*
X373754819Y-238423810D01*
X373754819Y-238423810D02*
X373754819Y-239042857D01*
X234706819Y-265361905D02*
X234706819Y-265933333D01*
X235706819Y-265647619D02*
X234706819Y-265647619D01*
X235706819Y-266790476D02*
X235706819Y-266219048D01*
X235706819Y-266504762D02*
X234706819Y-266504762D01*
X234706819Y-266504762D02*
X234849676Y-266409524D01*
X234849676Y-266409524D02*
X234944914Y-266314286D01*
X234944914Y-266314286D02*
X234992533Y-266219048D01*
X234706819Y-267409524D02*
X234706819Y-267504762D01*
X234706819Y-267504762D02*
X234754438Y-267600000D01*
X234754438Y-267600000D02*
X234802057Y-267647619D01*
X234802057Y-267647619D02*
X234897295Y-267695238D01*
X234897295Y-267695238D02*
X235087771Y-267742857D01*
X235087771Y-267742857D02*
X235325866Y-267742857D01*
X235325866Y-267742857D02*
X235516342Y-267695238D01*
X235516342Y-267695238D02*
X235611580Y-267647619D01*
X235611580Y-267647619D02*
X235659200Y-267600000D01*
X235659200Y-267600000D02*
X235706819Y-267504762D01*
X235706819Y-267504762D02*
X235706819Y-267409524D01*
X235706819Y-267409524D02*
X235659200Y-267314286D01*
X235659200Y-267314286D02*
X235611580Y-267266667D01*
X235611580Y-267266667D02*
X235516342Y-267219048D01*
X235516342Y-267219048D02*
X235325866Y-267171429D01*
X235325866Y-267171429D02*
X235087771Y-267171429D01*
X235087771Y-267171429D02*
X234897295Y-267219048D01*
X234897295Y-267219048D02*
X234802057Y-267266667D01*
X234802057Y-267266667D02*
X234754438Y-267314286D01*
X234754438Y-267314286D02*
X234706819Y-267409524D01*
X400754819Y-176661905D02*
X400754819Y-177233333D01*
X401754819Y-176947619D02*
X400754819Y-176947619D01*
X400754819Y-177471429D02*
X400754819Y-178090476D01*
X400754819Y-178090476D02*
X401135771Y-177757143D01*
X401135771Y-177757143D02*
X401135771Y-177900000D01*
X401135771Y-177900000D02*
X401183390Y-177995238D01*
X401183390Y-177995238D02*
X401231009Y-178042857D01*
X401231009Y-178042857D02*
X401326247Y-178090476D01*
X401326247Y-178090476D02*
X401564342Y-178090476D01*
X401564342Y-178090476D02*
X401659580Y-178042857D01*
X401659580Y-178042857D02*
X401707200Y-177995238D01*
X401707200Y-177995238D02*
X401754819Y-177900000D01*
X401754819Y-177900000D02*
X401754819Y-177614286D01*
X401754819Y-177614286D02*
X401707200Y-177519048D01*
X401707200Y-177519048D02*
X401659580Y-177471429D01*
X400754819Y-178423810D02*
X400754819Y-179090476D01*
X400754819Y-179090476D02*
X401754819Y-178661905D01*
X342454819Y-266138095D02*
X342454819Y-266709523D01*
X343454819Y-266423809D02*
X342454819Y-266423809D01*
X342454819Y-266947619D02*
X342454819Y-267566666D01*
X342454819Y-267566666D02*
X342835771Y-267233333D01*
X342835771Y-267233333D02*
X342835771Y-267376190D01*
X342835771Y-267376190D02*
X342883390Y-267471428D01*
X342883390Y-267471428D02*
X342931009Y-267519047D01*
X342931009Y-267519047D02*
X343026247Y-267566666D01*
X343026247Y-267566666D02*
X343264342Y-267566666D01*
X343264342Y-267566666D02*
X343359580Y-267519047D01*
X343359580Y-267519047D02*
X343407200Y-267471428D01*
X343407200Y-267471428D02*
X343454819Y-267376190D01*
X343454819Y-267376190D02*
X343454819Y-267090476D01*
X343454819Y-267090476D02*
X343407200Y-266995238D01*
X343407200Y-266995238D02*
X343359580Y-266947619D01*
X337619047Y-221854819D02*
X337952380Y-221378628D01*
X338190475Y-221854819D02*
X338190475Y-220854819D01*
X338190475Y-220854819D02*
X337809523Y-220854819D01*
X337809523Y-220854819D02*
X337714285Y-220902438D01*
X337714285Y-220902438D02*
X337666666Y-220950057D01*
X337666666Y-220950057D02*
X337619047Y-221045295D01*
X337619047Y-221045295D02*
X337619047Y-221188152D01*
X337619047Y-221188152D02*
X337666666Y-221283390D01*
X337666666Y-221283390D02*
X337714285Y-221331009D01*
X337714285Y-221331009D02*
X337809523Y-221378628D01*
X337809523Y-221378628D02*
X338190475Y-221378628D01*
X336666666Y-221854819D02*
X337238094Y-221854819D01*
X336952380Y-221854819D02*
X336952380Y-220854819D01*
X336952380Y-220854819D02*
X337047618Y-220997676D01*
X337047618Y-220997676D02*
X337142856Y-221092914D01*
X337142856Y-221092914D02*
X337238094Y-221140533D01*
X335714285Y-221854819D02*
X336285713Y-221854819D01*
X335999999Y-221854819D02*
X335999999Y-220854819D01*
X335999999Y-220854819D02*
X336095237Y-220997676D01*
X336095237Y-220997676D02*
X336190475Y-221092914D01*
X336190475Y-221092914D02*
X336285713Y-221140533D01*
X335380951Y-220854819D02*
X334714285Y-220854819D01*
X334714285Y-220854819D02*
X335142856Y-221854819D01*
D12*
X332425714Y-233395270D02*
X332546666Y-233334794D01*
X332546666Y-233334794D02*
X332667619Y-233213842D01*
X332667619Y-233213842D02*
X332849047Y-233032413D01*
X332849047Y-233032413D02*
X332970000Y-232971937D01*
X332970000Y-232971937D02*
X333090952Y-232971937D01*
X333030476Y-233274318D02*
X333151428Y-233213842D01*
X333151428Y-233213842D02*
X333272381Y-233092889D01*
X333272381Y-233092889D02*
X333332857Y-232850984D01*
X333332857Y-232850984D02*
X333332857Y-232427651D01*
X333332857Y-232427651D02*
X333272381Y-232185746D01*
X333272381Y-232185746D02*
X333151428Y-232064794D01*
X333151428Y-232064794D02*
X333030476Y-232004318D01*
X333030476Y-232004318D02*
X332788571Y-232004318D01*
X332788571Y-232004318D02*
X332667619Y-232064794D01*
X332667619Y-232064794D02*
X332546666Y-232185746D01*
X332546666Y-232185746D02*
X332486190Y-232427651D01*
X332486190Y-232427651D02*
X332486190Y-232850984D01*
X332486190Y-232850984D02*
X332546666Y-233092889D01*
X332546666Y-233092889D02*
X332667619Y-233213842D01*
X332667619Y-233213842D02*
X332788571Y-233274318D01*
X332788571Y-233274318D02*
X333030476Y-233274318D01*
X332062857Y-232004318D02*
X331276666Y-232004318D01*
X331276666Y-232004318D02*
X331700000Y-232488127D01*
X331700000Y-232488127D02*
X331518571Y-232488127D01*
X331518571Y-232488127D02*
X331397619Y-232548603D01*
X331397619Y-232548603D02*
X331337143Y-232609080D01*
X331337143Y-232609080D02*
X331276666Y-232730032D01*
X331276666Y-232730032D02*
X331276666Y-233032413D01*
X331276666Y-233032413D02*
X331337143Y-233153365D01*
X331337143Y-233153365D02*
X331397619Y-233213842D01*
X331397619Y-233213842D02*
X331518571Y-233274318D01*
X331518571Y-233274318D02*
X331881428Y-233274318D01*
X331881428Y-233274318D02*
X332002381Y-233213842D01*
X332002381Y-233213842D02*
X332062857Y-233153365D01*
X330188095Y-232427651D02*
X330188095Y-233274318D01*
X330490476Y-231943842D02*
X330792857Y-232850984D01*
X330792857Y-232850984D02*
X330006666Y-232850984D01*
D10*
X398204819Y-176561905D02*
X398204819Y-177133333D01*
X399204819Y-176847619D02*
X398204819Y-176847619D01*
X398204819Y-177371429D02*
X398204819Y-177990476D01*
X398204819Y-177990476D02*
X398585771Y-177657143D01*
X398585771Y-177657143D02*
X398585771Y-177800000D01*
X398585771Y-177800000D02*
X398633390Y-177895238D01*
X398633390Y-177895238D02*
X398681009Y-177942857D01*
X398681009Y-177942857D02*
X398776247Y-177990476D01*
X398776247Y-177990476D02*
X399014342Y-177990476D01*
X399014342Y-177990476D02*
X399109580Y-177942857D01*
X399109580Y-177942857D02*
X399157200Y-177895238D01*
X399157200Y-177895238D02*
X399204819Y-177800000D01*
X399204819Y-177800000D02*
X399204819Y-177514286D01*
X399204819Y-177514286D02*
X399157200Y-177419048D01*
X399157200Y-177419048D02*
X399109580Y-177371429D01*
X398204819Y-178847619D02*
X398204819Y-178657143D01*
X398204819Y-178657143D02*
X398252438Y-178561905D01*
X398252438Y-178561905D02*
X398300057Y-178514286D01*
X398300057Y-178514286D02*
X398442914Y-178419048D01*
X398442914Y-178419048D02*
X398633390Y-178371429D01*
X398633390Y-178371429D02*
X399014342Y-178371429D01*
X399014342Y-178371429D02*
X399109580Y-178419048D01*
X399109580Y-178419048D02*
X399157200Y-178466667D01*
X399157200Y-178466667D02*
X399204819Y-178561905D01*
X399204819Y-178561905D02*
X399204819Y-178752381D01*
X399204819Y-178752381D02*
X399157200Y-178847619D01*
X399157200Y-178847619D02*
X399109580Y-178895238D01*
X399109580Y-178895238D02*
X399014342Y-178942857D01*
X399014342Y-178942857D02*
X398776247Y-178942857D01*
X398776247Y-178942857D02*
X398681009Y-178895238D01*
X398681009Y-178895238D02*
X398633390Y-178847619D01*
X398633390Y-178847619D02*
X398585771Y-178752381D01*
X398585771Y-178752381D02*
X398585771Y-178561905D01*
X398585771Y-178561905D02*
X398633390Y-178466667D01*
X398633390Y-178466667D02*
X398681009Y-178419048D01*
X398681009Y-178419048D02*
X398776247Y-178371429D01*
X276019047Y-224654819D02*
X276352380Y-224178628D01*
X276590475Y-224654819D02*
X276590475Y-223654819D01*
X276590475Y-223654819D02*
X276209523Y-223654819D01*
X276209523Y-223654819D02*
X276114285Y-223702438D01*
X276114285Y-223702438D02*
X276066666Y-223750057D01*
X276066666Y-223750057D02*
X276019047Y-223845295D01*
X276019047Y-223845295D02*
X276019047Y-223988152D01*
X276019047Y-223988152D02*
X276066666Y-224083390D01*
X276066666Y-224083390D02*
X276114285Y-224131009D01*
X276114285Y-224131009D02*
X276209523Y-224178628D01*
X276209523Y-224178628D02*
X276590475Y-224178628D01*
X275066666Y-224654819D02*
X275638094Y-224654819D01*
X275352380Y-224654819D02*
X275352380Y-223654819D01*
X275352380Y-223654819D02*
X275447618Y-223797676D01*
X275447618Y-223797676D02*
X275542856Y-223892914D01*
X275542856Y-223892914D02*
X275638094Y-223940533D01*
X274114285Y-224654819D02*
X274685713Y-224654819D01*
X274399999Y-224654819D02*
X274399999Y-223654819D01*
X274399999Y-223654819D02*
X274495237Y-223797676D01*
X274495237Y-223797676D02*
X274590475Y-223892914D01*
X274590475Y-223892914D02*
X274685713Y-223940533D01*
X273495237Y-223654819D02*
X273399999Y-223654819D01*
X273399999Y-223654819D02*
X273304761Y-223702438D01*
X273304761Y-223702438D02*
X273257142Y-223750057D01*
X273257142Y-223750057D02*
X273209523Y-223845295D01*
X273209523Y-223845295D02*
X273161904Y-224035771D01*
X273161904Y-224035771D02*
X273161904Y-224273866D01*
X273161904Y-224273866D02*
X273209523Y-224464342D01*
X273209523Y-224464342D02*
X273257142Y-224559580D01*
X273257142Y-224559580D02*
X273304761Y-224607200D01*
X273304761Y-224607200D02*
X273399999Y-224654819D01*
X273399999Y-224654819D02*
X273495237Y-224654819D01*
X273495237Y-224654819D02*
X273590475Y-224607200D01*
X273590475Y-224607200D02*
X273638094Y-224559580D01*
X273638094Y-224559580D02*
X273685713Y-224464342D01*
X273685713Y-224464342D02*
X273733332Y-224273866D01*
X273733332Y-224273866D02*
X273733332Y-224035771D01*
X273733332Y-224035771D02*
X273685713Y-223845295D01*
X273685713Y-223845295D02*
X273638094Y-223750057D01*
X273638094Y-223750057D02*
X273590475Y-223702438D01*
X273590475Y-223702438D02*
X273495237Y-223654819D01*
X375038094Y-221554819D02*
X374466666Y-221554819D01*
X374752380Y-222554819D02*
X374752380Y-221554819D01*
X374180951Y-221650057D02*
X374133332Y-221602438D01*
X374133332Y-221602438D02*
X374038094Y-221554819D01*
X374038094Y-221554819D02*
X373799999Y-221554819D01*
X373799999Y-221554819D02*
X373704761Y-221602438D01*
X373704761Y-221602438D02*
X373657142Y-221650057D01*
X373657142Y-221650057D02*
X373609523Y-221745295D01*
X373609523Y-221745295D02*
X373609523Y-221840533D01*
X373609523Y-221840533D02*
X373657142Y-221983390D01*
X373657142Y-221983390D02*
X374228570Y-222554819D01*
X374228570Y-222554819D02*
X373609523Y-222554819D01*
X372752380Y-221888152D02*
X372752380Y-222554819D01*
X372990475Y-221507200D02*
X373228570Y-222221485D01*
X373228570Y-222221485D02*
X372609523Y-222221485D01*
X287119047Y-213154819D02*
X287452380Y-212678628D01*
X287690475Y-213154819D02*
X287690475Y-212154819D01*
X287690475Y-212154819D02*
X287309523Y-212154819D01*
X287309523Y-212154819D02*
X287214285Y-212202438D01*
X287214285Y-212202438D02*
X287166666Y-212250057D01*
X287166666Y-212250057D02*
X287119047Y-212345295D01*
X287119047Y-212345295D02*
X287119047Y-212488152D01*
X287119047Y-212488152D02*
X287166666Y-212583390D01*
X287166666Y-212583390D02*
X287214285Y-212631009D01*
X287214285Y-212631009D02*
X287309523Y-212678628D01*
X287309523Y-212678628D02*
X287690475Y-212678628D01*
X286166666Y-213154819D02*
X286738094Y-213154819D01*
X286452380Y-213154819D02*
X286452380Y-212154819D01*
X286452380Y-212154819D02*
X286547618Y-212297676D01*
X286547618Y-212297676D02*
X286642856Y-212392914D01*
X286642856Y-212392914D02*
X286738094Y-212440533D01*
X285214285Y-213154819D02*
X285785713Y-213154819D01*
X285499999Y-213154819D02*
X285499999Y-212154819D01*
X285499999Y-212154819D02*
X285595237Y-212297676D01*
X285595237Y-212297676D02*
X285690475Y-212392914D01*
X285690475Y-212392914D02*
X285785713Y-212440533D01*
X284833332Y-212250057D02*
X284785713Y-212202438D01*
X284785713Y-212202438D02*
X284690475Y-212154819D01*
X284690475Y-212154819D02*
X284452380Y-212154819D01*
X284452380Y-212154819D02*
X284357142Y-212202438D01*
X284357142Y-212202438D02*
X284309523Y-212250057D01*
X284309523Y-212250057D02*
X284261904Y-212345295D01*
X284261904Y-212345295D02*
X284261904Y-212440533D01*
X284261904Y-212440533D02*
X284309523Y-212583390D01*
X284309523Y-212583390D02*
X284880951Y-213154819D01*
X284880951Y-213154819D02*
X284261904Y-213154819D01*
X291519047Y-224554819D02*
X291852380Y-224078628D01*
X292090475Y-224554819D02*
X292090475Y-223554819D01*
X292090475Y-223554819D02*
X291709523Y-223554819D01*
X291709523Y-223554819D02*
X291614285Y-223602438D01*
X291614285Y-223602438D02*
X291566666Y-223650057D01*
X291566666Y-223650057D02*
X291519047Y-223745295D01*
X291519047Y-223745295D02*
X291519047Y-223888152D01*
X291519047Y-223888152D02*
X291566666Y-223983390D01*
X291566666Y-223983390D02*
X291614285Y-224031009D01*
X291614285Y-224031009D02*
X291709523Y-224078628D01*
X291709523Y-224078628D02*
X292090475Y-224078628D01*
X290566666Y-224554819D02*
X291138094Y-224554819D01*
X290852380Y-224554819D02*
X290852380Y-223554819D01*
X290852380Y-223554819D02*
X290947618Y-223697676D01*
X290947618Y-223697676D02*
X291042856Y-223792914D01*
X291042856Y-223792914D02*
X291138094Y-223840533D01*
X289614285Y-224554819D02*
X290185713Y-224554819D01*
X289899999Y-224554819D02*
X289899999Y-223554819D01*
X289899999Y-223554819D02*
X289995237Y-223697676D01*
X289995237Y-223697676D02*
X290090475Y-223792914D01*
X290090475Y-223792914D02*
X290185713Y-223840533D01*
X289280951Y-223554819D02*
X288661904Y-223554819D01*
X288661904Y-223554819D02*
X288995237Y-223935771D01*
X288995237Y-223935771D02*
X288852380Y-223935771D01*
X288852380Y-223935771D02*
X288757142Y-223983390D01*
X288757142Y-223983390D02*
X288709523Y-224031009D01*
X288709523Y-224031009D02*
X288661904Y-224126247D01*
X288661904Y-224126247D02*
X288661904Y-224364342D01*
X288661904Y-224364342D02*
X288709523Y-224459580D01*
X288709523Y-224459580D02*
X288757142Y-224507200D01*
X288757142Y-224507200D02*
X288852380Y-224554819D01*
X288852380Y-224554819D02*
X289138094Y-224554819D01*
X289138094Y-224554819D02*
X289233332Y-224507200D01*
X289233332Y-224507200D02*
X289280951Y-224459580D01*
X374838094Y-186654819D02*
X374266666Y-186654819D01*
X374552380Y-187654819D02*
X374552380Y-186654819D01*
X373409523Y-187654819D02*
X373980951Y-187654819D01*
X373695237Y-187654819D02*
X373695237Y-186654819D01*
X373695237Y-186654819D02*
X373790475Y-186797676D01*
X373790475Y-186797676D02*
X373885713Y-186892914D01*
X373885713Y-186892914D02*
X373980951Y-186940533D01*
X373076189Y-186654819D02*
X372457142Y-186654819D01*
X372457142Y-186654819D02*
X372790475Y-187035771D01*
X372790475Y-187035771D02*
X372647618Y-187035771D01*
X372647618Y-187035771D02*
X372552380Y-187083390D01*
X372552380Y-187083390D02*
X372504761Y-187131009D01*
X372504761Y-187131009D02*
X372457142Y-187226247D01*
X372457142Y-187226247D02*
X372457142Y-187464342D01*
X372457142Y-187464342D02*
X372504761Y-187559580D01*
X372504761Y-187559580D02*
X372552380Y-187607200D01*
X372552380Y-187607200D02*
X372647618Y-187654819D01*
X372647618Y-187654819D02*
X372933332Y-187654819D01*
X372933332Y-187654819D02*
X373028570Y-187607200D01*
X373028570Y-187607200D02*
X373076189Y-187559580D01*
X375038094Y-211354819D02*
X374466666Y-211354819D01*
X374752380Y-212354819D02*
X374752380Y-211354819D01*
X374180951Y-211450057D02*
X374133332Y-211402438D01*
X374133332Y-211402438D02*
X374038094Y-211354819D01*
X374038094Y-211354819D02*
X373799999Y-211354819D01*
X373799999Y-211354819D02*
X373704761Y-211402438D01*
X373704761Y-211402438D02*
X373657142Y-211450057D01*
X373657142Y-211450057D02*
X373609523Y-211545295D01*
X373609523Y-211545295D02*
X373609523Y-211640533D01*
X373609523Y-211640533D02*
X373657142Y-211783390D01*
X373657142Y-211783390D02*
X374228570Y-212354819D01*
X374228570Y-212354819D02*
X373609523Y-212354819D01*
X373038094Y-211783390D02*
X373133332Y-211735771D01*
X373133332Y-211735771D02*
X373180951Y-211688152D01*
X373180951Y-211688152D02*
X373228570Y-211592914D01*
X373228570Y-211592914D02*
X373228570Y-211545295D01*
X373228570Y-211545295D02*
X373180951Y-211450057D01*
X373180951Y-211450057D02*
X373133332Y-211402438D01*
X373133332Y-211402438D02*
X373038094Y-211354819D01*
X373038094Y-211354819D02*
X372847618Y-211354819D01*
X372847618Y-211354819D02*
X372752380Y-211402438D01*
X372752380Y-211402438D02*
X372704761Y-211450057D01*
X372704761Y-211450057D02*
X372657142Y-211545295D01*
X372657142Y-211545295D02*
X372657142Y-211592914D01*
X372657142Y-211592914D02*
X372704761Y-211688152D01*
X372704761Y-211688152D02*
X372752380Y-211735771D01*
X372752380Y-211735771D02*
X372847618Y-211783390D01*
X372847618Y-211783390D02*
X373038094Y-211783390D01*
X373038094Y-211783390D02*
X373133332Y-211831009D01*
X373133332Y-211831009D02*
X373180951Y-211878628D01*
X373180951Y-211878628D02*
X373228570Y-211973866D01*
X373228570Y-211973866D02*
X373228570Y-212164342D01*
X373228570Y-212164342D02*
X373180951Y-212259580D01*
X373180951Y-212259580D02*
X373133332Y-212307200D01*
X373133332Y-212307200D02*
X373038094Y-212354819D01*
X373038094Y-212354819D02*
X372847618Y-212354819D01*
X372847618Y-212354819D02*
X372752380Y-212307200D01*
X372752380Y-212307200D02*
X372704761Y-212259580D01*
X372704761Y-212259580D02*
X372657142Y-212164342D01*
X372657142Y-212164342D02*
X372657142Y-211973866D01*
X372657142Y-211973866D02*
X372704761Y-211878628D01*
X372704761Y-211878628D02*
X372752380Y-211831009D01*
X372752380Y-211831009D02*
X372847618Y-211783390D01*
X283650057Y-218528571D02*
X283602438Y-218433333D01*
X283602438Y-218433333D02*
X283507200Y-218338095D01*
X283507200Y-218338095D02*
X283364342Y-218195238D01*
X283364342Y-218195238D02*
X283316723Y-218100000D01*
X283316723Y-218100000D02*
X283316723Y-218004762D01*
X283554819Y-218052381D02*
X283507200Y-217957143D01*
X283507200Y-217957143D02*
X283411961Y-217861905D01*
X283411961Y-217861905D02*
X283221485Y-217814286D01*
X283221485Y-217814286D02*
X282888152Y-217814286D01*
X282888152Y-217814286D02*
X282697676Y-217861905D01*
X282697676Y-217861905D02*
X282602438Y-217957143D01*
X282602438Y-217957143D02*
X282554819Y-218052381D01*
X282554819Y-218052381D02*
X282554819Y-218242857D01*
X282554819Y-218242857D02*
X282602438Y-218338095D01*
X282602438Y-218338095D02*
X282697676Y-218433333D01*
X282697676Y-218433333D02*
X282888152Y-218480952D01*
X282888152Y-218480952D02*
X283221485Y-218480952D01*
X283221485Y-218480952D02*
X283411961Y-218433333D01*
X283411961Y-218433333D02*
X283507200Y-218338095D01*
X283507200Y-218338095D02*
X283554819Y-218242857D01*
X283554819Y-218242857D02*
X283554819Y-218052381D01*
X282650057Y-218861905D02*
X282602438Y-218909524D01*
X282602438Y-218909524D02*
X282554819Y-219004762D01*
X282554819Y-219004762D02*
X282554819Y-219242857D01*
X282554819Y-219242857D02*
X282602438Y-219338095D01*
X282602438Y-219338095D02*
X282650057Y-219385714D01*
X282650057Y-219385714D02*
X282745295Y-219433333D01*
X282745295Y-219433333D02*
X282840533Y-219433333D01*
X282840533Y-219433333D02*
X282983390Y-219385714D01*
X282983390Y-219385714D02*
X283554819Y-218814286D01*
X283554819Y-218814286D02*
X283554819Y-219433333D01*
X283554819Y-219909524D02*
X283554819Y-220100000D01*
X283554819Y-220100000D02*
X283507200Y-220195238D01*
X283507200Y-220195238D02*
X283459580Y-220242857D01*
X283459580Y-220242857D02*
X283316723Y-220338095D01*
X283316723Y-220338095D02*
X283126247Y-220385714D01*
X283126247Y-220385714D02*
X282745295Y-220385714D01*
X282745295Y-220385714D02*
X282650057Y-220338095D01*
X282650057Y-220338095D02*
X282602438Y-220290476D01*
X282602438Y-220290476D02*
X282554819Y-220195238D01*
X282554819Y-220195238D02*
X282554819Y-220004762D01*
X282554819Y-220004762D02*
X282602438Y-219909524D01*
X282602438Y-219909524D02*
X282650057Y-219861905D01*
X282650057Y-219861905D02*
X282745295Y-219814286D01*
X282745295Y-219814286D02*
X282983390Y-219814286D01*
X282983390Y-219814286D02*
X283078628Y-219861905D01*
X283078628Y-219861905D02*
X283126247Y-219909524D01*
X283126247Y-219909524D02*
X283173866Y-220004762D01*
X283173866Y-220004762D02*
X283173866Y-220195238D01*
X283173866Y-220195238D02*
X283126247Y-220290476D01*
X283126247Y-220290476D02*
X283078628Y-220338095D01*
X283078628Y-220338095D02*
X282983390Y-220385714D01*
X374738094Y-191054819D02*
X374166666Y-191054819D01*
X374452380Y-192054819D02*
X374452380Y-191054819D01*
X373928570Y-191054819D02*
X373309523Y-191054819D01*
X373309523Y-191054819D02*
X373642856Y-191435771D01*
X373642856Y-191435771D02*
X373499999Y-191435771D01*
X373499999Y-191435771D02*
X373404761Y-191483390D01*
X373404761Y-191483390D02*
X373357142Y-191531009D01*
X373357142Y-191531009D02*
X373309523Y-191626247D01*
X373309523Y-191626247D02*
X373309523Y-191864342D01*
X373309523Y-191864342D02*
X373357142Y-191959580D01*
X373357142Y-191959580D02*
X373404761Y-192007200D01*
X373404761Y-192007200D02*
X373499999Y-192054819D01*
X373499999Y-192054819D02*
X373785713Y-192054819D01*
X373785713Y-192054819D02*
X373880951Y-192007200D01*
X373880951Y-192007200D02*
X373928570Y-191959580D01*
X372357142Y-192054819D02*
X372928570Y-192054819D01*
X372642856Y-192054819D02*
X372642856Y-191054819D01*
X372642856Y-191054819D02*
X372738094Y-191197676D01*
X372738094Y-191197676D02*
X372833332Y-191292914D01*
X372833332Y-191292914D02*
X372928570Y-191340533D01*
X289642857Y-216359580D02*
X289690476Y-216407200D01*
X289690476Y-216407200D02*
X289833333Y-216454819D01*
X289833333Y-216454819D02*
X289928571Y-216454819D01*
X289928571Y-216454819D02*
X290071428Y-216407200D01*
X290071428Y-216407200D02*
X290166666Y-216311961D01*
X290166666Y-216311961D02*
X290214285Y-216216723D01*
X290214285Y-216216723D02*
X290261904Y-216026247D01*
X290261904Y-216026247D02*
X290261904Y-215883390D01*
X290261904Y-215883390D02*
X290214285Y-215692914D01*
X290214285Y-215692914D02*
X290166666Y-215597676D01*
X290166666Y-215597676D02*
X290071428Y-215502438D01*
X290071428Y-215502438D02*
X289928571Y-215454819D01*
X289928571Y-215454819D02*
X289833333Y-215454819D01*
X289833333Y-215454819D02*
X289690476Y-215502438D01*
X289690476Y-215502438D02*
X289642857Y-215550057D01*
X289309523Y-215454819D02*
X288690476Y-215454819D01*
X288690476Y-215454819D02*
X289023809Y-215835771D01*
X289023809Y-215835771D02*
X288880952Y-215835771D01*
X288880952Y-215835771D02*
X288785714Y-215883390D01*
X288785714Y-215883390D02*
X288738095Y-215931009D01*
X288738095Y-215931009D02*
X288690476Y-216026247D01*
X288690476Y-216026247D02*
X288690476Y-216264342D01*
X288690476Y-216264342D02*
X288738095Y-216359580D01*
X288738095Y-216359580D02*
X288785714Y-216407200D01*
X288785714Y-216407200D02*
X288880952Y-216454819D01*
X288880952Y-216454819D02*
X289166666Y-216454819D01*
X289166666Y-216454819D02*
X289261904Y-216407200D01*
X289261904Y-216407200D02*
X289309523Y-216359580D01*
X287785714Y-215454819D02*
X288261904Y-215454819D01*
X288261904Y-215454819D02*
X288309523Y-215931009D01*
X288309523Y-215931009D02*
X288261904Y-215883390D01*
X288261904Y-215883390D02*
X288166666Y-215835771D01*
X288166666Y-215835771D02*
X287928571Y-215835771D01*
X287928571Y-215835771D02*
X287833333Y-215883390D01*
X287833333Y-215883390D02*
X287785714Y-215931009D01*
X287785714Y-215931009D02*
X287738095Y-216026247D01*
X287738095Y-216026247D02*
X287738095Y-216264342D01*
X287738095Y-216264342D02*
X287785714Y-216359580D01*
X287785714Y-216359580D02*
X287833333Y-216407200D01*
X287833333Y-216407200D02*
X287928571Y-216454819D01*
X287928571Y-216454819D02*
X288166666Y-216454819D01*
X288166666Y-216454819D02*
X288261904Y-216407200D01*
X288261904Y-216407200D02*
X288309523Y-216359580D01*
X428454819Y-236861905D02*
X428454819Y-237433333D01*
X429454819Y-237147619D02*
X428454819Y-237147619D01*
X429454819Y-238290476D02*
X429454819Y-237719048D01*
X429454819Y-238004762D02*
X428454819Y-238004762D01*
X428454819Y-238004762D02*
X428597676Y-237909524D01*
X428597676Y-237909524D02*
X428692914Y-237814286D01*
X428692914Y-237814286D02*
X428740533Y-237719048D01*
X428454819Y-238623810D02*
X428454819Y-239290476D01*
X428454819Y-239290476D02*
X429454819Y-238861905D01*
X361338094Y-214154819D02*
X360766666Y-214154819D01*
X361052380Y-215154819D02*
X361052380Y-214154819D01*
X360528570Y-214154819D02*
X359909523Y-214154819D01*
X359909523Y-214154819D02*
X360242856Y-214535771D01*
X360242856Y-214535771D02*
X360099999Y-214535771D01*
X360099999Y-214535771D02*
X360004761Y-214583390D01*
X360004761Y-214583390D02*
X359957142Y-214631009D01*
X359957142Y-214631009D02*
X359909523Y-214726247D01*
X359909523Y-214726247D02*
X359909523Y-214964342D01*
X359909523Y-214964342D02*
X359957142Y-215059580D01*
X359957142Y-215059580D02*
X360004761Y-215107200D01*
X360004761Y-215107200D02*
X360099999Y-215154819D01*
X360099999Y-215154819D02*
X360385713Y-215154819D01*
X360385713Y-215154819D02*
X360480951Y-215107200D01*
X360480951Y-215107200D02*
X360528570Y-215059580D01*
X359052380Y-214488152D02*
X359052380Y-215154819D01*
X359290475Y-214107200D02*
X359528570Y-214821485D01*
X359528570Y-214821485D02*
X358909523Y-214821485D01*
X329519047Y-219454819D02*
X329852380Y-218978628D01*
X330090475Y-219454819D02*
X330090475Y-218454819D01*
X330090475Y-218454819D02*
X329709523Y-218454819D01*
X329709523Y-218454819D02*
X329614285Y-218502438D01*
X329614285Y-218502438D02*
X329566666Y-218550057D01*
X329566666Y-218550057D02*
X329519047Y-218645295D01*
X329519047Y-218645295D02*
X329519047Y-218788152D01*
X329519047Y-218788152D02*
X329566666Y-218883390D01*
X329566666Y-218883390D02*
X329614285Y-218931009D01*
X329614285Y-218931009D02*
X329709523Y-218978628D01*
X329709523Y-218978628D02*
X330090475Y-218978628D01*
X328566666Y-219454819D02*
X329138094Y-219454819D01*
X328852380Y-219454819D02*
X328852380Y-218454819D01*
X328852380Y-218454819D02*
X328947618Y-218597676D01*
X328947618Y-218597676D02*
X329042856Y-218692914D01*
X329042856Y-218692914D02*
X329138094Y-218740533D01*
X328185713Y-218550057D02*
X328138094Y-218502438D01*
X328138094Y-218502438D02*
X328042856Y-218454819D01*
X328042856Y-218454819D02*
X327804761Y-218454819D01*
X327804761Y-218454819D02*
X327709523Y-218502438D01*
X327709523Y-218502438D02*
X327661904Y-218550057D01*
X327661904Y-218550057D02*
X327614285Y-218645295D01*
X327614285Y-218645295D02*
X327614285Y-218740533D01*
X327614285Y-218740533D02*
X327661904Y-218883390D01*
X327661904Y-218883390D02*
X328233332Y-219454819D01*
X328233332Y-219454819D02*
X327614285Y-219454819D01*
X326995237Y-218454819D02*
X326899999Y-218454819D01*
X326899999Y-218454819D02*
X326804761Y-218502438D01*
X326804761Y-218502438D02*
X326757142Y-218550057D01*
X326757142Y-218550057D02*
X326709523Y-218645295D01*
X326709523Y-218645295D02*
X326661904Y-218835771D01*
X326661904Y-218835771D02*
X326661904Y-219073866D01*
X326661904Y-219073866D02*
X326709523Y-219264342D01*
X326709523Y-219264342D02*
X326757142Y-219359580D01*
X326757142Y-219359580D02*
X326804761Y-219407200D01*
X326804761Y-219407200D02*
X326899999Y-219454819D01*
X326899999Y-219454819D02*
X326995237Y-219454819D01*
X326995237Y-219454819D02*
X327090475Y-219407200D01*
X327090475Y-219407200D02*
X327138094Y-219359580D01*
X327138094Y-219359580D02*
X327185713Y-219264342D01*
X327185713Y-219264342D02*
X327233332Y-219073866D01*
X327233332Y-219073866D02*
X327233332Y-218835771D01*
X327233332Y-218835771D02*
X327185713Y-218645295D01*
X327185713Y-218645295D02*
X327138094Y-218550057D01*
X327138094Y-218550057D02*
X327090475Y-218502438D01*
X327090475Y-218502438D02*
X326995237Y-218454819D01*
X340204819Y-266138095D02*
X340204819Y-266709523D01*
X341204819Y-266423809D02*
X340204819Y-266423809D01*
X340300057Y-266995238D02*
X340252438Y-267042857D01*
X340252438Y-267042857D02*
X340204819Y-267138095D01*
X340204819Y-267138095D02*
X340204819Y-267376190D01*
X340204819Y-267376190D02*
X340252438Y-267471428D01*
X340252438Y-267471428D02*
X340300057Y-267519047D01*
X340300057Y-267519047D02*
X340395295Y-267566666D01*
X340395295Y-267566666D02*
X340490533Y-267566666D01*
X340490533Y-267566666D02*
X340633390Y-267519047D01*
X340633390Y-267519047D02*
X341204819Y-266947619D01*
X341204819Y-266947619D02*
X341204819Y-267566666D01*
X405854819Y-176661905D02*
X405854819Y-177233333D01*
X406854819Y-176947619D02*
X405854819Y-176947619D01*
X406854819Y-178090476D02*
X406854819Y-177519048D01*
X406854819Y-177804762D02*
X405854819Y-177804762D01*
X405854819Y-177804762D02*
X405997676Y-177709524D01*
X405997676Y-177709524D02*
X406092914Y-177614286D01*
X406092914Y-177614286D02*
X406140533Y-177519048D01*
X406854819Y-179042857D02*
X406854819Y-178471429D01*
X406854819Y-178757143D02*
X405854819Y-178757143D01*
X405854819Y-178757143D02*
X405997676Y-178661905D01*
X405997676Y-178661905D02*
X406092914Y-178566667D01*
X406092914Y-178566667D02*
X406140533Y-178471429D01*
X328950057Y-215928571D02*
X328902438Y-215833333D01*
X328902438Y-215833333D02*
X328807200Y-215738095D01*
X328807200Y-215738095D02*
X328664342Y-215595238D01*
X328664342Y-215595238D02*
X328616723Y-215500000D01*
X328616723Y-215500000D02*
X328616723Y-215404762D01*
X328854819Y-215452381D02*
X328807200Y-215357143D01*
X328807200Y-215357143D02*
X328711961Y-215261905D01*
X328711961Y-215261905D02*
X328521485Y-215214286D01*
X328521485Y-215214286D02*
X328188152Y-215214286D01*
X328188152Y-215214286D02*
X327997676Y-215261905D01*
X327997676Y-215261905D02*
X327902438Y-215357143D01*
X327902438Y-215357143D02*
X327854819Y-215452381D01*
X327854819Y-215452381D02*
X327854819Y-215642857D01*
X327854819Y-215642857D02*
X327902438Y-215738095D01*
X327902438Y-215738095D02*
X327997676Y-215833333D01*
X327997676Y-215833333D02*
X328188152Y-215880952D01*
X328188152Y-215880952D02*
X328521485Y-215880952D01*
X328521485Y-215880952D02*
X328711961Y-215833333D01*
X328711961Y-215833333D02*
X328807200Y-215738095D01*
X328807200Y-215738095D02*
X328854819Y-215642857D01*
X328854819Y-215642857D02*
X328854819Y-215452381D01*
X327854819Y-216214286D02*
X327854819Y-216833333D01*
X327854819Y-216833333D02*
X328235771Y-216500000D01*
X328235771Y-216500000D02*
X328235771Y-216642857D01*
X328235771Y-216642857D02*
X328283390Y-216738095D01*
X328283390Y-216738095D02*
X328331009Y-216785714D01*
X328331009Y-216785714D02*
X328426247Y-216833333D01*
X328426247Y-216833333D02*
X328664342Y-216833333D01*
X328664342Y-216833333D02*
X328759580Y-216785714D01*
X328759580Y-216785714D02*
X328807200Y-216738095D01*
X328807200Y-216738095D02*
X328854819Y-216642857D01*
X328854819Y-216642857D02*
X328854819Y-216357143D01*
X328854819Y-216357143D02*
X328807200Y-216261905D01*
X328807200Y-216261905D02*
X328759580Y-216214286D01*
X327854819Y-217166667D02*
X327854819Y-217785714D01*
X327854819Y-217785714D02*
X328235771Y-217452381D01*
X328235771Y-217452381D02*
X328235771Y-217595238D01*
X328235771Y-217595238D02*
X328283390Y-217690476D01*
X328283390Y-217690476D02*
X328331009Y-217738095D01*
X328331009Y-217738095D02*
X328426247Y-217785714D01*
X328426247Y-217785714D02*
X328664342Y-217785714D01*
X328664342Y-217785714D02*
X328759580Y-217738095D01*
X328759580Y-217738095D02*
X328807200Y-217690476D01*
X328807200Y-217690476D02*
X328854819Y-217595238D01*
X328854819Y-217595238D02*
X328854819Y-217309524D01*
X328854819Y-217309524D02*
X328807200Y-217214286D01*
X328807200Y-217214286D02*
X328759580Y-217166667D01*
X275450057Y-218428571D02*
X275402438Y-218333333D01*
X275402438Y-218333333D02*
X275307200Y-218238095D01*
X275307200Y-218238095D02*
X275164342Y-218095238D01*
X275164342Y-218095238D02*
X275116723Y-218000000D01*
X275116723Y-218000000D02*
X275116723Y-217904762D01*
X275354819Y-217952381D02*
X275307200Y-217857143D01*
X275307200Y-217857143D02*
X275211961Y-217761905D01*
X275211961Y-217761905D02*
X275021485Y-217714286D01*
X275021485Y-217714286D02*
X274688152Y-217714286D01*
X274688152Y-217714286D02*
X274497676Y-217761905D01*
X274497676Y-217761905D02*
X274402438Y-217857143D01*
X274402438Y-217857143D02*
X274354819Y-217952381D01*
X274354819Y-217952381D02*
X274354819Y-218142857D01*
X274354819Y-218142857D02*
X274402438Y-218238095D01*
X274402438Y-218238095D02*
X274497676Y-218333333D01*
X274497676Y-218333333D02*
X274688152Y-218380952D01*
X274688152Y-218380952D02*
X275021485Y-218380952D01*
X275021485Y-218380952D02*
X275211961Y-218333333D01*
X275211961Y-218333333D02*
X275307200Y-218238095D01*
X275307200Y-218238095D02*
X275354819Y-218142857D01*
X275354819Y-218142857D02*
X275354819Y-217952381D01*
X274450057Y-218761905D02*
X274402438Y-218809524D01*
X274402438Y-218809524D02*
X274354819Y-218904762D01*
X274354819Y-218904762D02*
X274354819Y-219142857D01*
X274354819Y-219142857D02*
X274402438Y-219238095D01*
X274402438Y-219238095D02*
X274450057Y-219285714D01*
X274450057Y-219285714D02*
X274545295Y-219333333D01*
X274545295Y-219333333D02*
X274640533Y-219333333D01*
X274640533Y-219333333D02*
X274783390Y-219285714D01*
X274783390Y-219285714D02*
X275354819Y-218714286D01*
X275354819Y-218714286D02*
X275354819Y-219333333D01*
X274783390Y-219904762D02*
X274735771Y-219809524D01*
X274735771Y-219809524D02*
X274688152Y-219761905D01*
X274688152Y-219761905D02*
X274592914Y-219714286D01*
X274592914Y-219714286D02*
X274545295Y-219714286D01*
X274545295Y-219714286D02*
X274450057Y-219761905D01*
X274450057Y-219761905D02*
X274402438Y-219809524D01*
X274402438Y-219809524D02*
X274354819Y-219904762D01*
X274354819Y-219904762D02*
X274354819Y-220095238D01*
X274354819Y-220095238D02*
X274402438Y-220190476D01*
X274402438Y-220190476D02*
X274450057Y-220238095D01*
X274450057Y-220238095D02*
X274545295Y-220285714D01*
X274545295Y-220285714D02*
X274592914Y-220285714D01*
X274592914Y-220285714D02*
X274688152Y-220238095D01*
X274688152Y-220238095D02*
X274735771Y-220190476D01*
X274735771Y-220190476D02*
X274783390Y-220095238D01*
X274783390Y-220095238D02*
X274783390Y-219904762D01*
X274783390Y-219904762D02*
X274831009Y-219809524D01*
X274831009Y-219809524D02*
X274878628Y-219761905D01*
X274878628Y-219761905D02*
X274973866Y-219714286D01*
X274973866Y-219714286D02*
X275164342Y-219714286D01*
X275164342Y-219714286D02*
X275259580Y-219761905D01*
X275259580Y-219761905D02*
X275307200Y-219809524D01*
X275307200Y-219809524D02*
X275354819Y-219904762D01*
X275354819Y-219904762D02*
X275354819Y-220095238D01*
X275354819Y-220095238D02*
X275307200Y-220190476D01*
X275307200Y-220190476D02*
X275259580Y-220238095D01*
X275259580Y-220238095D02*
X275164342Y-220285714D01*
X275164342Y-220285714D02*
X274973866Y-220285714D01*
X274973866Y-220285714D02*
X274878628Y-220238095D01*
X274878628Y-220238095D02*
X274831009Y-220190476D01*
X274831009Y-220190476D02*
X274783390Y-220095238D01*
D12*
X287225714Y-235995270D02*
X287346666Y-235934794D01*
X287346666Y-235934794D02*
X287467619Y-235813842D01*
X287467619Y-235813842D02*
X287649047Y-235632413D01*
X287649047Y-235632413D02*
X287770000Y-235571937D01*
X287770000Y-235571937D02*
X287890952Y-235571937D01*
X287830476Y-235874318D02*
X287951428Y-235813842D01*
X287951428Y-235813842D02*
X288072381Y-235692889D01*
X288072381Y-235692889D02*
X288132857Y-235450984D01*
X288132857Y-235450984D02*
X288132857Y-235027651D01*
X288132857Y-235027651D02*
X288072381Y-234785746D01*
X288072381Y-234785746D02*
X287951428Y-234664794D01*
X287951428Y-234664794D02*
X287830476Y-234604318D01*
X287830476Y-234604318D02*
X287588571Y-234604318D01*
X287588571Y-234604318D02*
X287467619Y-234664794D01*
X287467619Y-234664794D02*
X287346666Y-234785746D01*
X287346666Y-234785746D02*
X287286190Y-235027651D01*
X287286190Y-235027651D02*
X287286190Y-235450984D01*
X287286190Y-235450984D02*
X287346666Y-235692889D01*
X287346666Y-235692889D02*
X287467619Y-235813842D01*
X287467619Y-235813842D02*
X287588571Y-235874318D01*
X287588571Y-235874318D02*
X287830476Y-235874318D01*
X286862857Y-234604318D02*
X286076666Y-234604318D01*
X286076666Y-234604318D02*
X286500000Y-235088127D01*
X286500000Y-235088127D02*
X286318571Y-235088127D01*
X286318571Y-235088127D02*
X286197619Y-235148603D01*
X286197619Y-235148603D02*
X286137143Y-235209080D01*
X286137143Y-235209080D02*
X286076666Y-235330032D01*
X286076666Y-235330032D02*
X286076666Y-235632413D01*
X286076666Y-235632413D02*
X286137143Y-235753365D01*
X286137143Y-235753365D02*
X286197619Y-235813842D01*
X286197619Y-235813842D02*
X286318571Y-235874318D01*
X286318571Y-235874318D02*
X286681428Y-235874318D01*
X286681428Y-235874318D02*
X286802381Y-235813842D01*
X286802381Y-235813842D02*
X286862857Y-235753365D01*
X285290476Y-234604318D02*
X285169523Y-234604318D01*
X285169523Y-234604318D02*
X285048571Y-234664794D01*
X285048571Y-234664794D02*
X284988095Y-234725270D01*
X284988095Y-234725270D02*
X284927619Y-234846222D01*
X284927619Y-234846222D02*
X284867142Y-235088127D01*
X284867142Y-235088127D02*
X284867142Y-235390508D01*
X284867142Y-235390508D02*
X284927619Y-235632413D01*
X284927619Y-235632413D02*
X284988095Y-235753365D01*
X284988095Y-235753365D02*
X285048571Y-235813842D01*
X285048571Y-235813842D02*
X285169523Y-235874318D01*
X285169523Y-235874318D02*
X285290476Y-235874318D01*
X285290476Y-235874318D02*
X285411428Y-235813842D01*
X285411428Y-235813842D02*
X285471904Y-235753365D01*
X285471904Y-235753365D02*
X285532381Y-235632413D01*
X285532381Y-235632413D02*
X285592857Y-235390508D01*
X285592857Y-235390508D02*
X285592857Y-235088127D01*
X285592857Y-235088127D02*
X285532381Y-234846222D01*
X285532381Y-234846222D02*
X285471904Y-234725270D01*
X285471904Y-234725270D02*
X285411428Y-234664794D01*
X285411428Y-234664794D02*
X285290476Y-234604318D01*
D10*
X370204819Y-236661905D02*
X370204819Y-237233333D01*
X371204819Y-236947619D02*
X370204819Y-236947619D01*
X370300057Y-237519048D02*
X370252438Y-237566667D01*
X370252438Y-237566667D02*
X370204819Y-237661905D01*
X370204819Y-237661905D02*
X370204819Y-237900000D01*
X370204819Y-237900000D02*
X370252438Y-237995238D01*
X370252438Y-237995238D02*
X370300057Y-238042857D01*
X370300057Y-238042857D02*
X370395295Y-238090476D01*
X370395295Y-238090476D02*
X370490533Y-238090476D01*
X370490533Y-238090476D02*
X370633390Y-238042857D01*
X370633390Y-238042857D02*
X371204819Y-237471429D01*
X371204819Y-237471429D02*
X371204819Y-238090476D01*
X370204819Y-238423810D02*
X370204819Y-239042857D01*
X370204819Y-239042857D02*
X370585771Y-238709524D01*
X370585771Y-238709524D02*
X370585771Y-238852381D01*
X370585771Y-238852381D02*
X370633390Y-238947619D01*
X370633390Y-238947619D02*
X370681009Y-238995238D01*
X370681009Y-238995238D02*
X370776247Y-239042857D01*
X370776247Y-239042857D02*
X371014342Y-239042857D01*
X371014342Y-239042857D02*
X371109580Y-238995238D01*
X371109580Y-238995238D02*
X371157200Y-238947619D01*
X371157200Y-238947619D02*
X371204819Y-238852381D01*
X371204819Y-238852381D02*
X371204819Y-238566667D01*
X371204819Y-238566667D02*
X371157200Y-238471429D01*
X371157200Y-238471429D02*
X371109580Y-238423810D01*
X354511904Y-257254819D02*
X353940476Y-257254819D01*
X354226190Y-258254819D02*
X354226190Y-257254819D01*
X353178571Y-257254819D02*
X353369047Y-257254819D01*
X353369047Y-257254819D02*
X353464285Y-257302438D01*
X353464285Y-257302438D02*
X353511904Y-257350057D01*
X353511904Y-257350057D02*
X353607142Y-257492914D01*
X353607142Y-257492914D02*
X353654761Y-257683390D01*
X353654761Y-257683390D02*
X353654761Y-258064342D01*
X353654761Y-258064342D02*
X353607142Y-258159580D01*
X353607142Y-258159580D02*
X353559523Y-258207200D01*
X353559523Y-258207200D02*
X353464285Y-258254819D01*
X353464285Y-258254819D02*
X353273809Y-258254819D01*
X353273809Y-258254819D02*
X353178571Y-258207200D01*
X353178571Y-258207200D02*
X353130952Y-258159580D01*
X353130952Y-258159580D02*
X353083333Y-258064342D01*
X353083333Y-258064342D02*
X353083333Y-257826247D01*
X353083333Y-257826247D02*
X353130952Y-257731009D01*
X353130952Y-257731009D02*
X353178571Y-257683390D01*
X353178571Y-257683390D02*
X353273809Y-257635771D01*
X353273809Y-257635771D02*
X353464285Y-257635771D01*
X353464285Y-257635771D02*
X353559523Y-257683390D01*
X353559523Y-257683390D02*
X353607142Y-257731009D01*
X353607142Y-257731009D02*
X353654761Y-257826247D01*
X377704819Y-236661905D02*
X377704819Y-237233333D01*
X378704819Y-236947619D02*
X377704819Y-236947619D01*
X377800057Y-237519048D02*
X377752438Y-237566667D01*
X377752438Y-237566667D02*
X377704819Y-237661905D01*
X377704819Y-237661905D02*
X377704819Y-237900000D01*
X377704819Y-237900000D02*
X377752438Y-237995238D01*
X377752438Y-237995238D02*
X377800057Y-238042857D01*
X377800057Y-238042857D02*
X377895295Y-238090476D01*
X377895295Y-238090476D02*
X377990533Y-238090476D01*
X377990533Y-238090476D02*
X378133390Y-238042857D01*
X378133390Y-238042857D02*
X378704819Y-237471429D01*
X378704819Y-237471429D02*
X378704819Y-238090476D01*
X377704819Y-238709524D02*
X377704819Y-238804762D01*
X377704819Y-238804762D02*
X377752438Y-238900000D01*
X377752438Y-238900000D02*
X377800057Y-238947619D01*
X377800057Y-238947619D02*
X377895295Y-238995238D01*
X377895295Y-238995238D02*
X378085771Y-239042857D01*
X378085771Y-239042857D02*
X378323866Y-239042857D01*
X378323866Y-239042857D02*
X378514342Y-238995238D01*
X378514342Y-238995238D02*
X378609580Y-238947619D01*
X378609580Y-238947619D02*
X378657200Y-238900000D01*
X378657200Y-238900000D02*
X378704819Y-238804762D01*
X378704819Y-238804762D02*
X378704819Y-238709524D01*
X378704819Y-238709524D02*
X378657200Y-238614286D01*
X378657200Y-238614286D02*
X378609580Y-238566667D01*
X378609580Y-238566667D02*
X378514342Y-238519048D01*
X378514342Y-238519048D02*
X378323866Y-238471429D01*
X378323866Y-238471429D02*
X378085771Y-238471429D01*
X378085771Y-238471429D02*
X377895295Y-238519048D01*
X377895295Y-238519048D02*
X377800057Y-238566667D01*
X377800057Y-238566667D02*
X377752438Y-238614286D01*
X377752438Y-238614286D02*
X377704819Y-238709524D01*
X374738094Y-198854819D02*
X374166666Y-198854819D01*
X374452380Y-199854819D02*
X374452380Y-198854819D01*
X373880951Y-198950057D02*
X373833332Y-198902438D01*
X373833332Y-198902438D02*
X373738094Y-198854819D01*
X373738094Y-198854819D02*
X373499999Y-198854819D01*
X373499999Y-198854819D02*
X373404761Y-198902438D01*
X373404761Y-198902438D02*
X373357142Y-198950057D01*
X373357142Y-198950057D02*
X373309523Y-199045295D01*
X373309523Y-199045295D02*
X373309523Y-199140533D01*
X373309523Y-199140533D02*
X373357142Y-199283390D01*
X373357142Y-199283390D02*
X373928570Y-199854819D01*
X373928570Y-199854819D02*
X373309523Y-199854819D01*
X372833332Y-199854819D02*
X372642856Y-199854819D01*
X372642856Y-199854819D02*
X372547618Y-199807200D01*
X372547618Y-199807200D02*
X372499999Y-199759580D01*
X372499999Y-199759580D02*
X372404761Y-199616723D01*
X372404761Y-199616723D02*
X372357142Y-199426247D01*
X372357142Y-199426247D02*
X372357142Y-199045295D01*
X372357142Y-199045295D02*
X372404761Y-198950057D01*
X372404761Y-198950057D02*
X372452380Y-198902438D01*
X372452380Y-198902438D02*
X372547618Y-198854819D01*
X372547618Y-198854819D02*
X372738094Y-198854819D01*
X372738094Y-198854819D02*
X372833332Y-198902438D01*
X372833332Y-198902438D02*
X372880951Y-198950057D01*
X372880951Y-198950057D02*
X372928570Y-199045295D01*
X372928570Y-199045295D02*
X372928570Y-199283390D01*
X372928570Y-199283390D02*
X372880951Y-199378628D01*
X372880951Y-199378628D02*
X372833332Y-199426247D01*
X372833332Y-199426247D02*
X372738094Y-199473866D01*
X372738094Y-199473866D02*
X372547618Y-199473866D01*
X372547618Y-199473866D02*
X372452380Y-199426247D01*
X372452380Y-199426247D02*
X372404761Y-199378628D01*
X372404761Y-199378628D02*
X372357142Y-199283390D01*
X375038094Y-214154819D02*
X374466666Y-214154819D01*
X374752380Y-215154819D02*
X374752380Y-214154819D01*
X374180951Y-214250057D02*
X374133332Y-214202438D01*
X374133332Y-214202438D02*
X374038094Y-214154819D01*
X374038094Y-214154819D02*
X373799999Y-214154819D01*
X373799999Y-214154819D02*
X373704761Y-214202438D01*
X373704761Y-214202438D02*
X373657142Y-214250057D01*
X373657142Y-214250057D02*
X373609523Y-214345295D01*
X373609523Y-214345295D02*
X373609523Y-214440533D01*
X373609523Y-214440533D02*
X373657142Y-214583390D01*
X373657142Y-214583390D02*
X374228570Y-215154819D01*
X374228570Y-215154819D02*
X373609523Y-215154819D01*
X373276189Y-214154819D02*
X372609523Y-214154819D01*
X372609523Y-214154819D02*
X373038094Y-215154819D01*
X375038094Y-219154819D02*
X374466666Y-219154819D01*
X374752380Y-220154819D02*
X374752380Y-219154819D01*
X374180951Y-219250057D02*
X374133332Y-219202438D01*
X374133332Y-219202438D02*
X374038094Y-219154819D01*
X374038094Y-219154819D02*
X373799999Y-219154819D01*
X373799999Y-219154819D02*
X373704761Y-219202438D01*
X373704761Y-219202438D02*
X373657142Y-219250057D01*
X373657142Y-219250057D02*
X373609523Y-219345295D01*
X373609523Y-219345295D02*
X373609523Y-219440533D01*
X373609523Y-219440533D02*
X373657142Y-219583390D01*
X373657142Y-219583390D02*
X374228570Y-220154819D01*
X374228570Y-220154819D02*
X373609523Y-220154819D01*
X372704761Y-219154819D02*
X373180951Y-219154819D01*
X373180951Y-219154819D02*
X373228570Y-219631009D01*
X373228570Y-219631009D02*
X373180951Y-219583390D01*
X373180951Y-219583390D02*
X373085713Y-219535771D01*
X373085713Y-219535771D02*
X372847618Y-219535771D01*
X372847618Y-219535771D02*
X372752380Y-219583390D01*
X372752380Y-219583390D02*
X372704761Y-219631009D01*
X372704761Y-219631009D02*
X372657142Y-219726247D01*
X372657142Y-219726247D02*
X372657142Y-219964342D01*
X372657142Y-219964342D02*
X372704761Y-220059580D01*
X372704761Y-220059580D02*
X372752380Y-220107200D01*
X372752380Y-220107200D02*
X372847618Y-220154819D01*
X372847618Y-220154819D02*
X373085713Y-220154819D01*
X373085713Y-220154819D02*
X373180951Y-220107200D01*
X373180951Y-220107200D02*
X373228570Y-220059580D01*
D13*
%TO.C,T18*%
X382550000Y-234950000D02*
X382550000Y-236350000D01*
X382550000Y-236350000D02*
X383950000Y-236350000D01*
X383950000Y-234950000D02*
X382550000Y-234950000D01*
X383950000Y-236350000D02*
X383950000Y-234950000D01*
%TO.C,T30*%
X370550000Y-193450000D02*
X370550000Y-194850000D01*
X370550000Y-194850000D02*
X371950000Y-194850000D01*
X371950000Y-193450000D02*
X370550000Y-193450000D01*
X371950000Y-194850000D02*
X371950000Y-193450000D01*
%TO.C,C37*%
X330859420Y-213120000D02*
X331140580Y-213120000D01*
X330859420Y-214140000D02*
X331140580Y-214140000D01*
%TO.C,T5*%
X346800000Y-264200000D02*
X346800000Y-265600000D01*
X346800000Y-265600000D02*
X348200000Y-265600000D01*
X348200000Y-264200000D02*
X346800000Y-264200000D01*
X348200000Y-265600000D02*
X348200000Y-264200000D01*
%TO.C,Q31*%
X337440000Y-216630000D02*
X337440000Y-215980000D01*
X337440000Y-216630000D02*
X337440000Y-217280000D01*
X340560000Y-216630000D02*
X340560000Y-215980000D01*
X340560000Y-216630000D02*
X340560000Y-217280000D01*
X337490000Y-215467500D02*
X337160000Y-215707500D01*
X337160000Y-215227500D01*
X337490000Y-215467500D01*
G36*
X337490000Y-215467500D02*
G01*
X337160000Y-215707500D01*
X337160000Y-215227500D01*
X337490000Y-215467500D01*
G37*
%TO.C,R119*%
X331772936Y-221165000D02*
X332227064Y-221165000D01*
X331772936Y-222635000D02*
X332227064Y-222635000D01*
%TO.C,T19*%
X380050000Y-234950000D02*
X380050000Y-236350000D01*
X380050000Y-236350000D02*
X381450000Y-236350000D01*
X381450000Y-234950000D02*
X380050000Y-234950000D01*
X381450000Y-236350000D02*
X381450000Y-234950000D01*
%TO.C,T15*%
X433550000Y-235200000D02*
X433550000Y-236600000D01*
X433550000Y-236600000D02*
X434950000Y-236600000D01*
X434950000Y-235200000D02*
X433550000Y-235200000D01*
X434950000Y-236600000D02*
X434950000Y-235200000D01*
%TO.C,T9*%
X239300000Y-263450000D02*
X239300000Y-264850000D01*
X239300000Y-264850000D02*
X240700000Y-264850000D01*
X240700000Y-263450000D02*
X239300000Y-263450000D01*
X240700000Y-264850000D02*
X240700000Y-263450000D01*
D14*
%TO.C,Q27*%
X275250000Y-228400000D02*
X275250000Y-231900000D01*
X275250000Y-231900000D02*
X281750000Y-231900000D01*
X275400000Y-226250000D02*
X275400000Y-228050000D01*
X281750000Y-228400000D02*
X275250000Y-228400000D01*
X281750000Y-231900000D02*
X281750000Y-228400000D01*
D13*
%TO.C,T16*%
X430800000Y-235200000D02*
X430800000Y-236600000D01*
X430800000Y-236600000D02*
X432200000Y-236600000D01*
X432200000Y-235200000D02*
X430800000Y-235200000D01*
X432200000Y-236600000D02*
X432200000Y-235200000D01*
%TO.C,C34*%
X277359420Y-215890000D02*
X277640580Y-215890000D01*
X277359420Y-216910000D02*
X277640580Y-216910000D01*
%TO.C,R118*%
X330772936Y-210895000D02*
X331227064Y-210895000D01*
X330772936Y-212365000D02*
X331227064Y-212365000D01*
%TO.C,C36*%
X338859420Y-213120000D02*
X339140580Y-213120000D01*
X338859420Y-214140000D02*
X339140580Y-214140000D01*
%TO.C,T38*%
X437550000Y-179450000D02*
X437550000Y-180850000D01*
X437550000Y-180850000D02*
X438950000Y-180850000D01*
X438950000Y-179450000D02*
X437550000Y-179450000D01*
X438950000Y-180850000D02*
X438950000Y-179450000D01*
%TO.C,T1*%
X337550000Y-264200000D02*
X337550000Y-265600000D01*
X337550000Y-265600000D02*
X338950000Y-265600000D01*
X338950000Y-264200000D02*
X337550000Y-264200000D01*
X338950000Y-265600000D02*
X338950000Y-264200000D01*
%TO.C,R109*%
X278272936Y-221915000D02*
X278727064Y-221915000D01*
X278272936Y-223385000D02*
X278727064Y-223385000D01*
%TO.C,R115*%
X338772936Y-210895000D02*
X339227064Y-210895000D01*
X338772936Y-212365000D02*
X339227064Y-212365000D01*
%TO.C,T12*%
X403050000Y-179450000D02*
X403050000Y-180850000D01*
X403050000Y-180850000D02*
X404450000Y-180850000D01*
X404450000Y-179450000D02*
X403050000Y-179450000D01*
X404450000Y-180850000D02*
X404450000Y-179450000D01*
%TO.C,T35*%
X361800000Y-211450000D02*
X361800000Y-212850000D01*
X361800000Y-212850000D02*
X363200000Y-212850000D01*
X363200000Y-211450000D02*
X361800000Y-211450000D01*
X363200000Y-212850000D02*
X363200000Y-211450000D01*
%TO.C,T33*%
X361800000Y-216450000D02*
X361800000Y-217850000D01*
X361800000Y-217850000D02*
X363200000Y-217850000D01*
X363200000Y-216450000D02*
X361800000Y-216450000D01*
X363200000Y-217850000D02*
X363200000Y-216450000D01*
%TO.C,T21*%
X375050000Y-234950000D02*
X375050000Y-236350000D01*
X375050000Y-236350000D02*
X376450000Y-236350000D01*
X376450000Y-234950000D02*
X375050000Y-234950000D01*
X376450000Y-236350000D02*
X376450000Y-234950000D01*
D14*
%TO.C,Q32*%
X336750000Y-225630000D02*
X336750000Y-229130000D01*
X336750000Y-229130000D02*
X343250000Y-229130000D01*
X336900000Y-223480000D02*
X336900000Y-225280000D01*
X343250000Y-225630000D02*
X336750000Y-225630000D01*
X343250000Y-229130000D02*
X343250000Y-225630000D01*
D13*
%TO.C,R111*%
X277272936Y-213665000D02*
X277727064Y-213665000D01*
X277272936Y-215135000D02*
X277727064Y-215135000D01*
%TO.C,T4*%
X344550000Y-264200000D02*
X344550000Y-265600000D01*
X344550000Y-265600000D02*
X345950000Y-265600000D01*
X345950000Y-264200000D02*
X344550000Y-264200000D01*
X345950000Y-265600000D02*
X345950000Y-264200000D01*
%TO.C,R114*%
X286522936Y-221915000D02*
X286977064Y-221915000D01*
X286522936Y-223385000D02*
X286977064Y-223385000D01*
%TO.C,T26*%
X370800000Y-216450000D02*
X370800000Y-217850000D01*
X370800000Y-217850000D02*
X372200000Y-217850000D01*
X372200000Y-216450000D02*
X370800000Y-216450000D01*
X372200000Y-217850000D02*
X372200000Y-216450000D01*
%TO.C,T32*%
X370550000Y-188450000D02*
X370550000Y-189850000D01*
X370550000Y-189850000D02*
X371950000Y-189850000D01*
X371950000Y-188450000D02*
X370550000Y-188450000D01*
X371950000Y-189850000D02*
X371950000Y-188450000D01*
%TO.C,R116*%
X339772936Y-219145000D02*
X340227064Y-219145000D01*
X339772936Y-220615000D02*
X340227064Y-220615000D01*
%TO.C,T22*%
X372550000Y-234950000D02*
X372550000Y-236350000D01*
X372550000Y-236350000D02*
X373950000Y-236350000D01*
X373950000Y-234950000D02*
X372550000Y-234950000D01*
X373950000Y-236350000D02*
X373950000Y-234950000D01*
%TO.C,T10*%
X234550000Y-263450000D02*
X234550000Y-264850000D01*
X234550000Y-264850000D02*
X235950000Y-264850000D01*
X235950000Y-263450000D02*
X234550000Y-263450000D01*
X235950000Y-264850000D02*
X235950000Y-263450000D01*
%TO.C,T37*%
X400550000Y-179450000D02*
X400550000Y-180850000D01*
X400550000Y-180850000D02*
X401950000Y-180850000D01*
X401950000Y-179450000D02*
X400550000Y-179450000D01*
X401950000Y-180850000D02*
X401950000Y-179450000D01*
%TO.C,T3*%
X342300000Y-264200000D02*
X342300000Y-265600000D01*
X342300000Y-265600000D02*
X343700000Y-265600000D01*
X343700000Y-264200000D02*
X342300000Y-264200000D01*
X343700000Y-265600000D02*
X343700000Y-264200000D01*
%TO.C,R117*%
X339772936Y-221145000D02*
X340227064Y-221145000D01*
X339772936Y-222615000D02*
X340227064Y-222615000D01*
D14*
%TO.C,Q34*%
X328500000Y-225630000D02*
X328500000Y-229130000D01*
X328500000Y-229130000D02*
X335000000Y-229130000D01*
X328650000Y-223480000D02*
X328650000Y-225280000D01*
X335000000Y-225630000D02*
X328500000Y-225630000D01*
X335000000Y-229130000D02*
X335000000Y-225630000D01*
D13*
%TO.C,T36*%
X398050000Y-179450000D02*
X398050000Y-180850000D01*
X398050000Y-180850000D02*
X399450000Y-180850000D01*
X399450000Y-179450000D02*
X398050000Y-179450000D01*
X399450000Y-180850000D02*
X399450000Y-179450000D01*
%TO.C,R110*%
X278272936Y-223915000D02*
X278727064Y-223915000D01*
X278272936Y-225385000D02*
X278727064Y-225385000D01*
%TO.C,T24*%
X370800000Y-221450000D02*
X370800000Y-222850000D01*
X370800000Y-222850000D02*
X372200000Y-222850000D01*
X372200000Y-221450000D02*
X370800000Y-221450000D01*
X372200000Y-222850000D02*
X372200000Y-221450000D01*
%TO.C,R112*%
X285772936Y-213665000D02*
X286227064Y-213665000D01*
X285772936Y-215135000D02*
X286227064Y-215135000D01*
%TO.C,R113*%
X286522936Y-223915000D02*
X286977064Y-223915000D01*
X286522936Y-225385000D02*
X286977064Y-225385000D01*
%TO.C,T13*%
X370550000Y-186450000D02*
X370550000Y-187850000D01*
X370550000Y-187850000D02*
X371950000Y-187850000D01*
X371950000Y-186450000D02*
X370550000Y-186450000D01*
X371950000Y-187850000D02*
X371950000Y-186450000D01*
%TO.C,T28*%
X370800000Y-211200000D02*
X370800000Y-212600000D01*
X370800000Y-212600000D02*
X372200000Y-212600000D01*
X372200000Y-211200000D02*
X370800000Y-211200000D01*
X372200000Y-212600000D02*
X372200000Y-211200000D01*
%TO.C,Q29*%
X284190000Y-219400000D02*
X284190000Y-218750000D01*
X284190000Y-219400000D02*
X284190000Y-220050000D01*
X287310000Y-219400000D02*
X287310000Y-218750000D01*
X287310000Y-219400000D02*
X287310000Y-220050000D01*
X284240000Y-218237500D02*
X283910000Y-218477500D01*
X283910000Y-217997500D01*
X284240000Y-218237500D01*
G36*
X284240000Y-218237500D02*
G01*
X283910000Y-218477500D01*
X283910000Y-217997500D01*
X284240000Y-218237500D01*
G37*
%TO.C,T31*%
X370550000Y-190950000D02*
X370550000Y-192350000D01*
X370550000Y-192350000D02*
X371950000Y-192350000D01*
X371950000Y-190950000D02*
X370550000Y-190950000D01*
X371950000Y-192350000D02*
X371950000Y-190950000D01*
%TO.C,C35*%
X285859420Y-215890000D02*
X286140580Y-215890000D01*
X285859420Y-216910000D02*
X286140580Y-216910000D01*
%TO.C,T17*%
X428300000Y-235200000D02*
X428300000Y-236600000D01*
X428300000Y-236600000D02*
X429700000Y-236600000D01*
X429700000Y-235200000D02*
X428300000Y-235200000D01*
X429700000Y-236600000D02*
X429700000Y-235200000D01*
%TO.C,T34*%
X361800000Y-213950000D02*
X361800000Y-215350000D01*
X361800000Y-215350000D02*
X363200000Y-215350000D01*
X363200000Y-213950000D02*
X361800000Y-213950000D01*
X363200000Y-215350000D02*
X363200000Y-213950000D01*
%TO.C,R120*%
X331772936Y-219145000D02*
X332227064Y-219145000D01*
X331772936Y-220615000D02*
X332227064Y-220615000D01*
%TO.C,T2*%
X340050000Y-264200000D02*
X340050000Y-265600000D01*
X340050000Y-265600000D02*
X341450000Y-265600000D01*
X341450000Y-264200000D02*
X340050000Y-264200000D01*
X341450000Y-265600000D02*
X341450000Y-264200000D01*
%TO.C,T11*%
X405550000Y-179450000D02*
X405550000Y-180850000D01*
X405550000Y-180850000D02*
X406950000Y-180850000D01*
X406950000Y-179450000D02*
X405550000Y-179450000D01*
X406950000Y-180850000D02*
X406950000Y-179450000D01*
%TO.C,Q33*%
X329440000Y-216630000D02*
X329440000Y-215980000D01*
X329440000Y-216630000D02*
X329440000Y-217280000D01*
X332560000Y-216630000D02*
X332560000Y-215980000D01*
X332560000Y-216630000D02*
X332560000Y-217280000D01*
X329490000Y-215467500D02*
X329160000Y-215707500D01*
X329160000Y-215227500D01*
X329490000Y-215467500D01*
G36*
X329490000Y-215467500D02*
G01*
X329160000Y-215707500D01*
X329160000Y-215227500D01*
X329490000Y-215467500D01*
G37*
%TO.C,Q28*%
X275940000Y-219400000D02*
X275940000Y-218750000D01*
X275940000Y-219400000D02*
X275940000Y-220050000D01*
X279060000Y-219400000D02*
X279060000Y-218750000D01*
X279060000Y-219400000D02*
X279060000Y-220050000D01*
X275990000Y-218237500D02*
X275660000Y-218477500D01*
X275660000Y-217997500D01*
X275990000Y-218237500D01*
G36*
X275990000Y-218237500D02*
G01*
X275660000Y-218477500D01*
X275660000Y-217997500D01*
X275990000Y-218237500D01*
G37*
D14*
%TO.C,Q30*%
X283250000Y-228400000D02*
X283250000Y-231900000D01*
X283250000Y-231900000D02*
X289750000Y-231900000D01*
X283400000Y-226250000D02*
X283400000Y-228050000D01*
X289750000Y-228400000D02*
X283250000Y-228400000D01*
X289750000Y-231900000D02*
X289750000Y-228400000D01*
D13*
%TO.C,T23*%
X370050000Y-234950000D02*
X370050000Y-236350000D01*
X370050000Y-236350000D02*
X371450000Y-236350000D01*
X371450000Y-234950000D02*
X370050000Y-234950000D01*
X371450000Y-236350000D02*
X371450000Y-234950000D01*
%TO.C,T6*%
X353050000Y-258700000D02*
X353050000Y-260100000D01*
X353050000Y-260100000D02*
X354450000Y-260100000D01*
X354450000Y-258700000D02*
X353050000Y-258700000D01*
X354450000Y-260100000D02*
X354450000Y-258700000D01*
%TO.C,T20*%
X377550000Y-234950000D02*
X377550000Y-236350000D01*
X377550000Y-236350000D02*
X378950000Y-236350000D01*
X378950000Y-234950000D02*
X377550000Y-234950000D01*
X378950000Y-236350000D02*
X378950000Y-234950000D01*
%TO.C,T29*%
X370550000Y-198700000D02*
X370550000Y-200100000D01*
X370550000Y-200100000D02*
X371950000Y-200100000D01*
X371950000Y-198700000D02*
X370550000Y-198700000D01*
X371950000Y-200100000D02*
X371950000Y-198700000D01*
%TO.C,T27*%
X370800000Y-213950000D02*
X370800000Y-215350000D01*
X370800000Y-215350000D02*
X372200000Y-215350000D01*
X372200000Y-213950000D02*
X370800000Y-213950000D01*
X372200000Y-215350000D02*
X372200000Y-213950000D01*
%TO.C,T25*%
X370800000Y-218950000D02*
X370800000Y-220350000D01*
X370800000Y-220350000D02*
X372200000Y-220350000D01*
X372200000Y-218950000D02*
X370800000Y-218950000D01*
X372200000Y-220350000D02*
X372200000Y-218950000D01*
%TD*%
%LPC*%
D15*
%TO.C,K4*%
X250500000Y-153100000D03*
X258100000Y-153100000D03*
X258100000Y-140400000D03*
X250500000Y-137860000D03*
%TD*%
D16*
%TO.C,H5*%
X164500000Y-195400000D03*
%TD*%
D15*
%TO.C,K9*%
X325500000Y-153100000D03*
X333100000Y-153100000D03*
X333100000Y-140400000D03*
X325500000Y-137860000D03*
%TD*%
D17*
%TO.C,J20*%
X281500000Y-125400000D03*
D18*
X276420000Y-125400000D03*
%TD*%
D19*
%TO.C,J3*%
X388465000Y-232335000D03*
D20*
X385925000Y-232335000D03*
X383385000Y-232335000D03*
X380845000Y-232335000D03*
X378305000Y-232335000D03*
X375765000Y-232335000D03*
X373225000Y-232335000D03*
X370685000Y-232335000D03*
%TD*%
D16*
%TO.C,H1*%
X164500000Y-266400000D03*
%TD*%
%TO.C,H3*%
X164500000Y-124400000D03*
%TD*%
D17*
%TO.C,J24*%
X181500000Y-125400000D03*
D18*
X176420000Y-125400000D03*
%TD*%
D17*
%TO.C,J16*%
X381500000Y-125400000D03*
D18*
X376420000Y-125400000D03*
%TD*%
D16*
%TO.C,H4*%
X476500000Y-124400000D03*
%TD*%
D15*
%TO.C,K6*%
X375537500Y-153100000D03*
X383137500Y-153100000D03*
X383137500Y-140400000D03*
X375537500Y-137860000D03*
%TD*%
D17*
%TO.C,J5*%
X406500000Y-125400000D03*
D18*
X401420000Y-125400000D03*
%TD*%
D16*
%TO.C,H6*%
X268500000Y-266400000D03*
%TD*%
D19*
%TO.C,J6*%
X443329000Y-184075000D03*
D20*
X440789000Y-184075000D03*
X438249000Y-184075000D03*
X435709000Y-184075000D03*
X433169000Y-184075000D03*
X430629000Y-184075000D03*
X428089000Y-184075000D03*
X425549000Y-184075000D03*
X423009000Y-184075000D03*
X420469000Y-184075000D03*
%TD*%
D21*
%TO.C,J14*%
X184870000Y-256910000D03*
D22*
X179790000Y-263270000D03*
X189950000Y-263270000D03*
X189950000Y-253110000D03*
X179790000Y-253110000D03*
%TD*%
D23*
%TO.C,J12*%
X466460000Y-162230000D03*
D24*
X466460000Y-159940000D03*
X466460000Y-157650000D03*
X466460000Y-155360000D03*
X466460000Y-153070000D03*
X469000000Y-163370000D03*
X469000000Y-161080000D03*
X469000000Y-158790000D03*
X469000000Y-156500000D03*
X469000000Y-154210000D03*
X471540000Y-162230000D03*
X471540000Y-159940000D03*
X471540000Y-157650000D03*
X471540000Y-155360000D03*
X471540000Y-153070000D03*
D25*
X469000000Y-170390000D03*
X469000000Y-145400000D03*
%TD*%
D15*
%TO.C,K2*%
X200500000Y-153100000D03*
X208100000Y-153100000D03*
X208100000Y-140400000D03*
X200500000Y-137860000D03*
%TD*%
D17*
%TO.C,J23*%
X206500000Y-125400000D03*
D18*
X201420000Y-125400000D03*
%TD*%
D17*
%TO.C,J18*%
X331500000Y-125400000D03*
D18*
X326420000Y-125400000D03*
%TD*%
D16*
%TO.C,H10*%
X316500000Y-124400000D03*
%TD*%
D19*
%TO.C,J2*%
X411325000Y-232335000D03*
D20*
X408785000Y-232335000D03*
X406245000Y-232335000D03*
X403705000Y-232335000D03*
X401165000Y-232335000D03*
X398625000Y-232335000D03*
X396085000Y-232335000D03*
X393545000Y-232335000D03*
%TD*%
D26*
%TO.C,C2*%
X456250000Y-257738607D03*
D27*
X456250000Y-260238607D03*
%TD*%
D16*
%TO.C,H8*%
X476500000Y-195400000D03*
%TD*%
D17*
%TO.C,J21*%
X256500000Y-125400000D03*
D18*
X251420000Y-125400000D03*
%TD*%
D15*
%TO.C,K7*%
X300500000Y-153100000D03*
X308100000Y-153100000D03*
X308100000Y-140400000D03*
X300500000Y-137860000D03*
%TD*%
%TO.C,K8*%
X400500000Y-153100000D03*
X408100000Y-153100000D03*
X408100000Y-140400000D03*
X400500000Y-137860000D03*
%TD*%
D28*
%TO.C,J25*%
X459500000Y-135400000D03*
D29*
X459500000Y-129400000D03*
X454800000Y-132400000D03*
%TD*%
D19*
%TO.C,J1*%
X434185000Y-232335000D03*
D20*
X431645000Y-232335000D03*
X429105000Y-232335000D03*
X426565000Y-232335000D03*
X424025000Y-232335000D03*
X421485000Y-232335000D03*
X418945000Y-232335000D03*
X416405000Y-232335000D03*
%TD*%
D16*
%TO.C,H9*%
X391500000Y-124400000D03*
%TD*%
D17*
%TO.C,J22*%
X231500000Y-125400000D03*
D18*
X226420000Y-125400000D03*
%TD*%
D15*
%TO.C,K10*%
X350100000Y-153100000D03*
X357700000Y-153100000D03*
X357700000Y-140400000D03*
X350100000Y-137860000D03*
%TD*%
%TO.C,K5*%
X275500000Y-153100000D03*
X283100000Y-153100000D03*
X283100000Y-140400000D03*
X275500000Y-137860000D03*
%TD*%
D30*
%TO.C,J10*%
X324600000Y-259400000D03*
X357900000Y-259400000D03*
D31*
X349875000Y-256860000D03*
D27*
X347585000Y-256860000D03*
X345295000Y-256860000D03*
X343005000Y-256860000D03*
X340715000Y-256860000D03*
X338425000Y-256860000D03*
X336135000Y-256860000D03*
X333845000Y-256860000D03*
X331555000Y-256860000D03*
X351020000Y-259400000D03*
X348730000Y-259400000D03*
X346440000Y-259400000D03*
X344150000Y-259400000D03*
X341860000Y-259400000D03*
X339570000Y-259400000D03*
X337280000Y-259400000D03*
X334990000Y-259400000D03*
X332700000Y-259400000D03*
X349875000Y-261940000D03*
X347585000Y-261940000D03*
X345295000Y-261940000D03*
X343005000Y-261940000D03*
X340715000Y-261940000D03*
X338425000Y-261940000D03*
X336135000Y-261940000D03*
X333845000Y-261940000D03*
%TD*%
D17*
%TO.C,J19*%
X306500000Y-125400000D03*
D18*
X301420000Y-125400000D03*
%TD*%
D26*
%TO.C,C1*%
X446500000Y-257738606D03*
D27*
X446500000Y-260238606D03*
%TD*%
D32*
%TO.C,J11*%
X244507500Y-256400000D03*
D33*
X242217500Y-256400000D03*
X239927500Y-256400000D03*
X237637500Y-256400000D03*
X235347500Y-256400000D03*
X245652500Y-258940000D03*
X243362500Y-258940000D03*
X241072500Y-258940000D03*
X238782500Y-258940000D03*
X236492500Y-258940000D03*
X244507500Y-261480000D03*
X242217500Y-261480000D03*
X239927500Y-261480000D03*
X237637500Y-261480000D03*
X235347500Y-261480000D03*
D34*
X252994500Y-258940000D03*
X228005500Y-258940000D03*
%TD*%
D15*
%TO.C,K3*%
X225500000Y-153100000D03*
X233100000Y-153100000D03*
X233100000Y-140400000D03*
X225500000Y-137860000D03*
%TD*%
D19*
%TO.C,J8*%
X393545000Y-184075000D03*
D20*
X391005000Y-184075000D03*
X388465000Y-184075000D03*
X385925000Y-184075000D03*
X383385000Y-184075000D03*
X380845000Y-184075000D03*
X378305000Y-184075000D03*
X375765000Y-184075000D03*
%TD*%
D16*
%TO.C,H7*%
X372500000Y-266400000D03*
%TD*%
D35*
%TO.C,JP2*%
X453500000Y-249650000D03*
D20*
X456040000Y-249650000D03*
X458580000Y-249650000D03*
%TD*%
D36*
%TO.C,J15*%
X296445000Y-258910000D03*
D37*
X293675000Y-258910000D03*
X290905000Y-258910000D03*
X288135000Y-258910000D03*
X285365000Y-258910000D03*
X295060000Y-261750000D03*
X292290000Y-261750000D03*
X289520000Y-261750000D03*
X286750000Y-261750000D03*
D38*
X303400000Y-260330000D03*
X278410000Y-260330000D03*
%TD*%
D16*
%TO.C,H11*%
X241500000Y-124400000D03*
%TD*%
D19*
%TO.C,J9*%
X388650000Y-175600000D03*
D20*
X386110000Y-175600000D03*
X383570000Y-175600000D03*
X381030000Y-175600000D03*
X378490000Y-175600000D03*
X375950000Y-175600000D03*
%TD*%
D39*
%TO.C,Q3*%
X168250000Y-241650000D03*
D40*
X184910000Y-244190000D03*
D41*
X184910000Y-241650000D03*
X184910000Y-239110000D03*
%TD*%
D42*
%TO.C,J4*%
X368145000Y-227255000D03*
D20*
X365605000Y-227255000D03*
X368145000Y-224715000D03*
X365605000Y-224715000D03*
X368145000Y-222175000D03*
X365605000Y-222175000D03*
X368145000Y-219635000D03*
X365605000Y-219635000D03*
X368145000Y-217095000D03*
X365605000Y-217095000D03*
X368145000Y-214555000D03*
X365605000Y-214555000D03*
X368145000Y-212015000D03*
X365605000Y-212015000D03*
X368145000Y-209475000D03*
X365605000Y-209475000D03*
X368145000Y-206935000D03*
X365605000Y-206935000D03*
X368145000Y-204395000D03*
X365605000Y-204395000D03*
X368145000Y-201855000D03*
X365605000Y-201855000D03*
X368145000Y-199315000D03*
X365605000Y-199315000D03*
X368145000Y-196775000D03*
X365605000Y-196775000D03*
X368145000Y-194235000D03*
X365605000Y-194235000D03*
X368145000Y-191695000D03*
X365605000Y-191695000D03*
X368145000Y-189155000D03*
X365605000Y-189155000D03*
X368145000Y-186615000D03*
X365605000Y-186615000D03*
X368145000Y-184075000D03*
X365605000Y-184075000D03*
%TD*%
D17*
%TO.C,J17*%
X356500000Y-125400000D03*
D18*
X351420000Y-125400000D03*
%TD*%
D21*
%TO.C,J13*%
X204870000Y-256910000D03*
D22*
X209950000Y-263270000D03*
X209950000Y-253110000D03*
X199790000Y-253110000D03*
X199790000Y-263270000D03*
%TD*%
D16*
%TO.C,H2*%
X476500000Y-266400000D03*
%TD*%
D19*
%TO.C,J7*%
X416405000Y-184075000D03*
D20*
X413865000Y-184075000D03*
X411325000Y-184075000D03*
X408785000Y-184075000D03*
X406245000Y-184075000D03*
X403705000Y-184075000D03*
X401165000Y-184075000D03*
X398625000Y-184075000D03*
%TD*%
D15*
%TO.C,K1*%
X175500000Y-153100000D03*
X183100000Y-153100000D03*
X183100000Y-140400000D03*
X175500000Y-137860000D03*
%TD*%
D43*
%TO.C,T18*%
X383250000Y-235650000D03*
%TD*%
%TO.C,T30*%
X371250000Y-194150000D03*
%TD*%
D44*
%TO.C,C37*%
X330225000Y-213630000D03*
X331775000Y-213630000D03*
%TD*%
D43*
%TO.C,T5*%
X347500000Y-264900000D03*
%TD*%
D45*
%TO.C,Q31*%
X338050000Y-215692500D03*
X339950000Y-215692500D03*
X339000000Y-217567500D03*
%TD*%
D46*
%TO.C,R119*%
X331087500Y-221900000D03*
X332912500Y-221900000D03*
%TD*%
D43*
%TO.C,T19*%
X380750000Y-235650000D03*
%TD*%
%TO.C,T15*%
X434250000Y-235900000D03*
%TD*%
%TO.C,T9*%
X240000000Y-264150000D03*
%TD*%
D47*
%TO.C,Q27*%
X276200000Y-227150000D03*
X278500000Y-227150000D03*
X280800000Y-227150000D03*
D48*
X278500000Y-233150000D03*
%TD*%
D43*
%TO.C,T16*%
X431500000Y-235900000D03*
%TD*%
D44*
%TO.C,C34*%
X276725000Y-216400000D03*
X278275000Y-216400000D03*
%TD*%
D46*
%TO.C,R118*%
X330087500Y-211630000D03*
X331912500Y-211630000D03*
%TD*%
D44*
%TO.C,C36*%
X338225000Y-213630000D03*
X339775000Y-213630000D03*
%TD*%
D49*
%TO.C,MH3*%
X396085000Y-199315000D03*
%TD*%
D43*
%TO.C,T38*%
X438250000Y-180150000D03*
%TD*%
%TO.C,T1*%
X338250000Y-264900000D03*
%TD*%
D46*
%TO.C,R109*%
X277587500Y-222650000D03*
X279412500Y-222650000D03*
%TD*%
%TO.C,R115*%
X338087500Y-211630000D03*
X339912500Y-211630000D03*
%TD*%
D43*
%TO.C,T12*%
X403750000Y-180150000D03*
%TD*%
%TO.C,T35*%
X362500000Y-212150000D03*
%TD*%
%TO.C,T33*%
X362500000Y-217150000D03*
%TD*%
%TO.C,T21*%
X375750000Y-235650000D03*
%TD*%
D47*
%TO.C,Q32*%
X337700000Y-224380000D03*
X340000000Y-224380000D03*
X342300000Y-224380000D03*
D48*
X340000000Y-230380000D03*
%TD*%
D46*
%TO.C,R111*%
X276587500Y-214400000D03*
X278412500Y-214400000D03*
%TD*%
D43*
%TO.C,T4*%
X345250000Y-264900000D03*
%TD*%
D46*
%TO.C,R114*%
X285837500Y-222650000D03*
X287662500Y-222650000D03*
%TD*%
D43*
%TO.C,T26*%
X371500000Y-217150000D03*
%TD*%
D50*
%TO.C,T32*%
X371250000Y-189150000D03*
%TD*%
D46*
%TO.C,R116*%
X339087500Y-219880000D03*
X340912500Y-219880000D03*
%TD*%
D43*
%TO.C,T22*%
X373250000Y-235650000D03*
%TD*%
%TO.C,T10*%
X235250000Y-264150000D03*
%TD*%
%TO.C,T37*%
X401250000Y-180150000D03*
%TD*%
%TO.C,T3*%
X343000000Y-264900000D03*
%TD*%
D46*
%TO.C,R117*%
X339087500Y-221880000D03*
X340912500Y-221880000D03*
%TD*%
D47*
%TO.C,Q34*%
X329450000Y-224380000D03*
X331750000Y-224380000D03*
X334050000Y-224380000D03*
D48*
X331750000Y-230380000D03*
%TD*%
D43*
%TO.C,T36*%
X398750000Y-180150000D03*
%TD*%
D46*
%TO.C,R110*%
X277587500Y-224650000D03*
X279412500Y-224650000D03*
%TD*%
D43*
%TO.C,T24*%
X371500000Y-222150000D03*
%TD*%
D46*
%TO.C,R112*%
X285087500Y-214400000D03*
X286912500Y-214400000D03*
%TD*%
D49*
%TO.C,MH5*%
X371955000Y-184075000D03*
%TD*%
D46*
%TO.C,R113*%
X285837500Y-224650000D03*
X287662500Y-224650000D03*
%TD*%
D43*
%TO.C,T13*%
X371250000Y-187150000D03*
%TD*%
%TO.C,T28*%
X371500000Y-211900000D03*
%TD*%
D45*
%TO.C,Q29*%
X284800000Y-218462500D03*
X286700000Y-218462500D03*
X285750000Y-220337500D03*
%TD*%
D43*
%TO.C,T31*%
X371250000Y-191650000D03*
%TD*%
D44*
%TO.C,C35*%
X285225000Y-216400000D03*
X286775000Y-216400000D03*
%TD*%
D49*
%TO.C,MH4*%
X396085000Y-227255000D03*
%TD*%
D43*
%TO.C,T17*%
X429000000Y-235900000D03*
%TD*%
%TO.C,T34*%
X362500000Y-214650000D03*
%TD*%
D49*
%TO.C,MH2*%
X448155000Y-232335000D03*
%TD*%
D46*
%TO.C,R120*%
X331087500Y-219880000D03*
X332912500Y-219880000D03*
%TD*%
D43*
%TO.C,T2*%
X340750000Y-264900000D03*
%TD*%
%TO.C,T11*%
X406250000Y-180150000D03*
%TD*%
D45*
%TO.C,Q33*%
X330050000Y-215692500D03*
X331950000Y-215692500D03*
X331000000Y-217567500D03*
%TD*%
D49*
%TO.C,MH6*%
X365605000Y-232335000D03*
%TD*%
D45*
%TO.C,Q28*%
X276550000Y-218462500D03*
X278450000Y-218462500D03*
X277500000Y-220337500D03*
%TD*%
D47*
%TO.C,Q30*%
X284200000Y-227150000D03*
X286500000Y-227150000D03*
X288800000Y-227150000D03*
D48*
X286500000Y-233150000D03*
%TD*%
D49*
%TO.C,MH1*%
X446885000Y-184075000D03*
%TD*%
D43*
%TO.C,T23*%
X370750000Y-235650000D03*
%TD*%
%TO.C,T6*%
X353750000Y-259400000D03*
%TD*%
%TO.C,T20*%
X378250000Y-235650000D03*
%TD*%
%TO.C,T29*%
X371250000Y-199400000D03*
%TD*%
%TO.C,T27*%
X371500000Y-214650000D03*
%TD*%
%TO.C,T25*%
X371500000Y-219650000D03*
%TD*%
%LPD*%
M02*
