%TF.GenerationSoftware,KiCad,Pcbnew,9.0.7+1*%
%TF.CreationDate,Date%
%TF.ProjectId,R-PCBA-VPEG-PWR,522d5043-4241-42d5-9650-45472d505752,+ (Unreleased)*%
%TF.SameCoordinates,Original*%
%TF.FileFunction,Paste,Top*%
%TF.FilePolarity,Positive*%
%FSLAX46Y46*%
G04 Gerber Fmt 4.6, Leading zero omitted, Abs format (unit mm)*
G04 Created by KiCad*
%MOMM*%
%LPD*%
G01*
G04 APERTURE LIST*
G04 Aperture macros list*
%AMRoundRect*
0 Rectangle with rounded corners*
0 $1 Rounding radius*
0 $2 $3 $4 $5 $6 $7 $8 $9 X,Y pos of 4 corners*
0 Add a 4 corners polygon primitive as box body*
4,1,4,$2,$3,$4,$5,$6,$7,$8,$9,$2,$3,0*
0 Add four circle primitives for the rounded corners*
1,1,$1+$1,$2,$3*
1,1,$1+$1,$4,$5*
1,1,$1+$1,$6,$7*
1,1,$1+$1,$8,$9*
0 Add four rect primitives between the rounded corners*
20,1,$1+$1,$2,$3,$4,$5,0*
20,1,$1+$1,$4,$5,$6,$7,0*
20,1,$1+$1,$6,$7,$8,$9,0*
20,1,$1+$1,$8,$9,$2,$3,0*%
G04 Aperture macros list end*
%ADD10R,0.900000X1.150000*%
%ADD11RoundRect,0.250000X0.262500X0.450000X-0.262500X0.450000X-0.262500X-0.450000X0.262500X-0.450000X0*%
%ADD12RoundRect,0.250000X-0.262500X-0.450000X0.262500X-0.450000X0.262500X0.450000X-0.262500X0.450000X0*%
%ADD13RoundRect,0.250000X-0.450000X0.262500X-0.450000X-0.262500X0.450000X-0.262500X0.450000X0.262500X0*%
%ADD14RoundRect,0.150000X0.150000X-0.587500X0.150000X0.587500X-0.150000X0.587500X-0.150000X-0.587500X0*%
%ADD15RoundRect,0.250000X0.650000X-0.325000X0.650000X0.325000X-0.650000X0.325000X-0.650000X-0.325000X0*%
%ADD16RoundRect,0.250000X0.450000X-0.262500X0.450000X0.262500X-0.450000X0.262500X-0.450000X-0.262500X0*%
%ADD17RoundRect,0.250000X-0.650000X0.325000X-0.650000X-0.325000X0.650000X-0.325000X0.650000X0.325000X0*%
%ADD18RoundRect,0.250000X-0.325000X-0.650000X0.325000X-0.650000X0.325000X0.650000X-0.325000X0.650000X0*%
%ADD19R,0.650000X1.525000*%
%ADD20RoundRect,0.150000X-0.587500X-0.150000X0.587500X-0.150000X0.587500X0.150000X-0.587500X0.150000X0*%
G04 APERTURE END LIST*
D10*
%TO.C,K12*%
X337270000Y-217275000D03*
X334730000Y-217275000D03*
X334730000Y-223525000D03*
X337270000Y-223525000D03*
%TD*%
D11*
%TO.C,R3*%
X213575000Y-154600000D03*
X211750000Y-154600000D03*
%TD*%
D12*
%TO.C,R72*%
X336537500Y-152412500D03*
X338362500Y-152412500D03*
%TD*%
%TO.C,R69*%
X261587500Y-152287500D03*
X263412500Y-152287500D03*
%TD*%
D13*
%TO.C,R24*%
X406250000Y-243487500D03*
X406250000Y-245312500D03*
%TD*%
D14*
%TO.C,Q14*%
X336500000Y-150100000D03*
X338400000Y-150100000D03*
X337450000Y-148225000D03*
%TD*%
D13*
%TO.C,R43*%
X295405000Y-251487500D03*
X295405000Y-253312500D03*
%TD*%
D14*
%TO.C,Q16*%
X286500000Y-150100000D03*
X288400000Y-150100000D03*
X287450000Y-148225000D03*
%TD*%
D12*
%TO.C,R66*%
X186587500Y-152350000D03*
X188412500Y-152350000D03*
%TD*%
D11*
%TO.C,R1*%
X263412500Y-154537500D03*
X261587500Y-154537500D03*
%TD*%
D13*
%TO.C,R16*%
X389250000Y-243487500D03*
X389250000Y-245312500D03*
%TD*%
D15*
%TO.C,C4*%
X254000000Y-224375000D03*
X254000000Y-221425000D03*
%TD*%
D10*
%TO.C,K16*%
X311270000Y-217275000D03*
X308730000Y-217275000D03*
X308730000Y-223525000D03*
X311270000Y-223525000D03*
%TD*%
D16*
%TO.C,R82*%
X304750000Y-214312500D03*
X304750000Y-212487500D03*
%TD*%
%TO.C,R76*%
X343750000Y-214312500D03*
X343750000Y-212487500D03*
%TD*%
D11*
%TO.C,R2*%
X238500000Y-154600000D03*
X236675000Y-154600000D03*
%TD*%
D13*
%TO.C,R21*%
X402000000Y-243487500D03*
X402000000Y-245312500D03*
%TD*%
%TO.C,R36*%
X237500000Y-244487500D03*
X237500000Y-246312500D03*
%TD*%
D16*
%TO.C,R56*%
X296405000Y-248662500D03*
X296405000Y-246837500D03*
%TD*%
D14*
%TO.C,Q10*%
X261550000Y-149975000D03*
X263450000Y-149975000D03*
X262500000Y-148100000D03*
%TD*%
D13*
%TO.C,R34*%
X231500000Y-244487500D03*
X231500000Y-246312500D03*
%TD*%
D11*
%TO.C,R6*%
X388662500Y-154537500D03*
X386837500Y-154537500D03*
%TD*%
D13*
%TO.C,R11*%
X378750000Y-243487500D03*
X378750000Y-245312500D03*
%TD*%
D14*
%TO.C,Q11*%
X211712500Y-150037500D03*
X213612500Y-150037500D03*
X212662500Y-148162500D03*
%TD*%
D13*
%TO.C,R19*%
X395750000Y-243487500D03*
X395750000Y-245312500D03*
%TD*%
D10*
%TO.C,K20*%
X291770000Y-217275000D03*
X289230000Y-217275000D03*
X289230000Y-223525000D03*
X291770000Y-223525000D03*
%TD*%
%TO.C,K18*%
X298270000Y-217275000D03*
X295730000Y-217275000D03*
X295730000Y-223525000D03*
X298270000Y-223525000D03*
%TD*%
%TO.C,K11*%
X343770000Y-217275000D03*
X341230000Y-217275000D03*
X341230000Y-223525000D03*
X343770000Y-223525000D03*
%TD*%
D12*
%TO.C,R70*%
X286537500Y-152412500D03*
X288362500Y-152412500D03*
%TD*%
D14*
%TO.C,Q24*%
X386800000Y-149975000D03*
X388700000Y-149975000D03*
X387750000Y-148100000D03*
%TD*%
D16*
%TO.C,R81*%
X311250000Y-214312500D03*
X311250000Y-212487500D03*
%TD*%
D13*
%TO.C,R44*%
X281655000Y-251487500D03*
X281655000Y-253312500D03*
%TD*%
%TO.C,R42*%
X288555000Y-251487500D03*
X288555000Y-253312500D03*
%TD*%
D16*
%TO.C,R80*%
X317750000Y-214312500D03*
X317750000Y-212487500D03*
%TD*%
D13*
%TO.C,R23*%
X404250000Y-243487500D03*
X404250000Y-245312500D03*
%TD*%
D11*
%TO.C,R8*%
X338362500Y-154662500D03*
X336537500Y-154662500D03*
%TD*%
D13*
%TO.C,R26*%
X408500000Y-243487500D03*
X408500000Y-245312500D03*
%TD*%
%TO.C,R13*%
X383000000Y-243487500D03*
X383000000Y-245312500D03*
%TD*%
D11*
%TO.C,R4*%
X188412500Y-154600000D03*
X186587500Y-154600000D03*
%TD*%
D13*
%TO.C,R28*%
X414750000Y-243487500D03*
X414750000Y-245312500D03*
%TD*%
%TO.C,R27*%
X412750000Y-243487500D03*
X412750000Y-245312500D03*
%TD*%
%TO.C,R30*%
X417000000Y-243487500D03*
X417000000Y-245312500D03*
%TD*%
%TO.C,R15*%
X387250000Y-243487500D03*
X387250000Y-245312500D03*
%TD*%
D17*
%TO.C,C7*%
X240500000Y-217900000D03*
X240500000Y-220850000D03*
%TD*%
D18*
%TO.C,C6*%
X246300000Y-228150000D03*
X249250000Y-228150000D03*
%TD*%
D19*
%TO.C,IC1*%
X242880000Y-225574000D03*
X244150000Y-225574000D03*
X245420000Y-225574000D03*
X246690000Y-225574000D03*
X247960000Y-225574000D03*
X249230000Y-225574000D03*
X250500000Y-225574000D03*
X251770000Y-225574000D03*
X251770000Y-220150000D03*
X250500000Y-220150000D03*
X249230000Y-220150000D03*
X247960000Y-220150000D03*
X246690000Y-220150000D03*
X245420000Y-220150000D03*
X244150000Y-220150000D03*
X242880000Y-220150000D03*
%TD*%
D12*
%TO.C,R73*%
X361175000Y-152350000D03*
X363000000Y-152350000D03*
%TD*%
D16*
%TO.C,R57*%
X289655000Y-248662500D03*
X289655000Y-246837500D03*
%TD*%
D11*
%TO.C,R7*%
X363000000Y-154600000D03*
X361175000Y-154600000D03*
%TD*%
D13*
%TO.C,R22*%
X400000000Y-243487500D03*
X400000000Y-245312500D03*
%TD*%
D16*
%TO.C,R41*%
X187680000Y-244562500D03*
X187680000Y-242737500D03*
%TD*%
D18*
%TO.C,C5*%
X241525000Y-228150000D03*
X244475000Y-228150000D03*
%TD*%
D13*
%TO.C,R14*%
X385000000Y-243487500D03*
X385000000Y-245312500D03*
%TD*%
D14*
%TO.C,Q9*%
X236637500Y-150037500D03*
X238537500Y-150037500D03*
X237587500Y-148162500D03*
%TD*%
D16*
%TO.C,R77*%
X337250000Y-214312500D03*
X337250000Y-212487500D03*
%TD*%
%TO.C,R83*%
X298250000Y-214312500D03*
X298250000Y-212487500D03*
%TD*%
%TO.C,R79*%
X324250000Y-214312500D03*
X324250000Y-212487500D03*
%TD*%
D10*
%TO.C,K13*%
X330770000Y-217275000D03*
X328230000Y-217275000D03*
X328230000Y-223525000D03*
X330770000Y-223525000D03*
%TD*%
D11*
%TO.C,R9*%
X313412500Y-154600000D03*
X311587500Y-154600000D03*
%TD*%
D13*
%TO.C,R35*%
X239900000Y-244487500D03*
X239900000Y-246312500D03*
%TD*%
D16*
%TO.C,R38*%
X228500000Y-246225000D03*
X228500000Y-244400000D03*
%TD*%
D12*
%TO.C,R67*%
X211750000Y-152350000D03*
X213575000Y-152350000D03*
%TD*%
D14*
%TO.C,Q12*%
X186550000Y-150037500D03*
X188450000Y-150037500D03*
X187500000Y-148162500D03*
%TD*%
D16*
%TO.C,R84*%
X285250000Y-214312500D03*
X285250000Y-212487500D03*
%TD*%
D20*
%TO.C,Q22*%
X283717500Y-251450000D03*
X283717500Y-253350000D03*
X285592500Y-252400000D03*
%TD*%
D12*
%TO.C,R74*%
X386837500Y-152287500D03*
X388662500Y-152287500D03*
%TD*%
D10*
%TO.C,K19*%
X285270000Y-217275000D03*
X282730000Y-217275000D03*
X282730000Y-223525000D03*
X285270000Y-223525000D03*
%TD*%
D15*
%TO.C,C3*%
X240500000Y-225850000D03*
X240500000Y-222900000D03*
%TD*%
D10*
%TO.C,K14*%
X324270000Y-217275000D03*
X321730000Y-217275000D03*
X321730000Y-223525000D03*
X324270000Y-223525000D03*
%TD*%
D13*
%TO.C,R33*%
X234500000Y-244487500D03*
X234500000Y-246312500D03*
%TD*%
D14*
%TO.C,Q23*%
X411750000Y-150100000D03*
X413650000Y-150100000D03*
X412700000Y-148225000D03*
%TD*%
D16*
%TO.C,R85*%
X291750000Y-214312500D03*
X291750000Y-212487500D03*
%TD*%
D13*
%TO.C,R20*%
X397750000Y-243487500D03*
X397750000Y-245312500D03*
%TD*%
D11*
%TO.C,R10*%
X288362500Y-154662500D03*
X286537500Y-154662500D03*
%TD*%
D16*
%TO.C,R40*%
X250000000Y-246312500D03*
X250000000Y-244487500D03*
%TD*%
D13*
%TO.C,R29*%
X419000000Y-243487500D03*
X419000000Y-245312500D03*
%TD*%
D12*
%TO.C,R68*%
X236675000Y-152350000D03*
X238500000Y-152350000D03*
%TD*%
%TO.C,R75*%
X411787500Y-152412500D03*
X413612500Y-152412500D03*
%TD*%
D20*
%TO.C,Q13*%
X290617500Y-251450000D03*
X290617500Y-253350000D03*
X292492500Y-252400000D03*
%TD*%
D13*
%TO.C,R17*%
X393500000Y-243487500D03*
X393500000Y-245312500D03*
%TD*%
D14*
%TO.C,Q15*%
X361137500Y-150037500D03*
X363037500Y-150037500D03*
X362087500Y-148162500D03*
%TD*%
%TO.C,Q17*%
X311550000Y-150037500D03*
X313450000Y-150037500D03*
X312500000Y-148162500D03*
%TD*%
D10*
%TO.C,K17*%
X304770000Y-217275000D03*
X302230000Y-217275000D03*
X302230000Y-223525000D03*
X304770000Y-223525000D03*
%TD*%
D13*
%TO.C,R62*%
X282655000Y-246837500D03*
X282655000Y-248662500D03*
%TD*%
%TO.C,R18*%
X391500000Y-243487500D03*
X391500000Y-245312500D03*
%TD*%
D11*
%TO.C,R5*%
X413612500Y-154662500D03*
X411787500Y-154662500D03*
%TD*%
D12*
%TO.C,R71*%
X311587500Y-152350000D03*
X313412500Y-152350000D03*
%TD*%
D16*
%TO.C,R65*%
X187680000Y-240650000D03*
X187680000Y-238825000D03*
%TD*%
%TO.C,R78*%
X330750000Y-214312500D03*
X330750000Y-212487500D03*
%TD*%
D13*
%TO.C,R25*%
X410500000Y-243487500D03*
X410500000Y-245312500D03*
%TD*%
%TO.C,R12*%
X380750000Y-243487500D03*
X380750000Y-245312500D03*
%TD*%
D16*
%TO.C,R39*%
X247500000Y-246312500D03*
X247500000Y-244487500D03*
%TD*%
D10*
%TO.C,K15*%
X317770000Y-217275000D03*
X315230000Y-217275000D03*
X315230000Y-223525000D03*
X317770000Y-223525000D03*
%TD*%
D20*
%TO.C,Q4*%
X297467500Y-251450000D03*
X297467500Y-253350000D03*
X299342500Y-252400000D03*
%TD*%
M02*
