%TF.GenerationSoftware,KiCad,Pcbnew,9.0.7+1*%
%TF.CreationDate,Date%
%TF.ProjectId,R-PCBA-VPEG-PWR,522d5043-4241-42d5-9650-45472d505752,+ (Unreleased)*%
%TF.SameCoordinates,Original*%
%TF.FileFunction,Soldermask,Bot*%
%TF.FilePolarity,Negative*%
%FSLAX46Y46*%
G04 Gerber Fmt 4.6, Leading zero omitted, Abs format (unit mm)*
G04 Created by KiCad*
%MOMM*%
%LPD*%
G01*
G04 APERTURE LIST*
G04 Aperture macros list*
%AMRoundRect*
0 Rectangle with rounded corners*
0 $1 Rounding radius*
0 $2 $3 $4 $5 $6 $7 $8 $9 X,Y pos of 4 corners*
0 Add a 4 corners polygon primitive as box body*
4,1,4,$2,$3,$4,$5,$6,$7,$8,$9,$2,$3,0*
0 Add four circle primitives for the rounded corners*
1,1,$1+$1,$2,$3*
1,1,$1+$1,$4,$5*
1,1,$1+$1,$6,$7*
1,1,$1+$1,$8,$9*
0 Add four rect primitives between the rounded corners*
20,1,$1+$1,$2,$3,$4,$5,0*
20,1,$1+$1,$4,$5,$6,$7,0*
20,1,$1+$1,$6,$7,$8,$9,0*
20,1,$1+$1,$8,$9,$2,$3,0*%
G04 Aperture macros list end*
%ADD10C,2.050000*%
%ADD11C,5.700000*%
%ADD12RoundRect,0.050000X1.200000X1.200000X-1.200000X1.200000X-1.200000X-1.200000X1.200000X-1.200000X0*%
%ADD13C,2.500000*%
%ADD14RoundRect,0.050000X-0.850000X0.850000X-0.850000X-0.850000X0.850000X-0.850000X0.850000X0.850000X0*%
%ADD15C,1.800000*%
%ADD16RoundRect,0.050000X1.650000X-1.650000X1.650000X1.650000X-1.650000X1.650000X-1.650000X-1.650000X0*%
%ADD17C,1.900000*%
%ADD18RoundRect,0.102000X0.975000X-0.975000X0.975000X0.975000X-0.975000X0.975000X-0.975000X-0.975000X0*%
%ADD19C,2.154000*%
%ADD20C,4.420000*%
%ADD21RoundRect,0.265625X-0.584375X0.584375X-0.584375X-0.584375X0.584375X-0.584375X0.584375X0.584375X0*%
%ADD22C,1.700000*%
%ADD23C,5.560000*%
%ADD24C,4.843000*%
%ADD25C,4.100000*%
%ADD26RoundRect,0.050000X-0.800000X-0.800000X0.800000X-0.800000X0.800000X0.800000X-0.800000X0.800000X0*%
%ADD27RoundRect,0.050000X-0.825000X-0.825000X0.825000X-0.825000X0.825000X0.825000X-0.825000X0.825000X0*%
%ADD28C,1.750000*%
%ADD29C,4.900000*%
%ADD30RoundRect,0.050000X0.850000X-0.850000X0.850000X0.850000X-0.850000X0.850000X-0.850000X-0.850000X0*%
%ADD31RoundRect,0.050000X-0.750000X-0.750000X0.750000X-0.750000X0.750000X0.750000X-0.750000X0.750000X0*%
%ADD32C,1.600000*%
%ADD33C,4.675000*%
%ADD34C,3.600000*%
%ADD35RoundRect,0.050000X1.000000X-0.952500X1.000000X0.952500X-1.000000X0.952500X-1.000000X-0.952500X0*%
%ADD36O,2.100000X2.005000*%
%ADD37RoundRect,0.050000X0.850000X0.850000X-0.850000X0.850000X-0.850000X-0.850000X0.850000X-0.850000X0*%
%ADD38RoundRect,0.050000X0.500000X0.500000X-0.500000X0.500000X-0.500000X-0.500000X0.500000X-0.500000X0*%
%ADD39RoundRect,0.250000X-0.250000X-0.275000X0.250000X-0.275000X0.250000X0.275000X-0.250000X0.275000X0*%
%ADD40RoundRect,0.175000X-0.175000X0.612500X-0.175000X-0.612500X0.175000X-0.612500X0.175000X0.612500X0*%
%ADD41RoundRect,0.274390X-0.288110X-0.475610X0.288110X-0.475610X0.288110X0.475610X-0.288110X0.475610X0*%
%ADD42RoundRect,0.050000X0.450000X0.900000X-0.450000X0.900000X-0.450000X-0.900000X0.450000X-0.900000X0*%
%ADD43RoundRect,0.050000X-1.600000X0.900000X-1.600000X-0.900000X1.600000X-0.900000X1.600000X0.900000X0*%
%ADD44C,3.300000*%
%ADD45RoundRect,0.050000X0.500000X-0.500000X0.500000X0.500000X-0.500000X0.500000X-0.500000X-0.500000X0*%
G04 APERTURE END LIST*
D10*
%TO.C,K4*%
X250500000Y-153100000D03*
X258100000Y-153100000D03*
X258100000Y-140400000D03*
X250500000Y-137860000D03*
%TD*%
D11*
%TO.C,H5*%
X164500000Y-195400000D03*
%TD*%
D10*
%TO.C,K9*%
X325500000Y-153100000D03*
X333100000Y-153100000D03*
X333100000Y-140400000D03*
X325500000Y-137860000D03*
%TD*%
D12*
%TO.C,J20*%
X281500000Y-125400000D03*
D13*
X276420000Y-125400000D03*
%TD*%
D14*
%TO.C,J3*%
X388465000Y-232335000D03*
D15*
X385925000Y-232335000D03*
X383385000Y-232335000D03*
X380845000Y-232335000D03*
X378305000Y-232335000D03*
X375765000Y-232335000D03*
X373225000Y-232335000D03*
X370685000Y-232335000D03*
%TD*%
D11*
%TO.C,H1*%
X164500000Y-266400000D03*
%TD*%
%TO.C,H3*%
X164500000Y-124400000D03*
%TD*%
D12*
%TO.C,J24*%
X181500000Y-125400000D03*
D13*
X176420000Y-125400000D03*
%TD*%
D12*
%TO.C,J16*%
X381500000Y-125400000D03*
D13*
X376420000Y-125400000D03*
%TD*%
D11*
%TO.C,H4*%
X476500000Y-124400000D03*
%TD*%
D10*
%TO.C,K6*%
X375537500Y-153100000D03*
X383137500Y-153100000D03*
X383137500Y-140400000D03*
X375537500Y-137860000D03*
%TD*%
D12*
%TO.C,J5*%
X406500000Y-125400000D03*
D13*
X401420000Y-125400000D03*
%TD*%
D11*
%TO.C,H6*%
X268500000Y-266400000D03*
%TD*%
D14*
%TO.C,J6*%
X443329000Y-184075000D03*
D15*
X440789000Y-184075000D03*
X438249000Y-184075000D03*
X435709000Y-184075000D03*
X433169000Y-184075000D03*
X430629000Y-184075000D03*
X428089000Y-184075000D03*
X425549000Y-184075000D03*
X423009000Y-184075000D03*
X420469000Y-184075000D03*
%TD*%
D16*
%TO.C,J14*%
X184870000Y-256910000D03*
D17*
X179790000Y-263270000D03*
X189950000Y-263270000D03*
X189950000Y-253110000D03*
X179790000Y-253110000D03*
%TD*%
D18*
%TO.C,J12*%
X466460000Y-162230000D03*
D19*
X466460000Y-159940000D03*
X466460000Y-157650000D03*
X466460000Y-155360000D03*
X466460000Y-153070000D03*
X469000000Y-163370000D03*
X469000000Y-161080000D03*
X469000000Y-158790000D03*
X469000000Y-156500000D03*
X469000000Y-154210000D03*
X471540000Y-162230000D03*
X471540000Y-159940000D03*
X471540000Y-157650000D03*
X471540000Y-155360000D03*
X471540000Y-153070000D03*
D20*
X469000000Y-170390000D03*
X469000000Y-145400000D03*
%TD*%
D10*
%TO.C,K2*%
X200500000Y-153100000D03*
X208100000Y-153100000D03*
X208100000Y-140400000D03*
X200500000Y-137860000D03*
%TD*%
D12*
%TO.C,J23*%
X206500000Y-125400000D03*
D13*
X201420000Y-125400000D03*
%TD*%
D12*
%TO.C,J18*%
X331500000Y-125400000D03*
D13*
X326420000Y-125400000D03*
%TD*%
D11*
%TO.C,H10*%
X316500000Y-124400000D03*
%TD*%
D14*
%TO.C,J2*%
X411325000Y-232335000D03*
D15*
X408785000Y-232335000D03*
X406245000Y-232335000D03*
X403705000Y-232335000D03*
X401165000Y-232335000D03*
X398625000Y-232335000D03*
X396085000Y-232335000D03*
X393545000Y-232335000D03*
%TD*%
D21*
%TO.C,C2*%
X456250000Y-257738607D03*
D22*
X456250000Y-260238607D03*
%TD*%
D11*
%TO.C,H8*%
X476500000Y-195400000D03*
%TD*%
D12*
%TO.C,J21*%
X256500000Y-125400000D03*
D13*
X251420000Y-125400000D03*
%TD*%
D10*
%TO.C,K7*%
X300500000Y-153100000D03*
X308100000Y-153100000D03*
X308100000Y-140400000D03*
X300500000Y-137860000D03*
%TD*%
%TO.C,K8*%
X400500000Y-153100000D03*
X408100000Y-153100000D03*
X408100000Y-140400000D03*
X400500000Y-137860000D03*
%TD*%
D23*
%TO.C,J25*%
X459500000Y-135400000D03*
D24*
X459500000Y-129400000D03*
X454800000Y-132400000D03*
%TD*%
D14*
%TO.C,J1*%
X434185000Y-232335000D03*
D15*
X431645000Y-232335000D03*
X429105000Y-232335000D03*
X426565000Y-232335000D03*
X424025000Y-232335000D03*
X421485000Y-232335000D03*
X418945000Y-232335000D03*
X416405000Y-232335000D03*
%TD*%
D11*
%TO.C,H9*%
X391500000Y-124400000D03*
%TD*%
D12*
%TO.C,J22*%
X231500000Y-125400000D03*
D13*
X226420000Y-125400000D03*
%TD*%
D10*
%TO.C,K10*%
X350100000Y-153100000D03*
X357700000Y-153100000D03*
X357700000Y-140400000D03*
X350100000Y-137860000D03*
%TD*%
%TO.C,K5*%
X275500000Y-153100000D03*
X283100000Y-153100000D03*
X283100000Y-140400000D03*
X275500000Y-137860000D03*
%TD*%
D25*
%TO.C,J10*%
X324600000Y-259400000D03*
X357900000Y-259400000D03*
D26*
X349875000Y-256860000D03*
D22*
X347585000Y-256860000D03*
X345295000Y-256860000D03*
X343005000Y-256860000D03*
X340715000Y-256860000D03*
X338425000Y-256860000D03*
X336135000Y-256860000D03*
X333845000Y-256860000D03*
X331555000Y-256860000D03*
X351020000Y-259400000D03*
X348730000Y-259400000D03*
X346440000Y-259400000D03*
X344150000Y-259400000D03*
X341860000Y-259400000D03*
X339570000Y-259400000D03*
X337280000Y-259400000D03*
X334990000Y-259400000D03*
X332700000Y-259400000D03*
X349875000Y-261940000D03*
X347585000Y-261940000D03*
X345295000Y-261940000D03*
X343005000Y-261940000D03*
X340715000Y-261940000D03*
X338425000Y-261940000D03*
X336135000Y-261940000D03*
X333845000Y-261940000D03*
%TD*%
D12*
%TO.C,J19*%
X306500000Y-125400000D03*
D13*
X301420000Y-125400000D03*
%TD*%
D21*
%TO.C,C1*%
X446500000Y-257738606D03*
D22*
X446500000Y-260238606D03*
%TD*%
D27*
%TO.C,J11*%
X244507500Y-256400000D03*
D28*
X242217500Y-256400000D03*
X239927500Y-256400000D03*
X237637500Y-256400000D03*
X235347500Y-256400000D03*
X245652500Y-258940000D03*
X243362500Y-258940000D03*
X241072500Y-258940000D03*
X238782500Y-258940000D03*
X236492500Y-258940000D03*
X244507500Y-261480000D03*
X242217500Y-261480000D03*
X239927500Y-261480000D03*
X237637500Y-261480000D03*
X235347500Y-261480000D03*
D29*
X252994500Y-258940000D03*
X228005500Y-258940000D03*
%TD*%
D10*
%TO.C,K3*%
X225500000Y-153100000D03*
X233100000Y-153100000D03*
X233100000Y-140400000D03*
X225500000Y-137860000D03*
%TD*%
D14*
%TO.C,J8*%
X393545000Y-184075000D03*
D15*
X391005000Y-184075000D03*
X388465000Y-184075000D03*
X385925000Y-184075000D03*
X383385000Y-184075000D03*
X380845000Y-184075000D03*
X378305000Y-184075000D03*
X375765000Y-184075000D03*
%TD*%
D11*
%TO.C,H7*%
X372500000Y-266400000D03*
%TD*%
D30*
%TO.C,JP2*%
X453500000Y-249650000D03*
D15*
X456040000Y-249650000D03*
X458580000Y-249650000D03*
%TD*%
D31*
%TO.C,J15*%
X296445000Y-258910000D03*
D32*
X293675000Y-258910000D03*
X290905000Y-258910000D03*
X288135000Y-258910000D03*
X285365000Y-258910000D03*
X295060000Y-261750000D03*
X292290000Y-261750000D03*
X289520000Y-261750000D03*
X286750000Y-261750000D03*
D33*
X303400000Y-260330000D03*
X278410000Y-260330000D03*
%TD*%
D11*
%TO.C,H11*%
X241500000Y-124400000D03*
%TD*%
D14*
%TO.C,J9*%
X388650000Y-175600000D03*
D15*
X386110000Y-175600000D03*
X383570000Y-175600000D03*
X381030000Y-175600000D03*
X378490000Y-175600000D03*
X375950000Y-175600000D03*
%TD*%
D34*
%TO.C,Q3*%
X168250000Y-241650000D03*
D35*
X184910000Y-244190000D03*
D36*
X184910000Y-241650000D03*
X184910000Y-239110000D03*
%TD*%
D37*
%TO.C,J4*%
X368145000Y-227255000D03*
D15*
X365605000Y-227255000D03*
X368145000Y-224715000D03*
X365605000Y-224715000D03*
X368145000Y-222175000D03*
X365605000Y-222175000D03*
X368145000Y-219635000D03*
X365605000Y-219635000D03*
X368145000Y-217095000D03*
X365605000Y-217095000D03*
X368145000Y-214555000D03*
X365605000Y-214555000D03*
X368145000Y-212015000D03*
X365605000Y-212015000D03*
X368145000Y-209475000D03*
X365605000Y-209475000D03*
X368145000Y-206935000D03*
X365605000Y-206935000D03*
X368145000Y-204395000D03*
X365605000Y-204395000D03*
X368145000Y-201855000D03*
X365605000Y-201855000D03*
X368145000Y-199315000D03*
X365605000Y-199315000D03*
X368145000Y-196775000D03*
X365605000Y-196775000D03*
X368145000Y-194235000D03*
X365605000Y-194235000D03*
X368145000Y-191695000D03*
X365605000Y-191695000D03*
X368145000Y-189155000D03*
X365605000Y-189155000D03*
X368145000Y-186615000D03*
X365605000Y-186615000D03*
X368145000Y-184075000D03*
X365605000Y-184075000D03*
%TD*%
D12*
%TO.C,J17*%
X356500000Y-125400000D03*
D13*
X351420000Y-125400000D03*
%TD*%
D16*
%TO.C,J13*%
X204870000Y-256910000D03*
D17*
X209950000Y-263270000D03*
X209950000Y-253110000D03*
X199790000Y-253110000D03*
X199790000Y-263270000D03*
%TD*%
D11*
%TO.C,H2*%
X476500000Y-266400000D03*
%TD*%
D14*
%TO.C,J7*%
X416405000Y-184075000D03*
D15*
X413865000Y-184075000D03*
X411325000Y-184075000D03*
X408785000Y-184075000D03*
X406245000Y-184075000D03*
X403705000Y-184075000D03*
X401165000Y-184075000D03*
X398625000Y-184075000D03*
%TD*%
D10*
%TO.C,K1*%
X175500000Y-153100000D03*
X183100000Y-153100000D03*
X183100000Y-140400000D03*
X175500000Y-137860000D03*
%TD*%
D38*
%TO.C,T18*%
X383250000Y-235650000D03*
%TD*%
%TO.C,T30*%
X371250000Y-194150000D03*
%TD*%
D39*
%TO.C,C37*%
X330225000Y-213630000D03*
X331775000Y-213630000D03*
%TD*%
D38*
%TO.C,T5*%
X347500000Y-264900000D03*
%TD*%
D40*
%TO.C,Q31*%
X338050000Y-215692500D03*
X339950000Y-215692500D03*
X339000000Y-217567500D03*
%TD*%
D41*
%TO.C,R119*%
X331087500Y-221900000D03*
X332912500Y-221900000D03*
%TD*%
D38*
%TO.C,T19*%
X380750000Y-235650000D03*
%TD*%
%TO.C,T15*%
X434250000Y-235900000D03*
%TD*%
%TO.C,T9*%
X240000000Y-264150000D03*
%TD*%
D42*
%TO.C,Q27*%
X276200000Y-227150000D03*
X278500000Y-227150000D03*
X280800000Y-227150000D03*
D43*
X278500000Y-233150000D03*
%TD*%
D38*
%TO.C,T16*%
X431500000Y-235900000D03*
%TD*%
D39*
%TO.C,C34*%
X276725000Y-216400000D03*
X278275000Y-216400000D03*
%TD*%
D41*
%TO.C,R118*%
X330087500Y-211630000D03*
X331912500Y-211630000D03*
%TD*%
D39*
%TO.C,C36*%
X338225000Y-213630000D03*
X339775000Y-213630000D03*
%TD*%
D44*
%TO.C,MH3*%
X396085000Y-199315000D03*
%TD*%
D38*
%TO.C,T38*%
X438250000Y-180150000D03*
%TD*%
%TO.C,T1*%
X338250000Y-264900000D03*
%TD*%
D41*
%TO.C,R109*%
X277587500Y-222650000D03*
X279412500Y-222650000D03*
%TD*%
%TO.C,R115*%
X338087500Y-211630000D03*
X339912500Y-211630000D03*
%TD*%
D38*
%TO.C,T12*%
X403750000Y-180150000D03*
%TD*%
%TO.C,T35*%
X362500000Y-212150000D03*
%TD*%
%TO.C,T33*%
X362500000Y-217150000D03*
%TD*%
%TO.C,T21*%
X375750000Y-235650000D03*
%TD*%
D42*
%TO.C,Q32*%
X337700000Y-224380000D03*
X340000000Y-224380000D03*
X342300000Y-224380000D03*
D43*
X340000000Y-230380000D03*
%TD*%
D41*
%TO.C,R111*%
X276587500Y-214400000D03*
X278412500Y-214400000D03*
%TD*%
D38*
%TO.C,T4*%
X345250000Y-264900000D03*
%TD*%
D41*
%TO.C,R114*%
X285837500Y-222650000D03*
X287662500Y-222650000D03*
%TD*%
D38*
%TO.C,T26*%
X371500000Y-217150000D03*
%TD*%
D45*
%TO.C,T32*%
X371250000Y-189150000D03*
%TD*%
D41*
%TO.C,R116*%
X339087500Y-219880000D03*
X340912500Y-219880000D03*
%TD*%
D38*
%TO.C,T22*%
X373250000Y-235650000D03*
%TD*%
%TO.C,T10*%
X235250000Y-264150000D03*
%TD*%
%TO.C,T37*%
X401250000Y-180150000D03*
%TD*%
%TO.C,T3*%
X343000000Y-264900000D03*
%TD*%
D41*
%TO.C,R117*%
X339087500Y-221880000D03*
X340912500Y-221880000D03*
%TD*%
D42*
%TO.C,Q34*%
X329450000Y-224380000D03*
X331750000Y-224380000D03*
X334050000Y-224380000D03*
D43*
X331750000Y-230380000D03*
%TD*%
D38*
%TO.C,T36*%
X398750000Y-180150000D03*
%TD*%
D41*
%TO.C,R110*%
X277587500Y-224650000D03*
X279412500Y-224650000D03*
%TD*%
D38*
%TO.C,T24*%
X371500000Y-222150000D03*
%TD*%
D41*
%TO.C,R112*%
X285087500Y-214400000D03*
X286912500Y-214400000D03*
%TD*%
D44*
%TO.C,MH5*%
X371955000Y-184075000D03*
%TD*%
D41*
%TO.C,R113*%
X285837500Y-224650000D03*
X287662500Y-224650000D03*
%TD*%
D38*
%TO.C,T13*%
X371250000Y-187150000D03*
%TD*%
%TO.C,T28*%
X371500000Y-211900000D03*
%TD*%
D40*
%TO.C,Q29*%
X284800000Y-218462500D03*
X286700000Y-218462500D03*
X285750000Y-220337500D03*
%TD*%
D38*
%TO.C,T31*%
X371250000Y-191650000D03*
%TD*%
D39*
%TO.C,C35*%
X285225000Y-216400000D03*
X286775000Y-216400000D03*
%TD*%
D44*
%TO.C,MH4*%
X396085000Y-227255000D03*
%TD*%
D38*
%TO.C,T17*%
X429000000Y-235900000D03*
%TD*%
%TO.C,T34*%
X362500000Y-214650000D03*
%TD*%
D44*
%TO.C,MH2*%
X448155000Y-232335000D03*
%TD*%
D41*
%TO.C,R120*%
X331087500Y-219880000D03*
X332912500Y-219880000D03*
%TD*%
D38*
%TO.C,T2*%
X340750000Y-264900000D03*
%TD*%
%TO.C,T11*%
X406250000Y-180150000D03*
%TD*%
D40*
%TO.C,Q33*%
X330050000Y-215692500D03*
X331950000Y-215692500D03*
X331000000Y-217567500D03*
%TD*%
D44*
%TO.C,MH6*%
X365605000Y-232335000D03*
%TD*%
D40*
%TO.C,Q28*%
X276550000Y-218462500D03*
X278450000Y-218462500D03*
X277500000Y-220337500D03*
%TD*%
D42*
%TO.C,Q30*%
X284200000Y-227150000D03*
X286500000Y-227150000D03*
X288800000Y-227150000D03*
D43*
X286500000Y-233150000D03*
%TD*%
D44*
%TO.C,MH1*%
X446885000Y-184075000D03*
%TD*%
D38*
%TO.C,T23*%
X370750000Y-235650000D03*
%TD*%
%TO.C,T6*%
X353750000Y-259400000D03*
%TD*%
%TO.C,T20*%
X378250000Y-235650000D03*
%TD*%
%TO.C,T29*%
X371250000Y-199400000D03*
%TD*%
%TO.C,T27*%
X371500000Y-214650000D03*
%TD*%
%TO.C,T25*%
X371500000Y-219650000D03*
%TD*%
M02*
